<svg xmlns="http://www.w3.org/2000/svg" width="338" height="322" viewBox="0 0 338 322" fill="none">
<rect x="0.678711" y="1.16106" width="336.556" height="320.429" rx="14.0232" fill="white"/>
<path d="M0.678711 14.4835C0.678711 6.73873 6.95709 0.460342 14.7019 0.460342H323.211C330.956 0.460342 337.235 6.73872 337.235 14.4835V31.3113H0.678711V14.4835Z" fill="#246532"/>
<circle cx="18.9089" cy="15.8857" r="2.80463" fill="#FF0606"/>
<circle cx="28.7252" cy="15.8858" r="2.80463" fill="#30C1FF"/>
<circle cx="38.5413" cy="15.8858" r="2.80463" fill="#A3DC2F"/>
<rect x="16.1042" y="44.6334" width="50.4834" height="50.4834" rx="9.81621" fill="#F3F3F3"/>
<path fillRule="evenodd" clipRule="evenodd" d="M38.8287 59.3577H38.8649H43.1798H43.216C44.6957 59.3577 45.8557 59.3577 46.7881 59.4339C47.7375 59.5114 48.5218 59.672 49.2317 60.0337C50.3989 60.6284 51.3477 61.5773 51.9424 62.7444C52.3041 63.4543 52.4647 64.2386 52.5423 65.188C52.6184 66.1204 52.6184 67.2804 52.6184 68.76V68.7601V68.7964V70.9538V70.99V70.9901C52.6184 72.4697 52.6184 73.6297 52.5423 74.5622C52.4647 75.5115 52.3041 76.2958 51.9424 77.0057C51.3477 78.1729 50.3989 79.1217 49.2317 79.7164C48.5218 80.0781 47.7375 80.2387 46.7881 80.3163C45.8557 80.3924 44.6957 80.3924 43.2161 80.3924H43.216H43.1798H38.8649H38.8287H38.8287H38.8286C37.349 80.3924 36.1889 80.3924 35.2566 80.3163C34.3072 80.2387 33.5229 80.0781 32.8129 79.7164C31.6458 79.1217 30.697 78.1729 30.1023 77.0057C29.7406 76.2958 29.58 75.5115 29.5024 74.5622C29.4263 73.6297 29.4263 72.4697 29.4263 70.99V70.9538V68.7964V68.7601C29.4263 67.2805 29.4263 66.1204 29.5024 65.188C29.58 64.2386 29.7406 63.4543 30.1023 62.7444C30.697 61.5773 31.6458 60.6284 32.8129 60.0337C33.5229 59.672 34.3072 59.5114 35.2566 59.4339C36.189 59.3577 37.3491 59.3577 38.8287 59.3577ZM34.9989 64.8871C34.6271 64.6393 34.1248 64.7397 33.877 65.1115C33.6291 65.4833 33.7296 65.9856 34.1014 66.2334L35.1801 66.9525L35.3056 67.0362C36.9218 68.114 37.8836 68.7553 38.9218 69.0681C40.2917 69.4809 41.753 69.4809 43.1229 69.0681C44.1611 68.7553 45.1229 68.114 46.7392 67.0362L46.8646 66.9525L47.9433 66.2334C48.3151 65.9856 48.4156 65.4833 48.1677 65.1115C47.9199 64.7397 47.4176 64.6393 47.0458 64.8871L45.9671 65.6062C44.1869 66.793 43.4351 67.2842 42.656 67.5189C41.5906 67.8399 40.4541 67.8399 39.3886 67.5189C38.6096 67.2842 37.8577 66.793 36.0776 65.6062L34.9989 64.8871Z" fill="#DADADA"/>
<rect x="79.2085" y="48.8401" width="181.6" height="8.4139" rx="4.20695" fill="#F3F3F3"/>
<rect x="79.2085" y="82.4956" width="171.784" height="8.4139" rx="4.20695" fill="#F3F3F3"/>
<rect x="79.2085" y="65.6678" width="188.612" height="8.4139" rx="4.20695" fill="#F3F3F3"/>
<path d="M321.108 50.2424C322.072 50.2424 322.861 49.4536 322.861 48.4896C322.861 47.5255 322.072 46.7367 321.108 46.7367C320.144 46.7367 319.355 47.5255 319.355 48.4896C319.355 49.4536 320.144 50.2424 321.108 50.2424Z" fill="#F0EEEE"/>
<path d="M308.838 50.2424C309.802 50.2424 310.591 49.4536 310.591 48.4896C310.591 47.5255 309.802 46.7367 308.838 46.7367C307.874 46.7367 307.085 47.5255 307.085 48.4896C307.085 49.4536 307.874 50.2424 308.838 50.2424Z" fill="#F0EEEE"/>
<path d="M314.973 50.2424C315.937 50.2424 316.726 49.4536 316.726 48.4896C316.726 47.5255 315.937 46.7367 314.973 46.7367C314.009 46.7367 313.22 47.5255 313.22 48.4896C313.22 49.4536 314.009 50.2424 314.973 50.2424Z" fill="#F0EEEE"/>
<rect x="16.1042" y="109.841" width="50.4834" height="50.4834" rx="9.81621" fill="#F3F3F3"/>
<path fillRule="evenodd" clipRule="evenodd" d="M38.8287 124.566H38.8649H43.1798H43.216C44.6957 124.566 45.8557 124.566 46.7881 124.642C47.7375 124.719 48.5218 124.88 49.2317 125.242C50.3989 125.836 51.3477 126.785 51.9424 127.952C52.3041 128.662 52.4647 129.447 52.5423 130.396C52.6184 131.328 52.6184 132.488 52.6184 133.968V133.968V134.004V136.162V136.198V136.198C52.6184 137.678 52.6184 138.838 52.5423 139.77C52.4647 140.719 52.3041 141.504 51.9424 142.214C51.3477 143.381 50.3989 144.33 49.2317 144.924C48.5218 145.286 47.7375 145.447 46.7881 145.524C45.8557 145.6 44.6957 145.6 43.2161 145.6H43.216H43.1798H38.8649H38.8287H38.8287H38.8286C37.349 145.6 36.1889 145.6 35.2566 145.524C34.3072 145.447 33.5229 145.286 32.8129 144.924C31.6458 144.33 30.697 143.381 30.1023 142.214C29.7406 141.504 29.58 140.719 29.5024 139.77C29.4263 138.838 29.4263 137.678 29.4263 136.198V136.162V134.004V133.968C29.4263 132.488 29.4263 131.328 29.5024 130.396C29.58 129.447 29.7406 128.662 30.1023 127.952C30.697 126.785 31.6458 125.836 32.8129 125.242C33.5229 124.88 34.3072 124.719 35.2566 124.642C36.189 124.566 37.3491 124.566 38.8287 124.566ZM34.9989 130.095C34.6271 129.847 34.1248 129.948 33.877 130.319C33.6291 130.691 33.7296 131.193 34.1014 131.441L35.1801 132.16L35.3056 132.244C36.9218 133.322 37.8836 133.963 38.9218 134.276C40.2917 134.689 41.753 134.689 43.1229 134.276C44.1611 133.963 45.1229 133.322 46.7392 132.244L46.8646 132.16L47.9433 131.441C48.3151 131.193 48.4156 130.691 48.1677 130.319C47.9199 129.948 47.4176 129.847 47.0458 130.095L45.9671 130.814C44.1869 132.001 43.4351 132.492 42.656 132.727C41.5906 133.048 40.4541 133.048 39.3886 132.727C38.6096 132.492 37.8577 132.001 36.0776 130.814L34.9989 130.095Z" fill="#DADADA"/>
<rect x="79.2085" y="114.048" width="181.6" height="8.4139" rx="4.20695" fill="#F3F3F3"/>
<rect x="79.2085" y="147.704" width="171.784" height="8.4139" rx="4.20695" fill="#F3F3F3"/>
<rect x="79.2085" y="130.876" width="188.612" height="8.4139" rx="4.20695" fill="#F3F3F3"/>
<path d="M321.108 115.45C322.072 115.45 322.861 114.662 322.861 113.697C322.861 112.733 322.072 111.945 321.108 111.945C320.144 111.945 319.355 112.733 319.355 113.697C319.355 114.662 320.144 115.45 321.108 115.45Z" fill="#F0EEEE"/>
<path d="M308.838 115.45C309.802 115.45 310.591 114.662 310.591 113.697C310.591 112.733 309.802 111.945 308.838 111.945C307.874 111.945 307.085 112.733 307.085 113.697C307.085 114.662 307.874 115.45 308.838 115.45Z" fill="#F0EEEE"/>
<path d="M314.973 115.45C315.937 115.45 316.726 114.662 316.726 113.697C316.726 112.733 315.937 111.945 314.973 111.945C314.009 111.945 313.22 112.733 313.22 113.697C313.22 114.662 314.009 115.45 314.973 115.45Z" fill="#F0EEEE"/>
<rect x="16.1042" y="175.049" width="50.4834" height="50.4834" rx="9.81621" fill="#F3F3F3"/>
<path fillRule="evenodd" clipRule="evenodd" d="M38.8287 189.773H38.8649H43.1798H43.216C44.6957 189.773 45.8557 189.773 46.7881 189.849C47.7375 189.926 48.5218 190.087 49.2317 190.449C50.3989 191.043 51.3477 191.992 51.9424 193.159C52.3041 193.869 52.4647 194.654 52.5423 195.603C52.6184 196.535 52.6184 197.695 52.6184 199.175V199.175V199.211V201.369V201.405V201.405C52.6184 202.885 52.6184 204.045 52.5423 204.977C52.4647 205.927 52.3041 206.711 51.9424 207.421C51.3477 208.588 50.3989 209.537 49.2317 210.131C48.5218 210.493 47.7375 210.654 46.7881 210.731C45.8557 210.808 44.6957 210.808 43.2161 210.808H43.216H43.1798H38.8649H38.8287H38.8287H38.8286C37.349 210.808 36.1889 210.808 35.2566 210.731C34.3072 210.654 33.5229 210.493 32.8129 210.131C31.6458 209.537 30.697 208.588 30.1023 207.421C29.7406 206.711 29.58 205.927 29.5024 204.977C29.4263 204.045 29.4263 202.885 29.4263 201.405V201.369V199.211V199.175C29.4263 197.696 29.4263 196.535 29.5024 195.603C29.58 194.654 29.7406 193.869 30.1023 193.159C30.697 191.992 31.6458 191.043 32.8129 190.449C33.5229 190.087 34.3072 189.926 35.2566 189.849C36.189 189.773 37.3491 189.773 38.8287 189.773ZM34.9989 195.302C34.6271 195.054 34.1248 195.155 33.877 195.527C33.6291 195.898 33.7296 196.401 34.1014 196.648L35.1801 197.368L35.3056 197.451C36.9218 198.529 37.8836 199.17 38.9218 199.483C40.2917 199.896 41.753 199.896 43.1229 199.483C44.1611 199.17 45.1229 198.529 46.7392 197.451L46.8646 197.368L47.9433 196.648C48.3151 196.401 48.4156 195.898 48.1677 195.527C47.9199 195.155 47.4176 195.054 47.0458 195.302L45.9671 196.021C44.1869 197.208 43.4351 197.699 42.656 197.934C41.5906 198.255 40.4541 198.255 39.3886 197.934C38.6096 197.699 37.8577 197.208 36.0776 196.021L34.9989 195.302Z" fill="#DADADA"/>
<rect x="79.2085" y="179.255" width="181.6" height="8.4139" rx="4.20695" fill="#F3F3F3"/>
<rect x="79.2085" y="212.911" width="171.784" height="8.4139" rx="4.20695" fill="#F3F3F3"/>
<rect x="79.2085" y="196.083" width="188.612" height="8.4139" rx="4.20695" fill="#F3F3F3"/>
<path d="M321.108 184.865C322.072 184.865 322.861 184.076 322.861 183.112C322.861 182.148 322.072 181.359 321.108 181.359C320.144 181.359 319.355 182.148 319.355 183.112C319.355 184.076 320.144 184.865 321.108 184.865Z" fill="#F0EEEE"/>
<path d="M308.838 184.865C309.802 184.865 310.591 184.076 310.591 183.112C310.591 182.148 309.802 181.359 308.838 181.359C307.874 181.359 307.085 182.148 307.085 183.112C307.085 184.076 307.874 184.865 308.838 184.865Z" fill="#F0EEEE"/>
<path d="M314.973 184.865C315.937 184.865 316.726 184.076 316.726 183.112C316.726 182.148 315.937 181.359 314.973 181.359C314.009 181.359 313.22 182.148 313.22 183.112C313.22 184.076 314.009 184.865 314.973 184.865Z" fill="#F0EEEE"/>
<rect x="16.1042" y="240.256" width="50.4834" height="50.4834" rx="9.81621" fill="#F3F3F3"/>
<path fillRule="evenodd" clipRule="evenodd" d="M38.8287 254.981H38.8649H43.1798H43.216C44.6957 254.981 45.8557 254.981 46.7881 255.057C47.7375 255.134 48.5218 255.295 49.2317 255.657C50.3989 256.251 51.3477 257.2 51.9424 258.367C52.3041 259.077 52.4647 259.861 52.5423 260.811C52.6184 261.743 52.6184 262.903 52.6184 264.383V264.383V264.419V266.577V266.613V266.613C52.6184 268.093 52.6184 269.253 52.5423 270.185C52.4647 271.134 52.3041 271.919 51.9424 272.629C51.3477 273.796 50.3989 274.745 49.2317 275.339C48.5218 275.701 47.7375 275.862 46.7881 275.939C45.8557 276.015 44.6957 276.015 43.2161 276.015H43.216H43.1798H38.8649H38.8287H38.8287H38.8286C37.349 276.015 36.1889 276.015 35.2566 275.939C34.3072 275.862 33.5229 275.701 32.8129 275.339C31.6458 274.745 30.697 273.796 30.1023 272.629C29.7406 271.919 29.58 271.134 29.5024 270.185C29.4263 269.253 29.4263 268.093 29.4263 266.613V266.577V264.419V264.383C29.4263 262.903 29.4263 261.743 29.5024 260.811C29.58 259.861 29.7406 259.077 30.1023 258.367C30.697 257.2 31.6458 256.251 32.8129 255.657C33.5229 255.295 34.3072 255.134 35.2566 255.057C36.189 254.981 37.3491 254.981 38.8287 254.981ZM34.9989 260.51C34.6271 260.262 34.1248 260.363 33.877 260.734C33.6291 261.106 33.7296 261.608 34.1014 261.856L35.1801 262.575L35.3056 262.659C36.9218 263.737 37.8836 264.378 38.9218 264.691C40.2917 265.104 41.753 265.104 43.1229 264.691C44.1611 264.378 45.1229 263.737 46.7392 262.659L46.8646 262.575L47.9433 261.856C48.3151 261.608 48.4156 261.106 48.1677 260.734C47.9199 260.363 47.4176 260.262 47.0458 260.51L45.9671 261.229C44.1869 262.416 43.4351 262.907 42.656 263.142C41.5906 263.463 40.4541 263.463 39.3886 263.142C38.6096 262.907 37.8577 262.416 36.0776 261.229L34.9989 260.51Z" fill="#DADADA"/>
<rect x="79.2085" y="244.463" width="181.6" height="8.4139" rx="4.20695" fill="#F3F3F3"/>
<rect x="79.2085" y="278.119" width="171.784" height="8.4139" rx="4.20695" fill="#F3F3F3"/>
<rect x="79.2085" y="261.291" width="188.612" height="8.4139" rx="4.20695" fill="#F3F3F3"/>
<path d="M321.108 245.866C322.072 245.866 322.861 245.077 322.861 244.113C322.861 243.149 322.072 242.36 321.108 242.36C320.144 242.36 319.355 243.149 319.355 244.113C319.355 245.077 320.144 245.866 321.108 245.866Z" fill="#F0EEEE"/>
<path d="M308.838 245.866C309.802 245.866 310.591 245.077 310.591 244.113C310.591 243.149 309.802 242.36 308.838 242.36C307.874 242.36 307.085 243.149 307.085 244.113C307.085 245.077 307.874 245.866 308.838 245.866Z" fill="#F0EEEE"/>
<path d="M314.973 245.866C315.937 245.866 316.726 245.077 316.726 244.113C316.726 243.149 315.937 242.36 314.973 242.36C314.009 242.36 313.22 243.149 313.22 244.113C313.22 245.077 314.009 245.866 314.973 245.866Z" fill="#F0EEEE"/>
</svg>