<svg width="30" height="30" viewBox="0 0 30 30" fill="none" xmlns="http://www.w3.org/2000/svg">
<path d="M13.1562 20.6875L22 11.8438L20.5625 10.4375L13.1562 17.8438L9.40625 14.0938L8 15.5L13.1562 20.6875ZM15 27.5C13.2917 27.5 11.6771 27.1719 10.1562 26.5156C8.63542 25.8594 7.30729 24.9635 6.17188 23.8281C5.03646 22.6927 4.14062 21.3646 3.48438 19.8438C2.82812 18.3229 2.5 16.7083 2.5 15C2.5 13.2708 2.82812 11.6458 3.48438 10.125C4.14062 8.60417 5.03646 7.28125 6.17188 6.15625C7.30729 5.03125 8.63542 4.14062 10.1562 3.48438C11.6771 2.82812 13.2917 2.5 15 2.5C16.7292 2.5 18.3542 2.82812 19.875 3.48438C21.3958 4.14062 22.7188 5.03125 23.8438 6.15625C24.9688 7.28125 25.8594 8.60417 26.5156 10.125C27.1719 11.6458 27.5 13.2708 27.5 15C27.5 16.7083 27.1719 18.3229 26.5156 19.8438C25.8594 21.3646 24.9688 22.6927 23.8438 23.8281C22.7188 24.9635 21.3958 25.8594 19.875 26.5156C18.3542 27.1719 16.7292 27.5 15 27.5Z" fill="#246532"/>
</svg>
