<svg width="46" height="46" viewBox="0 0 46 46" fill="none" xmlns="http://www.w3.org/2000/svg">
<rect x="1" y="1.44531" width="44" height="44" rx="22" stroke="#246532"/>
<path d="M19.8781 13.7668C19.4984 12.8177 18.5791 12.1953 17.5569 12.1953H14.1184C12.8104 12.1953 11.75 13.2554 11.75 14.5635C11.75 25.6818 20.7635 34.6953 31.8818 34.6953C33.1899 34.6953 34.25 33.6348 34.25 32.3268L34.2506 28.8878C34.2506 27.8655 33.6284 26.9464 32.6792 26.5667L29.3837 25.249C28.5311 24.908 27.5604 25.0614 26.8549 25.6493L26.0044 26.3587C25.0111 27.1864 23.5495 27.1206 22.6352 26.2063L20.2403 23.8091C19.326 22.8948 19.2584 21.4345 20.0862 20.4412L20.7954 19.5907C21.3833 18.8853 21.5381 17.9143 21.1971 17.0617L19.8781 13.7668Z" stroke="#246532" strokeWidth="2" strokeLinecap="round" strokeLinejoin="round"/>
</svg>
