<svg width="44" height="45" viewBox="0 0 44 45" fill="none" xmlns="http://www.w3.org/2000/svg">
<rect x="0.5" y="0.945312" width="43" height="43" rx="21.5" stroke="#246532"/>
<path d="M12 14.9453L19.6345 20.7106L19.6371 20.7128C20.4848 21.3344 20.9089 21.6454 21.3734 21.7656C21.784 21.8718 22.2156 21.8718 22.6262 21.7656C23.0912 21.6453 23.5165 21.3334 24.3657 20.7106C24.3657 20.7106 29.2626 16.9527 32 14.9453M10.75 27.1956V17.6956C10.75 16.2954 10.75 15.5948 11.0225 15.0601C11.2622 14.5897 11.6443 14.2075 12.1147 13.9678C12.6495 13.6953 13.3501 13.6953 14.7502 13.6953H29.2502C30.6504 13.6953 31.3495 13.6953 31.8842 13.9678C32.3547 14.2075 32.7381 14.5897 32.9778 15.0601C33.25 15.5943 33.25 16.2941 33.25 17.6915V27.1998C33.25 28.5972 33.25 29.2959 32.9778 29.8302C32.7381 30.3006 32.3547 30.6834 31.8842 30.9231C31.35 31.1953 30.6513 31.1953 29.2539 31.1953H14.7461C13.3487 31.1953 12.649 31.1953 12.1147 30.9231C11.6443 30.6834 11.2622 30.3006 11.0225 29.8302C10.75 29.2954 10.75 28.5957 10.75 27.1956Z" stroke="#246532" strokeWidth="2" strokeLinecap="round" strokeLinejoin="round"/>
</svg>
