<svg width="44" height="45" viewBox="0 0 44 45" fill="none" xmlns="http://www.w3.org/2000/svg">
<rect x="0.5" y="0.945312" width="43" height="43" rx="21.5" stroke="#246532"/>
<path d="M13.25 19.8489C13.25 25.9137 18.5556 30.929 20.904 32.8518C21.2401 33.127 21.4101 33.2663 21.6609 33.3369C21.8561 33.3918 22.1435 33.3918 22.3387 33.3369C22.59 33.2661 22.7588 33.1282 23.0962 32.852C25.4446 30.9292 30.7499 25.9142 30.7499 19.8494C30.7499 17.5543 29.8281 15.3529 28.1871 13.73C26.5462 12.1071 24.3207 11.1953 22.0001 11.1953C19.6795 11.1953 17.4538 12.1072 15.8128 13.7301C14.1719 15.353 13.25 17.5537 13.25 19.8489Z" stroke="#246532" strokeWidth="2" strokeLinecap="round" strokeLinejoin="round"/>
<path d="M19.5 18.6953C19.5 20.076 20.6193 21.1953 22 21.1953C23.3807 21.1953 24.5 20.076 24.5 18.6953C24.5 17.3146 23.3807 16.1953 22 16.1953C20.6193 16.1953 19.5 17.3146 19.5 18.6953Z" stroke="#246532" strokeWidth="2" strokeLinecap="round" strokeLinejoin="round"/>
</svg>
