<svg width="199" height="120" viewBox="0 0 199 120" fill="none" xmlns="http://www.w3.org/2000/svg">
<rect x="0.699951" y="0.5" width="197.4" height="119" rx="9.5" stroke="#D6D6D6"/>
<path d="M139.4 80.625C138.566 85 135.025 88.3333 130.65 88.9583C123.775 90 112.316 91.25 99.3998 91.25C86.6915 91.25 75.2332 90 68.1498 88.9583C63.7748 88.3333 60.2332 85 59.3998 80.625C58.5665 75.8333 57.7332 68.75 57.7332 60C57.7332 51.25 58.5665 44.1667 59.3998 39.375C60.2332 35 63.7748 31.6667 68.1498 31.0417C75.0248 30 86.4832 28.75 99.3998 28.75C112.316 28.75 123.566 30 130.65 31.0417C135.025 31.6667 138.566 35 139.4 39.375C140.233 44.1667 141.275 51.25 141.275 60C141.066 68.75 140.233 75.8333 139.4 80.625Z" fill="#FF3D00"/>
<path d="M91.0667 74.5846V45.418L116.067 60.0013L91.0667 74.5846Z" fill="white"/>
</svg>
