<svg width="381" height="376" viewBox="0 0 381 376" fill="none" xmlns="http://www.w3.org/2000/svg">
<g clipPath="url(#clip0_141_5268)">
<path d="M375.568 63.8627C367.235 41.834 349.496 28.1423 335.957 33.2767C328.935 35.9397 324.425 43.1548 322.864 52.543C295.878 41.6138 260.55 48.8857 236.393 53.9207C200.158 61.4766 162.412 13.1085 101.02 45.8605C96.2395 48.4099 91.8989 51.5701 87.9555 55.2486C87.9555 48.5875 86.3597 42.1251 81.0758 38.4537C68.203 29.4987 54.4791 55.625 54.4791 55.625C54.4791 55.625 36.209 73.4994 35.592 136.93C34.9749 200.36 48.7059 167.942 48.7059 167.942L51.7769 160.095C49.4648 195.879 52.628 228.88 54.7203 241.584C56.6636 253.408 60.3801 263.698 65.515 272.667C61.4865 273.171 58.0963 274.677 55.6423 277.297C45.6136 287.999 54.926 313.053 76.4303 333.257C97.9416 353.461 123.503 361.159 133.532 350.457C139.532 344.051 138.603 332.504 132.283 319.935C172.377 331.759 220.159 331.261 256.635 328.939C257.848 329.074 258.869 329.174 259.621 329.223C266.933 329.749 237.691 337.063 242.393 349.612C247.096 362.16 316.013 353.794 347.347 330.267C378.675 306.74 370.32 294.192 368.752 283.213C367.185 272.234 352.043 276.942 348.908 285.826C348.482 287.041 348.17 287.63 347.95 287.737C349.22 277.319 348.667 266.333 349.44 256.44C351.653 228.098 357.873 200.083 360.596 171.762C362.383 153.221 363.915 133.209 361.688 114.042C363.206 113.907 364.703 113.587 366.142 113.04C379.689 107.906 383.909 85.8773 375.575 63.8556L375.568 63.8627Z" fill="#246532"/>
<path d="M375.568 63.8627C367.235 41.834 349.496 28.1423 335.957 33.2767C328.935 35.9397 324.425 43.1548 322.864 52.543C295.878 41.6138 260.55 48.8857 236.393 53.9207C200.158 61.4766 162.412 13.1085 101.02 45.8605C96.2395 48.4099 91.8989 51.5701 87.9555 55.2486C87.9555 48.5875 86.3597 42.1251 81.0758 38.4537C68.203 29.4987 54.4791 55.625 54.4791 55.625C54.4791 55.625 36.209 73.4994 35.592 136.93C34.9749 200.36 48.7059 167.942 48.7059 167.942L51.7769 160.095C49.4648 195.879 52.628 228.88 54.7203 241.584C56.6636 253.408 60.3801 263.698 65.515 272.667C61.4865 273.171 58.0963 274.677 55.6423 277.297C45.6136 287.999 54.926 313.053 76.4303 333.257C97.9416 353.461 123.503 361.159 133.532 350.457C139.532 344.051 138.603 332.504 132.283 319.935C172.377 331.759 220.159 331.261 256.635 328.939C257.848 329.074 258.869 329.174 259.621 329.223C266.933 329.749 237.691 337.063 242.393 349.612C247.096 362.16 316.013 353.794 347.347 330.267C378.675 306.74 370.32 294.192 368.752 283.213C367.185 272.234 352.043 276.942 348.908 285.826C348.482 287.041 348.17 287.63 347.95 287.737C349.22 277.319 348.667 266.333 349.44 256.44C351.653 228.098 357.873 200.083 360.596 171.762C362.383 153.221 363.915 133.209 361.688 114.042C363.206 113.907 364.703 113.587 366.142 113.04C379.689 107.906 383.909 85.8773 375.575 63.8556L375.568 63.8627Z" fill="#E1FFE8"/>
<path d="M176.301 329.929L176.848 347.725C176.848 347.725 158.942 354.256 158.724 357.56L193.269 357.74L193.558 329.976L176.301 329.937V329.929Z" fill="#263238"/>
<path d="M187.535 346.287C188.199 346.475 188.66 347.225 188.503 347.904C188.347 348.576 187.582 349.053 186.91 348.881C186.238 348.709 185.66 347.818 185.894 347.162C186.129 346.506 187.05 346.006 187.66 346.334" fill="#E0E0E0"/>
<path d="M193.269 357.74L193.191 354.943L160.099 355.818C160.099 355.818 158.56 356.482 158.724 357.56L193.269 357.74Z" fill="#455A64"/>
<path d="M176.285 347.544C176.285 347.716 177.137 347.794 177.957 348.341C178.801 348.865 179.223 349.599 179.379 349.536C179.535 349.505 179.285 348.497 178.278 347.849C177.27 347.193 176.246 347.388 176.285 347.544Z" fill="white"/>
<path d="M172.653 349.029C172.614 349.193 173.34 349.482 173.911 350.201C174.504 350.904 174.645 351.669 174.809 351.669C174.965 351.701 175.09 350.709 174.364 349.834C173.645 348.951 172.653 348.873 172.653 349.037V349.029Z" fill="white"/>
<path d="M170.574 353.357C170.73 353.396 170.965 352.552 170.535 351.623C170.113 350.693 169.316 350.326 169.246 350.467C169.152 350.607 169.66 351.099 169.996 351.873C170.355 352.631 170.402 353.341 170.566 353.357H170.574Z" fill="white"/>
<path d="M176.613 343.474C176.684 343.631 177.457 343.396 178.41 343.474C179.363 343.521 180.105 343.849 180.191 343.701C180.293 343.576 179.566 342.951 178.442 342.889C177.317 342.81 176.528 343.349 176.606 343.482L176.613 343.474Z" fill="white"/>
<path d="M219.127 374.544C222.205 371.185 233.47 358.779 233.244 357.217C232.986 355.404 232.775 334.444 232.775 334.444L216.885 333.757L218.752 355.217L215.339 372.622" fill="#263238"/>
<path d="M217.23 375.239L233.151 355.771L233.205 356.685C233.252 357.475 233.026 358.256 232.557 358.889C231.291 360.584 227.706 365.177 219.183 374.552" fill="#455A64"/>
<g opacity="0.6">
<path d="M228.291 349.115C227.775 349.522 227.65 350.35 228.041 350.881C228.424 351.412 229.268 351.545 229.791 351.146C230.314 350.748 230.494 349.764 230.049 349.279C229.603 348.795 228.611 348.693 228.205 349.201" fill="white"/>
</g>
<path d="M221.541 365.528C221.424 365.599 220.869 364.497 219.549 363.974C218.244 363.411 217.08 363.786 217.041 363.661C217.018 363.607 217.283 363.427 217.775 363.325C218.267 363.216 219.002 363.247 219.721 363.544C220.439 363.849 220.978 364.349 221.252 364.771C221.533 365.2 221.588 365.513 221.533 365.536L221.541 365.528Z" fill="white"/>
<path d="M220.19 368.505C220.096 368.606 219.362 367.95 218.229 367.7C217.104 367.427 216.159 367.7 216.112 367.567C216.042 367.458 217.05 366.943 218.339 367.239C219.628 367.528 220.307 368.435 220.198 368.505H220.19Z" fill="white"/>
<path d="M224.15 361.661C224.057 361.771 222.932 360.755 221.205 360.216C219.486 359.654 217.979 359.818 217.971 359.677C217.932 359.568 219.51 359.162 221.354 359.763C223.205 360.349 224.252 361.591 224.158 361.654L224.15 361.661Z" fill="white"/>
<path d="M224.127 355.084C224.08 355.217 222.861 354.795 221.307 354.842C219.76 354.865 218.557 355.334 218.502 355.201C218.44 355.099 219.635 354.396 221.299 354.365C222.963 354.326 224.189 354.974 224.127 355.084Z" fill="white"/>
<path d="M223.736 348.771C223.681 348.896 222.439 348.263 220.806 348.435C219.174 348.576 218.088 349.451 218.002 349.334C217.963 349.295 218.182 349.006 218.658 348.685C219.135 348.365 219.885 348.053 220.76 347.959C221.635 347.873 222.439 348.037 222.963 348.256C223.494 348.474 223.759 348.709 223.736 348.763V348.771Z" fill="white"/>
<path d="M220.776 347.24C220.776 347.24 220.682 346.959 220.698 346.428C220.714 345.904 220.815 345.131 221.206 344.256C221.409 343.842 221.62 343.311 222.206 342.99C222.495 342.826 222.94 342.857 223.213 343.123C223.487 343.381 223.588 343.732 223.612 344.068C223.674 345.435 222.589 346.826 221.065 347.123C219.534 347.389 218.081 346.599 217.393 345.459C217.237 345.162 217.128 344.795 217.268 344.42C217.409 344.045 217.839 343.865 218.151 343.904C218.8 343.959 219.222 344.303 219.612 344.553C220.393 345.1 220.893 345.701 221.19 346.131C221.487 346.568 221.589 346.842 221.565 346.849C221.495 346.912 220.956 345.826 219.425 344.826C219.042 344.6 218.597 344.311 218.136 344.295C217.909 344.287 217.722 344.389 217.651 344.576C217.581 344.756 217.643 345.021 217.776 345.256C218.354 346.185 219.682 346.904 220.971 346.662C222.26 346.428 223.213 345.201 223.167 344.1C223.151 343.834 223.065 343.576 222.917 343.428C222.768 343.279 222.549 343.256 222.362 343.35C221.956 343.545 221.706 344.014 221.495 344.404C220.69 346.045 220.862 347.256 220.768 347.24H220.776Z" fill="white"/>
<path d="M158.607 182.357C158.607 182.357 155.99 192.497 156.935 204.856C157.302 209.637 173.434 341.904 173.434 341.904H195.214L189.09 217.59L190.871 217.98C190.871 217.98 202.761 271.001 203.73 279.587C204.605 287.305 215.284 347.951 215.284 347.951L235.837 347.724L228.189 269.447L220.783 198.302L218.002 177.592L158.599 182.365L158.607 182.357Z" fill="#263238"/>
<path d="M161.129 204.357C181.207 211.279 207.588 214.755 221.119 201.42L216.736 100.347H165.606L161.129 204.357Z" fill="#E0E0E0"/>
<path d="M199.76 152.937C199.839 153.023 196.3 156.335 191.87 160.335C187.433 164.343 183.777 167.514 183.707 167.436C183.628 167.35 187.167 164.038 191.605 160.038C196.042 156.038 199.698 152.859 199.768 152.937H199.76Z" fill="#263238"/>
<path opacity="0.3" d="M180.738 209.356C180.738 209.356 182.027 124.477 180.324 120.337C178.621 116.197 172.535 208.122 173.067 208.122L180.738 209.356Z" fill="black"/>
<path d="M159.544 121.783L156.95 164.585L155.075 207.583C160.63 211.825 168.192 214.036 177.215 214.755L180.746 127.884V94.5576L180.121 94.1357L175.809 97.8621L174.824 97.9637C174.137 96.5419 173.043 97.0731 173.043 97.0731C172.699 96.495 172.207 96.3934 172.207 96.3934C171.168 96.2372 170.528 97.0731 170.528 97.0731L169.739 96.2294C168.457 95.8622 167.723 97.4481 167.723 97.4481C156.45 98.698 154.927 105.323 153.161 109.526L159.552 121.783H159.544Z" fill="#83B71B"/>
<path d="M162.841 122.626C162.724 122.986 161.763 147.086 161.763 147.086C161.763 147.086 164.403 149.844 163.442 153.437C162.481 157.031 160.732 165.327 155.974 165.695C149.302 166.202 143.061 162.312 143.186 150.32C143.303 138.329 153.052 109.525 153.052 109.525L164.528 117.666L162.849 122.626H162.841Z" fill="#83B71B"/>
<path d="M201.401 92.9639C201.401 92.9639 205.385 95.5497 206.541 97.4324L209.424 97.409C209.932 97.3543 210.471 96.7762 211.119 96.7996C211.502 96.8152 211.971 97.4012 212.392 97.4402C212.752 97.4715 213.049 96.8309 213.424 96.8777C214.228 96.9793 214.822 97.5183 215.673 97.7293C218.9 98.5261 222.486 99.6198 224.173 100.831C228.54 103.963 230.009 109.518 230.009 109.518C230.009 109.518 218.212 122.244 219.033 122.845C219.853 123.447 219.408 155.344 219.408 155.344C219.408 155.344 223.775 203.966 222.611 205.56C221.447 207.154 209.728 214.263 198.706 213.638C198.706 213.638 198.346 207.466 199.268 192.951C200.643 171.132 200.487 163.281 200.877 155.43C201.502 142.758 200.768 118.853 200.885 114.885C200.971 112.018 201.127 93.0342 201.401 92.9717V92.9639Z" fill="#83B71B"/>
<g opacity="0.3">
<path d="M217.706 147.282C215.776 150.501 214.972 154.368 215.464 158.086C215.948 161.805 217.729 165.336 220.424 167.945V162.992L218.104 148.423L217.706 147.282Z" fill="black"/>
</g>
<path d="M230.009 109.51C230.009 109.51 234.134 140.625 236.282 143.492C238.43 146.367 237.72 150.422 237.165 154.367C236.556 158.687 234.399 168.944 226.189 168.241C221.884 167.874 219.33 164.757 217.861 160.109C215.314 152.047 218.619 142.524 218.611 140.336C218.603 138.149 216.018 121.829 216.322 120.97C216.627 120.111 230.009 109.51 230.009 109.51Z" fill="#83B71B"/>
<path d="M180.598 114.97C180.598 114.97 180.418 114.743 180.137 114.306C179.848 113.876 179.442 113.236 178.801 112.572C178.481 112.244 178.09 111.915 177.614 111.665C177.145 111.408 176.567 111.298 175.957 111.228C174.731 111.111 173.325 111.353 172.075 112.087L171.622 112.353L171.778 111.853C171.973 111.236 172.169 110.587 172.356 109.923C173.278 106.627 174.106 103.642 174.739 101.377C175.036 100.346 175.278 99.4786 175.481 98.7911C175.661 98.1818 175.778 97.8458 175.801 97.8536C175.825 97.8536 175.77 98.2052 175.629 98.8302C175.497 99.4551 175.286 100.346 175.012 101.447C174.465 103.65 173.7 106.697 172.747 110.033C172.559 110.697 172.356 111.353 172.161 111.978L171.864 111.744C174.544 110.181 177.809 110.775 178.996 112.384C179.637 113.103 180.012 113.775 180.262 114.228C180.512 114.689 180.621 114.954 180.598 114.962V114.97Z" fill="#263238"/>
<g opacity="0.3">
<path d="M203.667 111.916C204.925 111.345 206.409 111.345 207.737 111.728L207.753 111.791C208.128 112.822 208.386 113.884 208.534 114.97C206.284 113.65 203.417 113.103 201.113 114.314C201.878 113.212 202.417 112.478 203.675 111.908L203.667 111.916Z" fill="black"/>
</g>
<path d="M200.877 114.479C200.877 114.479 200.987 114.229 201.284 113.83C201.581 113.44 202.057 112.885 202.768 112.323C203.127 112.041 203.549 111.768 204.057 111.549C204.565 111.33 205.166 111.221 205.783 111.229C207.026 111.229 208.432 111.682 209.549 112.674L209.221 112.846C209.096 111.963 208.932 111.034 208.768 110.073C208.135 106.627 207.572 103.51 207.135 101.143C206.947 100.065 206.791 99.1513 206.658 98.4326C206.557 97.792 206.51 97.4326 206.533 97.4248C206.565 97.4248 206.658 97.7685 206.807 98.4013C206.955 99.0341 207.166 99.9481 207.408 101.089C207.893 103.362 208.533 106.502 209.158 110.002C209.322 110.963 209.486 111.893 209.604 112.791L209.674 113.33L209.275 112.963C208.244 112.033 206.94 111.58 205.776 111.565C204.588 111.502 203.627 112.01 202.916 112.526C201.495 113.58 200.924 114.526 200.87 114.471L200.877 114.479Z" fill="#263238"/>
<g opacity="0.3">
<path d="M165.474 154.016C162.857 153.75 160.146 154.774 158.349 156.688C156.553 158.602 155.717 161.383 156.146 163.969C156.279 163.898 157.029 163.602 157.029 163.602L156.803 167.43C159.763 167.023 162.638 165.133 164.255 162.617C165.872 160.102 166.333 156.875 165.474 154.008V154.016Z" fill="black"/>
</g>
<path d="M155.975 165.694C158.389 165.483 160.654 164.132 162.279 162.202C163.904 160.273 164.904 157.812 165.357 155.265C165.873 152.406 165.662 149.242 164.053 146.898C162.412 144.508 160.045 143.523 157.42 142.578" fill="#83B71B"/>
<path d="M157.42 142.578C157.42 142.578 157.857 142.672 158.623 142.937C159.381 143.219 160.49 143.617 161.716 144.406C162.935 145.187 164.248 146.461 165.013 148.273C165.779 150.07 165.974 152.257 165.693 154.46C165.404 156.663 164.724 158.71 163.763 160.382C162.81 162.069 161.568 163.343 160.365 164.163C159.162 164.999 158.021 165.389 157.232 165.561C156.834 165.647 156.521 165.686 156.31 165.694C156.1 165.71 155.982 165.702 155.982 165.694C155.982 165.655 156.428 165.616 157.193 165.405C157.959 165.194 159.053 164.772 160.201 163.929C161.349 163.101 162.537 161.843 163.443 160.194C164.357 158.554 165.013 156.554 165.294 154.406C165.568 152.257 165.388 150.14 164.677 148.414C163.966 146.679 162.732 145.437 161.568 144.641C160.396 143.844 159.31 143.398 158.576 143.078C157.834 142.766 157.42 142.594 157.435 142.57L157.42 142.578Z" fill="#263238"/>
<path d="M159.24 116.338C159.24 116.338 159.458 116.853 159.763 117.799C160.076 118.822 160.49 120.166 160.982 121.76V121.783V121.806C161.005 124.111 161.029 126.923 161.06 129.97C161.091 133.759 161.122 137.181 161.146 139.766C161.154 140.962 161.161 141.954 161.169 142.735C161.169 143.438 161.154 143.821 161.13 143.829C161.099 143.829 161.06 143.446 161.013 142.743C160.966 142.04 160.912 141.032 160.865 139.774C160.763 137.267 160.693 133.806 160.654 129.978C160.63 126.916 160.63 124.08 160.654 121.814V121.861C160.224 120.252 159.857 118.9 159.576 117.861C159.326 116.9 159.201 116.361 159.232 116.346L159.24 116.338Z" fill="#263238"/>
<path d="M222.306 117.275C222.306 117.275 222.08 117.689 221.603 118.4C221.08 119.165 220.392 120.158 219.572 121.353L219.603 121.267C219.611 123.728 219.517 126.993 219.338 130.563C219.135 134.438 218.955 137.946 218.814 140.586C218.76 141.813 218.713 142.828 218.674 143.625C218.642 144.344 218.603 144.742 218.58 144.742C218.549 144.742 218.533 144.344 218.517 143.625C218.502 142.906 218.51 141.867 218.533 140.578C218.58 138.008 218.744 134.462 218.939 130.54C219.119 126.978 219.252 123.72 219.299 121.267V121.212L219.33 121.173C220.197 120.009 220.916 119.04 221.478 118.298C221.994 117.626 222.291 117.259 222.314 117.275H222.306Z" fill="#263238"/>
<path d="M227.884 168.226C227.884 168.226 227.415 168.257 226.564 168.241C225.728 168.132 224.47 167.999 223.087 167.304C221.713 166.616 220.283 165.367 219.236 163.624C218.174 161.89 217.447 159.765 216.978 157.5C216.478 155.226 216.447 152.969 216.697 150.977C216.947 148.977 217.478 147.227 218.064 145.821C218.666 144.422 219.314 143.368 219.822 142.688C220.056 142.336 220.283 142.094 220.424 141.922C220.572 141.751 220.65 141.672 220.658 141.68C220.744 141.735 219.447 143.141 218.33 145.938C217.791 147.336 217.291 149.063 217.064 151.031C216.846 152.992 216.877 155.195 217.377 157.429C217.838 159.672 218.541 161.757 219.556 163.445C220.564 165.14 221.908 166.367 223.22 167.062C224.54 167.773 225.759 167.945 226.579 168.101C227.415 168.163 227.884 168.21 227.884 168.241V168.226Z" fill="#263238"/>
<g opacity="0.3">
<path d="M177.481 111.471C176.223 110.901 174.739 110.901 173.411 111.284L173.395 111.346C173.02 112.377 172.762 113.44 172.614 114.526C174.864 113.206 177.801 113.135 180.106 114.354C179.527 113.096 178.731 112.034 177.473 111.463L177.481 111.471Z" fill="black"/>
</g>
<path d="M188.276 47.8955L187.401 47.9346C178.582 48.2939 171.512 55.3795 171.168 64.1994C170.848 72.4099 170.598 80.4173 170.832 84.8078C171.316 93.8854 180.644 94.7838 180.644 94.7838C180.667 94.7838 180.628 97.9399 180.621 100.612C184.847 107.76 194.979 108.494 199.987 101.862L201.104 100.455L202.479 65.6681C202.901 56.1998 197.745 48.0596 188.269 47.9033L188.276 47.8955Z" fill="#FFBF9D"/>
<path d="M180.643 94.8621C180.643 94.8621 186.385 94.9637 192.33 90.8779C192.33 90.8779 189.768 97.8229 180.667 97.3854L180.643 94.8699V94.8621Z" fill="#FF9A6C"/>
<path d="M175.347 71.1524C175.347 71.8398 175.933 72.4023 176.651 72.4101C177.37 72.4179 177.948 71.8711 177.94 71.1836C177.94 70.4961 177.354 69.9337 176.636 69.9259C175.917 69.9181 175.339 70.4649 175.347 71.1524Z" fill="#263238"/>
<path d="M173.262 68.1208C173.426 68.2848 174.379 67.5114 175.778 67.4645C177.168 67.3942 178.223 68.0661 178.371 67.8864C178.441 67.8083 178.27 67.5114 177.809 67.1989C177.356 66.8943 176.598 66.613 175.723 66.6521C174.856 66.6911 174.137 67.0427 173.731 67.3864C173.317 67.7302 173.184 68.0426 173.262 68.1208Z" fill="#263238"/>
<path d="M188.214 70.9961C188.214 71.6836 188.8 72.2461 189.519 72.2539C190.237 72.2617 190.816 71.7148 190.808 71.0274C190.808 70.3399 190.222 69.7774 189.503 69.7696C188.784 69.7618 188.206 70.3086 188.214 70.9961Z" fill="#263238"/>
<path d="M186.964 67.8786C187.136 68.0426 188.089 67.277 189.479 67.2224C190.87 67.152 191.925 67.8239 192.073 67.6442C192.143 67.5661 191.971 67.2692 191.511 66.9567C191.057 66.6521 190.3 66.3708 189.425 66.4099C188.558 66.449 187.839 66.8005 187.433 67.1442C187.019 67.488 186.886 67.8004 186.964 67.8786Z" fill="#263238"/>
<path d="M182.394 78.8156C182.394 78.7374 181.527 78.6203 180.113 78.5031C179.753 78.4796 179.417 78.425 179.347 78.1828C179.253 77.925 179.386 77.5422 179.542 77.1125C179.839 76.2376 180.152 75.3157 180.488 74.3548C181.792 70.4253 182.722 67.2068 182.566 67.1521C182.409 67.0974 181.222 70.2379 179.917 74.1674C179.605 75.1361 179.308 76.0579 179.019 76.9406C178.902 77.3547 178.691 77.8234 178.894 78.3468C179.003 78.6124 179.269 78.7921 179.503 78.8468C179.738 78.9093 179.933 78.9015 180.113 78.9093C181.534 78.9249 182.409 78.8937 182.409 78.8156H182.394Z" fill="#263238"/>
<path d="M187.323 60.9411C187.479 61.3161 188.862 61.0818 190.51 61.2146C192.159 61.3161 193.502 61.738 193.705 61.3942C193.799 61.2302 193.549 60.8786 193.002 60.5349C192.455 60.1912 191.596 59.8709 190.612 59.8006C189.627 59.7303 188.729 59.9256 188.143 60.1912C187.549 60.4568 187.26 60.7693 187.331 60.949L187.323 60.9411Z" fill="#263238"/>
<path d="M173.754 61.676C174.058 61.9807 175.183 61.6057 176.55 61.5354C177.917 61.426 179.081 61.6448 179.339 61.3088C179.449 61.1448 179.253 60.8323 178.738 60.5511C178.23 60.2698 177.386 60.0589 176.449 60.1214C175.511 60.1839 174.707 60.5042 174.246 60.8479C173.777 61.1916 173.629 61.5276 173.761 61.676H173.754Z" fill="#263238"/>
<path d="M202.018 72.417C202.166 72.3467 208.182 70.3156 208.244 76.534C208.307 82.7525 201.549 81.7447 201.534 81.565C201.518 81.3854 202.018 72.417 202.018 72.417Z" fill="#FFBF9D"/>
<path d="M203.909 78.9802C203.909 78.9802 204.018 79.0583 204.198 79.1364C204.378 79.2146 204.682 79.2692 205.01 79.1442C205.667 78.8943 206.206 77.8474 206.229 76.7303C206.237 76.1678 206.112 75.6288 205.909 75.1835C205.713 74.7304 205.417 74.4179 205.088 74.3554C204.76 74.2851 204.526 74.4804 204.448 74.6601C204.37 74.832 204.409 74.957 204.378 74.9726C204.362 74.9882 204.245 74.871 204.292 74.6132C204.315 74.4882 204.385 74.3398 204.534 74.2226C204.682 74.0976 204.901 74.0351 205.127 74.0586C205.604 74.0898 206.042 74.5273 206.268 75.0116C206.518 75.5038 206.674 76.1053 206.659 76.7381C206.627 77.9881 206.002 79.1677 205.104 79.4411C204.667 79.5583 204.299 79.4333 204.112 79.2849C203.917 79.1364 203.885 78.9958 203.909 78.9802Z" fill="#FF9A6C"/>
<path d="M158.614 56.0041C158.708 55.637 158.973 55.3323 159.294 55.137C160.005 54.7073 160.825 54.7542 161.614 54.7307C163.59 54.6761 165.536 54.1527 167.285 53.2386C166.668 52.934 166.09 52.5668 165.598 52.0824C164.582 51.0903 163.989 49.5591 164.434 48.2154C164.52 47.9655 164.661 47.6998 164.918 47.6139C165.325 47.4889 165.676 47.8795 165.965 48.192C166.903 49.2154 167.762 49.6529 169.145 49.4966C170.004 49.4029 170.832 49.1998 171.504 48.7701C171.527 48.7389 171.551 48.7076 171.582 48.6842C171.902 48.3483 172.215 48.028 172.52 47.7155C174.832 45.3718 176.824 43.7391 178.886 42.8798C181.91 41.622 186.98 41.0674 190.159 41.8642C193.339 42.661 196.206 45.1922 196.682 48.4342C198.44 46.9108 201.104 46.8952 203.276 47.7389L203.331 47.7155C205.752 48.5436 207.143 51.0747 207.885 53.5277C207.924 53.6605 207.963 53.8011 208.002 53.9339C208.83 55.2151 209.947 56.3088 211.275 57.0588C211.51 57.1916 211.775 57.3556 211.807 57.6212C211.838 57.8868 211.619 58.1056 211.4 58.2696C210.83 58.6915 210.158 58.9727 209.463 59.1055C209.69 59.6836 209.955 60.2539 210.283 60.7851C210.557 61.2461 210.893 61.7929 210.658 62.2694C210.479 62.6444 210.01 62.8007 209.604 62.746C209.197 62.6913 208.83 62.4647 208.479 62.2538C208.752 62.8944 209.033 63.535 209.307 64.1756C208.44 64.3397 207.534 64.2772 206.682 64.0272C206.198 66.3317 205.862 70.5893 205.284 72.1518C203.635 72.1986 203.229 72.0268 202.401 72.308C201.331 72.6752 201.76 74.5813 200.354 74.0501C199.635 73.7845 198.511 71.0893 198.261 70.3628C196.62 65.5583 196.034 60.3945 196.55 55.3479C195.542 54.2933 194.323 53.4418 192.995 52.8402L193.105 52.934C190.55 52.0824 187.667 51.2466 185.269 52.4652C183.41 53.4105 182.332 55.3713 180.949 56.9338C178.332 59.9024 175.348 61.5039 171.395 61.7148C171.067 64.4646 171.012 68.9566 170.91 71.519L168.66 66.4177V66.4411C168.481 66.1443 168.332 65.8396 168.184 65.5427L168.137 65.449C167.91 64.949 167.692 64.4646 167.403 63.9881C167.395 63.9881 167.387 64.0037 167.379 64.0115C166.004 65.2537 163.934 63.4022 165.012 61.8945C165.223 61.5976 165.481 61.332 165.778 61.1054C165.153 61.707 164.207 62.0038 163.372 61.7617C162.536 61.5117 161.879 60.6836 161.942 59.8164C161.981 59.2227 162.403 58.6915 162.934 58.4493C161.817 58.5509 160.661 58.3165 159.676 57.7697C159.028 57.4103 158.395 56.8166 158.606 56.0119L158.614 56.0041Z" fill="#263238"/>
<path d="M193.83 49.5049C193.83 49.5049 194.213 49.7392 194.752 50.333C195.283 50.9189 195.885 51.9423 196.182 53.3406C196.33 54.0359 196.432 54.8171 196.44 55.653C196.455 56.4889 196.393 57.3873 196.346 58.3404C196.299 59.2857 196.237 60.2856 196.315 61.3246C196.354 61.8402 196.416 62.3714 196.541 62.8949C196.658 63.4105 196.807 63.9729 197.197 64.4182C197.51 64.7776 198.033 64.9338 198.486 64.8323C198.94 64.7463 199.346 64.4963 199.635 64.1682C200.213 63.4808 200.346 62.6058 200.486 61.8402L200.299 61.8637C200.619 62.5433 200.947 63.223 201.432 63.762C201.908 64.301 202.557 64.6526 203.213 64.7073C203.541 64.7307 203.869 64.676 204.15 64.5354C204.439 64.3948 204.642 64.1526 204.783 63.9026C204.916 63.6448 204.986 63.3636 204.971 63.0902C204.955 62.8167 204.846 62.5667 204.674 62.3871L204.58 62.473C205.291 63.262 206.041 63.6839 206.549 63.9182C206.806 64.0354 207.017 64.1057 207.158 64.1448C207.299 64.1838 207.377 64.1995 207.377 64.1995C207.377 64.1995 207.306 64.1682 207.174 64.1135C207.041 64.0589 206.838 63.9807 206.58 63.8557C206.08 63.6058 205.353 63.1761 204.674 62.3871L204.58 62.473C204.892 62.7933 204.916 63.3636 204.658 63.8245C204.525 64.051 204.338 64.262 204.088 64.387C203.838 64.512 203.541 64.5588 203.236 64.5354C202.635 64.4807 202.025 64.1526 201.58 63.637C201.127 63.1214 200.807 62.4652 200.494 61.7855L200.361 61.4965L200.307 61.809C200.166 62.5746 200.025 63.4104 199.494 64.0276C199.229 64.3245 198.861 64.551 198.463 64.6213C198.065 64.6994 197.643 64.5745 197.369 64.2698C197.026 63.887 196.877 63.3558 196.76 62.848C196.643 62.3324 196.572 61.8168 196.541 61.309C196.471 60.2856 196.518 59.2935 196.565 58.3482C196.612 57.4029 196.666 56.4967 196.643 55.653C196.627 54.8015 196.518 54.0125 196.354 53.3094C196.033 51.8954 195.401 50.8564 194.838 50.2783C194.268 49.7002 193.854 49.5127 193.854 49.5127L193.83 49.5049Z" fill="#455A64"/>
<path d="M165.77 58.684C165.77 58.684 165.794 58.7074 165.84 58.7465C165.903 58.7934 165.981 58.8402 166.067 58.9106C166.168 58.9809 166.293 59.0668 166.458 59.1527C166.614 59.2387 166.793 59.348 167.012 59.4418C167.864 59.8324 169.223 60.2152 170.918 60.098C172.598 59.9808 174.606 59.3637 176.387 58.0043C178.191 56.6763 179.762 54.7311 181.043 52.5124C181.691 51.4031 182.222 50.2703 182.8 49.2157C183.379 48.1611 184.019 47.1924 184.8 46.419C185.574 45.6456 186.472 45.0675 187.402 44.7941C187.863 44.6534 188.331 44.6144 188.785 44.6222C189.238 44.6378 189.66 44.7237 190.05 44.8487C190.839 45.1065 191.48 45.5284 191.964 45.9737C192.448 46.419 192.777 46.8877 193.003 47.2939C193.425 48.1298 193.456 48.6611 193.487 48.6532C193.487 48.6532 193.487 48.622 193.48 48.5595C193.464 48.4814 193.448 48.3954 193.433 48.2783C193.386 48.0361 193.277 47.6845 193.073 47.2549C192.855 46.833 192.527 46.3487 192.042 45.8878C191.55 45.4268 190.909 44.9815 190.097 44.7081C189.691 44.5753 189.253 44.4816 188.785 44.4581C188.324 44.4503 187.831 44.4816 187.347 44.63C186.378 44.9034 185.449 45.4971 184.652 46.2784C183.847 47.0674 183.191 48.0517 182.605 49.1142C182.011 50.1688 181.488 51.3094 180.847 52.4031C179.574 54.6061 178.027 56.5279 176.254 57.8481C174.504 59.1996 172.543 59.8168 170.887 59.9496C169.223 60.0824 167.879 59.7308 167.028 59.3637C166.168 58.9965 165.762 58.6606 165.747 58.684H165.77Z" fill="#455A64"/>
<path d="M164.895 54.692C164.895 54.692 165.004 54.7858 165.223 54.9186C165.442 55.0514 165.77 55.2233 166.192 55.3951C166.614 55.5748 167.137 55.7389 167.731 55.8795C168.324 56.0045 168.988 56.0982 169.692 56.1138C170.395 56.1216 171.059 56.0591 171.66 55.9576C172.254 55.8404 172.785 55.6998 173.215 55.5357C173.644 55.3795 173.98 55.2233 174.207 55.0983C174.434 54.9733 174.551 54.903 174.543 54.8873C174.527 54.8483 174.027 55.1139 173.168 55.3951C172.738 55.5357 172.215 55.6685 171.629 55.7623C171.043 55.856 170.387 55.9107 169.699 55.9029C169.012 55.8873 168.363 55.8014 167.778 55.6842C167.192 55.5592 166.676 55.4107 166.254 55.2467C165.403 54.9342 164.918 54.6452 164.895 54.6842V54.692Z" fill="#455A64"/>
<path d="M181.382 81.9181C181.447 81.8638 181.603 82.2868 182.115 82.443C182.375 82.5168 182.684 82.4673 183.071 82.3464C183.453 82.2418 183.872 82.1174 184.304 81.9758C186.042 81.4086 187.346 80.6845 187.404 80.7881C187.461 80.8762 186.215 81.7747 184.433 82.3625C183.986 82.5136 183.558 82.6233 183.158 82.7063C182.776 82.8031 182.349 82.8498 182.019 82.7129C181.691 82.5838 181.523 82.3428 181.451 82.1856C181.37 82.0216 181.359 81.9206 181.381 81.9103L181.382 81.9181Z" fill="#263238"/>
<path d="M138.632 127.204C138.811 127.47 140.053 128.978 140.319 130.486C140.585 131.993 143.959 151.586 144.842 154.305C145.944 157.703 148.217 164.632 157.256 162.039C163.513 160.242 163.732 150.711 159.474 145.477C155.217 140.243 148.123 125.259 147.592 123.306C147.061 121.353 142.006 115.463 136.155 113.932C130.304 112.4 127.374 112.338 125.249 109.526C123.125 106.721 120.461 105.299 119.218 107.424C117.976 109.549 125.249 115.939 125.249 115.939L135.452 125.697L138.647 127.204H138.632Z" fill="#FFBF9D"/>
<path d="M119.062 115.549C119.062 115.549 114.554 110.041 111.625 112.361C111.625 112.361 115.437 117.455 116.718 118.845C118.007 120.236 121.351 121.212 121.351 121.212C121.351 121.212 124.695 125.072 126.499 125.587C128.304 126.103 129.436 125.587 129.436 125.587C129.436 125.587 129.491 126.462 132.319 126.876C135.147 127.29 142.662 126.517 142.662 126.517L147.303 122.626C147.303 122.626 144.983 118.744 141.428 118.642C137.874 118.541 135.249 121.267 135.249 121.267L132.163 121.212L130.257 118.744C130.257 118.744 130.624 112.252 126.757 112.978C126.757 112.978 126.616 110.9 124.976 110.697C123.327 110.494 122.867 112.189 122.867 112.189C122.867 112.189 123.21 109.635 121.82 109.119C120.429 108.604 119.757 109.221 119.351 109.94C118.937 110.658 119.07 115.549 119.07 115.549H119.062Z" fill="#FFBF9D"/>
<path d="M129.795 125.587C129.749 125.619 129.249 125.056 128.506 124.08C128.139 123.587 127.702 123.002 127.264 122.314C127.046 121.994 126.811 121.556 126.725 121.111C126.624 120.666 126.569 120.205 126.522 119.736C126.374 117.861 126.452 116.166 126.522 114.947C126.6 113.729 126.702 112.971 126.757 112.979C126.811 112.979 126.811 113.736 126.811 114.955C126.811 116.174 126.788 117.861 126.928 119.705C126.967 120.166 127.022 120.611 127.116 121.025C127.194 121.447 127.366 121.767 127.585 122.127C127.999 122.814 128.405 123.416 128.741 123.923C129.42 124.939 129.842 125.564 129.803 125.595L129.795 125.587Z" fill="#FF9A6C"/>
<path d="M122.867 122.83C122.867 122.83 122.468 122.322 122.296 121.345C122.109 120.377 122.054 119.01 122.125 117.525C122.273 114.541 122.757 112.174 122.867 112.19C122.976 112.205 122.679 114.596 122.531 117.541C122.461 119.017 122.476 120.353 122.586 121.298C122.679 122.259 122.929 122.791 122.875 122.83H122.867Z" fill="#FF9A6C"/>
<path d="M121.593 121.486C121.553 121.525 121.085 121.111 120.405 120.369C120.241 120.181 120.054 119.97 119.874 119.744C119.694 119.494 119.483 119.298 119.335 118.908C119.14 118.228 119.077 117.502 119.015 116.736C118.913 115.205 118.921 113.822 118.952 112.814C118.983 111.814 119.046 111.197 119.1 111.197C119.225 111.197 119.241 113.674 119.421 116.705C119.475 117.455 119.538 118.189 119.694 118.791C119.765 119.033 119.991 119.314 120.147 119.541C120.311 119.759 120.475 119.978 120.632 120.189C121.241 120.97 121.639 121.455 121.593 121.494V121.486Z" fill="#FF9A6C"/>
<path d="M135.249 121.259C135.249 121.259 134.96 121.306 134.428 121.314C133.819 121.314 133.061 121.33 132.155 121.337H132.093L132.054 121.283C131.475 120.572 130.608 119.736 130.038 118.533L130.022 118.494V118.455C130.022 117.533 130.046 116.517 129.772 115.517C129.632 115.025 129.413 114.533 129.085 114.119C128.757 113.689 128.327 113.385 127.788 113.322C127.452 113.275 127.108 113.322 126.78 113.4L126.546 113.463L126.53 113.221C126.499 112.721 126.398 112.229 126.148 111.846C125.905 111.455 125.53 111.182 125.109 111.041C124.718 110.885 124.288 111.01 123.937 111.229C123.585 111.447 123.296 111.76 123.101 112.096L122.812 112.604L122.781 112.025C122.734 111.135 122.679 110.276 122.218 109.768C121.757 109.268 121.07 109.174 120.585 109.252C120.085 109.33 119.742 109.565 119.539 109.752C119.343 109.94 119.265 110.072 119.249 110.065C119.242 110.065 119.281 109.908 119.468 109.682C119.656 109.463 120.007 109.174 120.554 109.065C121.077 108.955 121.843 109.002 122.429 109.58C123.007 110.19 123.062 111.119 123.132 112.01L122.812 111.939C123.031 111.549 123.343 111.19 123.749 110.924C124.14 110.658 124.71 110.486 125.241 110.682C125.726 110.838 126.202 111.166 126.499 111.643C126.796 112.111 126.913 112.666 126.952 113.213L126.702 113.025C127.069 112.932 127.46 112.885 127.866 112.939C128.507 113.002 129.085 113.416 129.429 113.885C129.796 114.353 130.03 114.892 130.179 115.432C130.468 116.51 130.421 117.556 130.405 118.478L130.39 118.4C130.913 119.564 131.725 120.377 132.304 121.142L132.202 121.087C133.108 121.127 133.866 121.158 134.467 121.189C134.999 121.22 135.288 121.252 135.288 121.275L135.249 121.259Z" fill="#FF9A6C"/>
<path d="M143.35 118.791C143.327 118.916 141.585 118.354 139.475 118.854C137.358 119.314 136.03 120.58 135.96 120.478C135.929 120.447 136.202 120.08 136.788 119.643C137.374 119.197 138.288 118.713 139.389 118.463C140.491 118.213 141.522 118.26 142.241 118.4C142.959 118.541 143.366 118.752 143.35 118.799V118.791Z" fill="#FF9A6C"/>
<path d="M253.228 113.268C252.806 113.073 252.314 113.174 251.868 113.307C249.814 113.916 247.908 114.948 246.158 116.19L247.665 121.385C248.251 120.26 250.978 118.783 251.931 117.948C252.884 117.112 253.814 116.073 253.915 114.807C253.97 114.206 253.767 113.518 253.22 113.26L253.228 113.268Z" fill="#FF9A6C"/>
<path d="M219.823 157.867C219.823 157.867 219.065 151.601 219.721 146.289C220.151 142.836 223.01 132.618 223.213 129.431C223.417 126.235 223.51 124.743 225.51 123.243C227.502 121.743 227.502 122.447 230.299 120.751C233.096 119.056 233.69 117.861 237.885 117.658C242.072 117.455 245.369 126.439 245.369 126.439C245.369 126.439 245.166 128.337 244.369 128.837C243.572 129.337 242.572 129.438 240.08 129.337C237.588 129.235 235.088 129.837 234.893 131.329C234.697 132.821 234.994 138.313 235.986 142.008C236.986 145.703 236.189 149.992 235.486 153.586C234.791 157.179 233.346 165.023 227.604 165.655C220.862 166.405 219.823 157.874 219.823 157.874V157.867Z" fill="#FFBF9D"/>
<path d="M230.034 124.767C230.034 124.767 233.135 124.454 233.658 123.845C234.182 123.236 235.9 117.259 236.877 115.892C237.853 114.525 238.518 114.252 239.572 114.478C239.572 114.478 239.432 111.799 241.845 111.416C241.845 111.416 243.353 111.182 243.595 114.814C243.595 114.814 243.338 111.361 245.9 110.182C246.525 109.893 247.283 110.111 247.587 110.729C247.65 110.861 247.705 111.01 247.736 111.166C247.892 111.994 248.095 115.838 248.095 115.838C248.095 115.838 248.376 121.072 248.455 120.845C248.533 120.619 251.681 113.572 252.126 112.893C252.525 112.291 252.868 111.627 254.353 111.736C254.837 111.775 255.259 112.096 255.407 112.564C255.454 112.713 255.321 113.478 255.275 113.682C254.782 115.681 253.446 121.275 252.923 122.189C252.4 123.095 247.58 128.181 245.611 128.345C243.642 128.509 242.51 128.353 242.51 128.353L230.018 124.767H230.034Z" fill="#FFBF9D"/>
<path d="M236.447 127.392C236.401 127.353 236.9 126.775 237.549 125.736C237.861 125.212 238.229 124.58 238.486 123.83C238.619 123.455 238.705 123.056 238.752 122.627C238.783 122.181 238.822 121.728 238.854 121.259C239.002 119.385 239.158 117.689 239.283 116.455C239.416 115.228 239.525 114.471 239.58 114.471C239.635 114.471 239.627 115.236 239.572 116.471C239.51 117.705 239.4 119.408 239.26 121.291C239.221 121.759 239.182 122.213 239.15 122.666C239.096 123.119 238.994 123.564 238.846 123.955C238.557 124.744 238.15 125.376 237.799 125.892C237.08 126.915 236.494 127.431 236.455 127.392H236.447Z" fill="#FF9A6C"/>
<path d="M243.58 114.463C243.634 114.463 243.705 115.213 243.759 116.424C243.822 117.635 243.876 119.314 243.908 121.166C243.908 121.627 243.923 122.08 243.931 122.517C243.931 122.947 243.978 123.384 243.876 123.822C243.673 124.65 243.291 125.283 242.97 125.806C242.314 126.845 241.798 127.4 241.759 127.368C241.712 127.329 242.142 126.712 242.72 125.658C243.001 125.134 243.345 124.486 243.509 123.744C243.587 123.392 243.533 122.978 243.533 122.533C243.525 122.095 243.509 121.642 243.501 121.181C243.462 119.33 243.455 117.65 243.47 116.432C243.486 115.213 243.517 114.463 243.58 114.463Z" fill="#FF9A6C"/>
<path d="M248.384 120.337C248.431 120.314 248.642 120.681 248.658 121.329C248.658 121.657 248.634 122.032 248.486 122.454C248.329 122.853 248.119 123.259 247.876 123.665C246.892 125.298 245.908 126.47 245.822 126.407C245.728 126.337 246.564 125.056 247.525 123.454C247.759 123.056 247.986 122.665 248.142 122.313C248.283 121.97 248.353 121.61 248.376 121.321C248.431 120.728 248.337 120.36 248.392 120.345L248.384 120.337Z" fill="#FF9A6C"/>
<path d="M227.026 124.728C227.026 124.556 230.018 125.072 233.432 123.704C233.486 123.689 233.541 123.665 233.596 123.65L233.471 123.767C234.104 122.103 234.705 120.619 235.15 119.548C235.596 118.478 235.9 117.83 235.947 117.853C236.002 117.877 235.791 118.556 235.408 119.65C235.025 120.744 234.479 122.251 233.846 123.915L233.814 124.001L233.729 124.033C233.674 124.048 233.619 124.072 233.564 124.087C232.697 124.376 231.861 124.618 231.08 124.782C230.299 124.954 229.557 124.97 228.963 124.954C227.76 124.915 227.034 124.783 227.034 124.728H227.026Z" fill="#FF9A6C"/>
<path d="M317.372 325.383C318.692 325.961 321.926 325.89 321.926 325.89C321.957 325.89 321.231 323.773 321.168 323.648C320.458 322.164 318.215 319.719 316.395 319.961C315.083 320.141 314.348 321.453 314.645 322.695C314.95 323.961 316.247 324.898 317.372 325.39V325.383Z" fill="#263238"/>
<path d="M318.488 334.741C319.856 334.944 322.746 334.108 322.973 334.038C323.426 335.655 324.027 337.272 324.722 338.882C325.121 339.803 325.551 340.71 325.988 341.624C325.722 341.241 325.488 340.897 325.449 340.85C324.371 339.608 321.566 337.835 319.871 338.553C318.652 339.069 318.293 340.53 318.902 341.647C319.527 342.788 321.027 343.35 322.238 343.53C323.473 343.709 325.941 343.045 326.597 342.858C326.769 343.202 326.941 343.553 327.113 343.897C327.949 345.561 328.785 347.217 329.566 348.865C329.839 349.444 330.089 350.029 330.339 350.607C330.105 350.264 329.902 349.983 329.871 349.936C328.793 348.694 325.988 346.92 324.293 347.639C323.074 348.155 322.715 349.615 323.324 350.732C323.949 351.873 325.449 352.436 326.668 352.615C327.847 352.787 330.136 352.193 330.91 351.982C331.144 352.584 331.386 353.193 331.589 353.787C331.722 354.193 331.871 354.584 331.98 354.998C332.097 355.412 332.207 355.818 332.324 356.224C332.511 357.013 332.714 357.818 332.878 358.591C332.996 359.131 333.097 359.638 333.206 360.154C332.941 359.576 332.394 358.443 332.339 358.357C331.464 356.967 328.957 354.787 327.176 355.248C325.887 355.576 325.316 356.967 325.754 358.162C326.199 359.381 327.597 360.17 328.769 360.529C330.066 360.927 332.925 360.56 333.285 360.513C333.456 361.365 333.613 362.201 333.753 362.99C333.855 363.576 333.949 364.138 334.035 364.677H335.183C335.074 364.076 334.956 363.451 334.824 362.794C334.652 361.927 334.456 360.998 334.238 360.052C334.456 359.966 335.675 359.474 336.753 358.865C337.698 359.888 340.112 361.076 340.425 361.232C340.097 362.037 339.769 362.826 339.448 363.56C339.276 363.951 339.112 364.318 338.948 364.677H340.159C340.253 364.443 340.355 364.224 340.448 363.982C340.784 363.162 341.128 362.279 341.472 361.373C341.815 361.443 344.651 362.021 345.971 361.724C347.167 361.451 348.62 360.779 349.159 359.591C349.682 358.435 349.213 357.006 347.956 356.584C346.214 355.998 343.55 357.982 342.573 359.302C342.518 359.381 341.987 360.295 341.659 360.88C341.8 360.505 341.94 360.146 342.073 359.763C342.354 359.006 342.604 358.24 342.886 357.412C343.003 357.013 343.128 356.607 343.253 356.193C343.386 355.787 343.472 355.342 343.581 354.92C343.815 353.92 344.011 352.904 344.182 351.865C344.847 352.107 347.221 352.936 348.456 352.85C349.682 352.764 351.213 352.311 351.924 351.225C352.62 350.162 352.37 348.67 351.19 348.069C349.557 347.225 346.62 348.779 345.456 349.943C345.386 350.014 344.643 350.943 344.245 351.459C344.339 350.834 344.44 350.217 344.518 349.584C344.745 347.756 344.917 345.905 345.097 344.053C345.151 343.483 345.214 342.92 345.276 342.358C345.511 342.444 348.315 343.491 349.69 343.389C350.917 343.303 352.448 342.85 353.159 341.764C353.854 340.702 353.604 339.217 352.424 338.608C350.792 337.764 347.854 339.319 346.69 340.483C346.604 340.569 345.534 341.905 345.284 342.256C345.417 341.014 345.557 339.772 345.745 338.561C346.003 336.882 346.354 335.257 346.807 333.702C346.917 333.741 349.838 334.843 351.245 334.749C352.471 334.663 354.002 334.21 354.713 333.124C355.408 332.062 355.159 330.577 353.979 329.968C352.346 329.124 349.409 330.679 348.245 331.843C348.151 331.937 347.01 333.366 346.815 333.647C346.839 333.554 346.862 333.46 346.885 333.366C347.393 331.71 348.089 330.171 348.815 328.765C349.237 327.945 349.682 327.187 350.128 326.46C350.651 326.718 353.049 327.89 354.33 327.937C355.557 327.984 357.135 327.71 357.955 326.702C358.76 325.718 358.682 324.218 357.572 323.484C356.041 322.468 352.955 323.687 351.666 324.71C351.596 324.765 350.948 325.413 350.487 325.89C350.698 325.562 350.901 325.226 351.112 324.913C351.885 323.757 352.659 322.742 353.354 321.843C353.752 321.336 354.127 320.89 354.479 320.476C355.127 320.468 357.729 320.382 358.869 319.851C359.979 319.328 361.252 318.359 361.518 317.086C361.783 315.844 361.018 314.547 359.697 314.406C357.869 314.211 355.69 316.719 355.026 318.218C354.971 318.351 354.299 320.484 354.33 320.484C354.33 320.484 354.362 320.484 354.369 320.484C354.026 320.875 353.659 321.304 353.268 321.773C352.549 322.656 351.752 323.656 350.956 324.804C350.151 325.952 349.315 327.218 348.557 328.632C347.792 330.046 347.057 331.577 346.503 333.249C346.503 333.265 346.495 333.288 346.487 333.304C346.495 332.765 346.471 331.257 346.456 331.14C346.245 329.507 344.878 326.484 343.065 326.148C341.761 325.906 340.659 326.929 340.55 328.195C340.44 329.491 341.386 330.788 342.3 331.601C343.331 332.522 346.198 333.413 346.425 333.483C345.917 335.077 345.518 336.764 345.214 338.483C345.042 339.467 344.893 340.467 344.761 341.467C344.761 340.999 344.745 340.585 344.737 340.522C344.526 338.889 343.159 335.866 341.347 335.53C340.042 335.288 338.941 336.311 338.831 337.577C338.722 338.874 339.667 340.171 340.581 340.983C341.511 341.811 343.94 342.624 344.581 342.827C344.534 343.209 344.479 343.592 344.432 343.983C344.214 345.834 344.003 347.678 343.737 349.475C343.643 350.108 343.526 350.733 343.417 351.357C343.417 350.943 343.401 350.592 343.393 350.545C343.183 348.912 341.815 345.889 340.003 345.553C338.698 345.311 337.597 346.334 337.487 347.6C337.378 348.897 338.323 350.193 339.237 351.006C340.12 351.795 342.362 352.568 343.128 352.818C342.995 353.451 342.862 354.092 342.698 354.701C342.581 355.115 342.495 355.521 342.354 355.928C342.222 356.334 342.097 356.74 341.964 357.138C341.69 357.896 341.409 358.685 341.12 359.42C340.925 359.935 340.73 360.42 340.526 360.904C340.628 360.271 340.792 359.029 340.8 358.927C340.823 357.834 340.44 356.06 339.667 354.81C339.667 354.646 339.667 354.49 339.636 354.326C339.433 353.068 338.253 352.139 336.972 352.475C335.191 352.951 334.066 356.068 333.98 357.717C333.98 357.81 334.035 358.873 334.089 359.537C333.995 359.146 333.917 358.771 333.824 358.373C333.636 357.584 333.425 356.803 333.206 355.967C333.081 355.568 332.964 355.162 332.839 354.748C332.722 354.342 332.55 353.92 332.41 353.506C332.058 352.545 331.652 351.584 331.23 350.631C331.917 350.467 334.355 349.842 335.331 349.092C336.308 348.342 337.339 347.123 337.331 345.819C337.323 344.545 336.3 343.444 334.98 343.584C333.152 343.78 331.558 346.701 331.23 348.311C331.207 348.412 331.097 349.592 331.05 350.24C330.793 349.67 330.527 349.092 330.246 348.522C329.425 346.873 328.55 345.233 327.675 343.592C327.41 343.092 327.152 342.584 326.886 342.085C327.129 342.03 330.043 341.35 331.144 340.514C332.121 339.764 333.152 338.546 333.144 337.241C333.136 335.968 332.113 334.866 330.793 335.007C328.964 335.202 327.371 338.124 327.043 339.733C327.019 339.858 326.863 341.553 326.847 341.991C326.269 340.881 325.707 339.772 325.191 338.655C324.48 337.116 323.871 335.561 323.394 334.015C323.512 333.991 326.551 333.296 327.675 332.437C328.652 331.687 329.683 330.468 329.675 329.163C329.668 327.89 328.644 326.788 327.324 326.929C325.496 327.124 323.902 330.046 323.574 331.655C323.551 331.78 323.387 333.608 323.379 333.944C323.348 333.851 323.309 333.757 323.285 333.671C322.793 332.015 322.527 330.343 322.355 328.773C322.254 327.859 322.207 326.976 322.176 326.124C322.754 326.054 325.402 325.702 326.496 325.038C327.543 324.406 328.707 323.296 328.839 322.007C328.972 320.742 328.074 319.531 326.746 319.531C324.902 319.531 323.004 322.25 322.496 323.812C322.465 323.898 322.285 324.796 322.16 325.445C322.16 325.054 322.137 324.656 322.145 324.288C322.145 322.898 322.238 321.625 322.324 320.492C322.379 319.851 322.441 319.273 322.504 318.734C323.035 318.367 325.168 316.867 325.824 315.789C326.465 314.742 326.988 313.227 326.511 312.016C326.043 310.828 324.691 310.172 323.512 310.781C321.879 311.625 321.449 314.922 321.715 316.539C321.738 316.679 322.355 318.828 322.387 318.812C322.387 318.812 322.41 318.797 322.418 318.789C322.348 319.304 322.277 319.867 322.207 320.476C322.098 321.601 321.98 322.882 321.949 324.281C321.91 325.679 321.91 327.195 322.059 328.796C322.199 330.398 322.434 332.077 322.894 333.78C322.894 333.796 322.91 333.819 322.91 333.835C322.621 333.382 321.77 332.132 321.691 332.046C320.613 330.804 317.809 329.03 316.114 329.749C314.895 330.265 314.536 331.726 315.145 332.843C315.77 333.983 317.27 334.546 318.481 334.725L318.488 334.741Z" fill="#263238"/>
<path d="M350.058 326.093C350.058 326.093 350.644 323.945 350.667 323.804C350.894 322.179 350.378 318.898 348.714 318.094C347.519 317.516 346.183 318.211 345.753 319.406C345.308 320.625 345.87 322.125 346.542 323.156C347.323 324.367 350.058 326.086 350.065 326.093H350.058Z" fill="#263238"/>
<path d="M27.3238 329.101C28.5191 329.624 31.4486 329.554 31.4486 329.554C31.4799 329.554 30.8159 327.64 30.7612 327.523C30.1206 326.179 28.0894 323.96 26.4411 324.187C25.2536 324.351 24.5896 325.538 24.8552 326.656C25.1286 327.804 26.3005 328.648 27.3238 329.093V329.101Z" fill="#263238"/>
<path d="M28.3317 337.569C29.5738 337.749 32.1831 336.991 32.394 336.929C32.808 338.389 33.3471 339.858 33.9798 341.311C34.3392 342.139 34.7298 342.967 35.1282 343.795C34.8939 343.444 34.6751 343.139 34.6361 343.092C33.6595 341.967 31.1206 340.366 29.5816 341.014C28.4723 341.483 28.152 342.803 28.7067 343.819C29.2769 344.85 30.6284 345.358 31.7299 345.522C32.8471 345.686 35.0892 345.084 35.6751 344.92C35.8313 345.233 35.9876 345.553 36.1438 345.866C36.9016 347.373 37.6593 348.873 38.3624 350.365C38.6124 350.889 38.8312 351.42 39.0577 351.943C38.8468 351.631 38.6671 351.373 38.6359 351.334C37.6593 350.209 35.1204 348.608 33.5814 349.256C32.4721 349.725 32.1518 351.045 32.7065 352.061C33.2767 353.092 34.6282 353.6 35.7298 353.764C36.7922 353.92 38.8702 353.381 39.5655 353.186C39.7842 353.732 39.9952 354.279 40.1827 354.818C40.2998 355.193 40.4405 355.537 40.5342 355.92C40.6358 356.295 40.7451 356.662 40.8467 357.029C41.0186 357.74 41.1982 358.474 41.3467 359.177C41.456 359.662 41.5498 360.131 41.6435 360.591C41.4013 360.068 40.9092 359.045 40.8623 358.967C40.0733 357.709 37.8 355.74 36.1829 356.146C35.0188 356.443 34.4954 357.701 34.8939 358.787C35.3001 359.888 36.5578 360.599 37.6281 360.927C38.7999 361.287 41.3935 360.959 41.7138 360.912C41.8701 361.685 42.0107 362.443 42.1357 363.154C42.2294 363.685 42.3154 364.193 42.3935 364.677H43.4325C43.3309 364.13 43.2294 363.568 43.1122 362.974C42.956 362.185 42.7763 361.349 42.581 360.49C42.7763 360.412 43.8778 359.966 44.8621 359.42C45.7136 360.341 47.901 361.427 48.1823 361.56C47.8854 362.294 47.5885 362.998 47.2995 363.662C47.1433 364.013 46.9948 364.349 46.8464 364.677H47.9401C48.026 364.466 48.112 364.263 48.2057 364.044C48.5104 363.302 48.8229 362.505 49.1353 361.685C49.4478 361.748 52.018 362.271 53.2133 362.005C54.2992 361.763 55.6116 361.146 56.0959 360.076C56.5725 359.029 56.1428 357.732 55.0101 357.349C53.432 356.818 51.0181 358.615 50.1353 359.81C50.0806 359.881 49.6041 360.709 49.3072 361.24C49.4322 360.904 49.5572 360.576 49.6822 360.232C49.9322 359.545 50.1665 358.849 50.4165 358.107C50.5259 357.74 50.6353 357.373 50.7446 357.006C50.8618 356.638 50.9399 356.24 51.0415 355.849C51.2602 354.943 51.4321 354.021 51.5883 353.084C52.1899 353.303 54.3382 354.053 55.4553 353.975C56.5647 353.896 57.9552 353.49 58.5958 352.506C59.2286 351.537 59.002 350.194 57.9318 349.647C56.4475 348.881 53.7914 350.295 52.7367 351.342C52.6742 351.404 52.0024 352.248 51.6352 352.717C51.7212 352.154 51.8149 351.592 51.8852 351.022C52.0883 349.365 52.2446 347.686 52.4086 346.014C52.4555 345.498 52.5102 344.991 52.5649 344.483C52.7758 344.561 55.3147 345.506 56.5647 345.42C57.674 345.342 59.0645 344.936 59.7051 343.952C60.3301 342.983 60.1114 341.639 59.0411 341.092C57.5568 340.327 54.9007 341.733 53.8461 342.788C53.7679 342.866 52.7992 344.077 52.5727 344.397C52.6899 343.272 52.8227 342.147 52.9945 341.053C53.2289 339.538 53.5414 338.061 53.9554 336.647C54.057 336.686 56.6975 337.686 57.9787 337.593C59.088 337.514 60.4785 337.108 61.1191 336.124C61.7441 335.155 61.5254 333.812 60.4551 333.265C58.9708 332.499 56.3147 333.913 55.26 334.96C55.1741 335.046 54.1429 336.343 53.971 336.593C53.9945 336.507 54.0101 336.421 54.0414 336.335C54.5023 334.835 55.1272 333.444 55.7835 332.171C56.1663 331.429 56.5647 330.741 56.9709 330.077C57.4474 330.312 59.6192 331.366 60.7754 331.413C61.8847 331.46 63.3143 331.202 64.0565 330.296C64.7908 329.405 64.7127 328.046 63.7128 327.382C62.3222 326.46 59.5333 327.57 58.3693 328.499C58.3068 328.546 57.7209 329.132 57.299 329.562C57.4865 329.265 57.674 328.96 57.8615 328.679C58.5568 327.632 59.2598 326.71 59.8926 325.898C60.252 325.445 60.5879 325.038 60.9082 324.656C61.4941 324.648 63.8534 324.578 64.8846 324.093C65.8923 323.617 67.0407 322.742 67.2829 321.586C67.5173 320.461 66.8298 319.289 65.6345 319.156C63.9784 318.976 62.0097 321.25 61.4004 322.609C61.3457 322.726 60.7441 324.656 60.7676 324.656C60.7676 324.656 60.7988 324.656 60.8066 324.656C60.4942 325.015 60.1582 325.398 59.8067 325.828C59.1583 326.624 58.4318 327.531 57.7131 328.57C56.9865 329.609 56.2287 330.749 55.5413 332.03C54.846 333.312 54.182 334.694 53.682 336.21C53.682 336.225 53.6742 336.249 53.6664 336.265C53.6742 335.772 53.6507 334.413 53.6429 334.304C53.4476 332.827 52.2133 330.085 50.5728 329.788C49.3931 329.57 48.3932 330.499 48.2994 331.648C48.2057 332.819 49.0572 333.991 49.8853 334.733C50.8228 335.569 53.4164 336.374 53.6195 336.444C53.1586 337.889 52.7992 339.413 52.5258 340.975C52.3696 341.866 52.2368 342.772 52.1118 343.678C52.1118 343.256 52.0961 342.881 52.0883 342.827C51.893 341.35 50.6587 338.608 49.0182 338.311C47.8385 338.093 46.8386 339.022 46.7448 340.163C46.6511 341.335 47.5026 342.506 48.3307 343.249C49.1744 343.999 51.3696 344.733 51.9555 344.92C51.9165 345.272 51.8696 345.616 51.8227 345.967C51.6196 347.639 51.4321 349.311 51.1899 350.943C51.104 351.522 51.0024 352.084 50.9009 352.647C50.9009 352.272 50.8853 351.959 50.8774 351.904C50.6821 350.428 49.4478 347.686 47.8073 347.389C46.6277 347.17 45.6277 348.092 45.534 349.248C45.4402 350.42 46.2917 351.592 47.1198 352.334C47.9245 353.053 49.9478 353.748 50.6431 353.975C50.5181 354.553 50.4009 355.123 50.2603 355.678C50.1509 356.053 50.0806 356.42 49.9478 356.787C49.8306 357.154 49.7134 357.521 49.5963 357.881C49.3463 358.568 49.0885 359.279 48.8307 359.943C48.651 360.404 48.4713 360.849 48.2994 361.287C48.3932 360.716 48.5416 359.591 48.5416 359.498C48.5651 358.506 48.2135 356.904 47.5104 355.771C47.5104 355.623 47.5104 355.482 47.487 355.334C47.3073 354.193 46.237 353.35 45.073 353.662C43.4637 354.092 42.4404 356.92 42.3622 358.404C42.3622 358.49 42.4169 359.451 42.4638 360.052C42.3857 359.701 42.3076 359.357 42.2216 358.998C42.0498 358.287 41.8623 357.576 41.6591 356.818C41.5498 356.451 41.4404 356.084 41.3232 355.717C41.2217 355.349 41.0654 354.967 40.9326 354.592C40.6123 353.725 40.2452 352.85 39.8624 351.99C40.4873 351.842 42.6903 351.279 43.5809 350.6C44.4637 349.92 45.4012 348.819 45.3933 347.639C45.3855 346.483 44.4559 345.491 43.2606 345.616C41.6045 345.795 40.167 348.436 39.8624 349.897C39.8467 349.99 39.7452 351.061 39.7061 351.647C39.4718 351.131 39.2374 350.608 38.9796 350.092C38.2374 348.6 37.4406 347.116 36.6516 345.623C36.4094 345.17 36.175 344.709 35.9407 344.256C36.1594 344.202 38.7999 343.592 39.7921 342.834C40.6748 342.155 41.6123 341.053 41.6045 339.874C41.5967 338.725 40.667 337.725 39.4718 337.85C37.8156 338.03 36.3782 340.671 36.0735 342.131C36.05 342.241 35.9094 343.78 35.8938 344.178C35.3704 343.17 34.8626 342.17 34.3939 341.155C33.7533 339.757 33.1986 338.35 32.769 336.952C32.8705 336.929 35.6282 336.304 36.6438 335.522C37.5265 334.843 38.464 333.741 38.4562 332.562C38.4484 331.413 37.5187 330.413 36.3235 330.538C34.6673 330.718 33.2299 333.358 32.9252 334.819C32.9018 334.936 32.7533 336.593 32.7455 336.889C32.7221 336.804 32.683 336.725 32.6596 336.639C32.2143 335.14 31.9721 333.624 31.8159 332.202C31.7221 331.374 31.6831 330.577 31.6596 329.804C32.1831 329.741 34.5814 329.421 35.5735 328.82C36.5266 328.241 37.5734 327.249 37.6984 326.078C37.8156 324.929 37.0031 323.835 35.8001 323.835C34.1361 323.835 32.4174 326.296 31.9565 327.718C31.9331 327.796 31.7612 328.609 31.6518 329.195C31.6518 328.843 31.6362 328.484 31.6362 328.148C31.6362 326.89 31.7143 325.734 31.8003 324.71C31.8471 324.132 31.9096 323.609 31.9643 323.117C32.4487 322.789 34.3783 321.421 34.9642 320.453C35.5423 319.5 36.0188 318.133 35.5813 317.039C35.1595 315.969 33.933 315.375 32.8627 315.922C31.3784 316.687 30.9956 319.672 31.2378 321.14C31.2612 321.265 31.8159 323.21 31.8471 323.195C31.8471 323.195 31.8706 323.179 31.8784 323.171C31.8159 323.64 31.7456 324.148 31.6909 324.703C31.5893 325.726 31.4878 326.882 31.4565 328.148C31.4253 329.413 31.4253 330.788 31.5503 332.233C31.6831 333.687 31.8862 335.202 32.308 336.741C32.308 336.757 32.3237 336.772 32.3237 336.796C32.0581 336.382 31.2925 335.257 31.2222 335.179C30.2456 334.054 27.7067 332.452 26.1677 333.101C25.0662 333.569 24.7381 334.897 25.2928 335.905C25.863 336.936 27.2145 337.444 28.3161 337.608L28.3317 337.569Z" fill="#263238"/>
<path d="M56.9158 329.741C56.9158 329.741 57.447 327.796 57.4627 327.671C57.6658 326.195 57.1971 323.226 55.6971 322.499C54.6191 321.976 53.4082 322.609 53.0098 323.687C52.6035 324.796 53.1191 326.148 53.7207 327.085C54.4316 328.179 56.908 329.741 56.908 329.741H56.9158Z" fill="#263238"/>
<path d="M335.035 357.947C335.035 358.029 281.042 358.099 214.453 358.099C147.865 358.099 93.8594 358.029 93.8594 357.947C93.8594 357.865 147.841 357.795 214.453 357.795C281.065 357.795 335.035 357.865 335.035 357.947Z" fill="#263238"/>
<path d="M300.38 223.254H286.49C282.405 223.254 279.092 219.942 279.092 215.856V195.521C279.092 191.435 282.405 188.123 286.49 188.123H305.013C309.099 188.123 312.411 191.435 312.411 195.521V215.856C312.411 219.942 309.099 223.254 305.013 223.254" stroke="#263238" strokeWidth="1.26403" stroke-miterlimit="10" strokeLinecap="round"/>
<path d="M279.092 257.775V246.878C279.092 242.792 282.405 239.479 286.49 239.479H305.013C309.099 239.479 312.411 242.792 312.411 246.878V267.213C312.411 271.298 309.099 274.611 305.013 274.611H286.49C282.405 274.611 279.092 271.298 279.092 267.213V262.533" stroke="#263238" strokeWidth="1.26403" stroke-miterlimit="10" strokeLinecap="round"/>
<path d="M312.403 314.047V318.57C312.403 322.656 309.091 325.968 305.005 325.968H286.483C282.397 325.968 279.085 322.656 279.085 318.57V298.235C279.085 294.149 282.397 290.837 286.483 290.837H305.005C309.091 290.837 312.403 294.149 312.403 298.235V309.289" stroke="#263238" strokeWidth="1.26403" stroke-miterlimit="10" strokeLinecap="round"/>
<path d="M299.067 205.685L307.661 197.092C308.575 196.178 308.575 194.685 307.661 193.771C306.747 192.857 305.255 192.857 304.341 193.771L295.747 202.365L287.154 193.771C286.24 192.857 284.748 192.857 283.834 193.771C282.92 194.685 282.92 196.178 283.834 197.092L292.427 205.685L283.834 214.278C282.92 215.192 282.92 216.684 283.834 217.598C284.295 218.059 284.896 218.286 285.498 218.286C286.099 218.286 286.701 218.059 287.162 217.598L295.755 209.005L304.348 217.598C304.809 218.059 305.411 218.286 306.012 218.286C306.614 218.286 307.216 218.059 307.676 217.598C308.59 216.684 308.59 215.192 307.676 214.278L299.083 205.685H299.067Z" fill="#246532" stroke="#263238" strokeWidth="1.26403" stroke-miterlimit="10"/>
<path d="M299.067 257.713L307.661 249.12C308.575 248.206 308.575 246.714 307.661 245.8C306.747 244.886 305.255 244.886 304.341 245.8L295.747 254.393L287.154 245.8C286.24 244.886 284.748 244.886 283.834 245.8C282.92 246.714 282.92 248.206 283.834 249.12L292.427 257.713L283.834 266.307C282.92 267.221 282.92 268.713 283.834 269.627C284.295 270.088 284.896 270.314 285.498 270.314C286.099 270.314 286.701 270.088 287.162 269.627L295.755 261.033L304.348 269.627C304.809 270.088 305.411 270.314 306.012 270.314C306.614 270.314 307.216 270.088 307.676 269.627C308.59 268.713 308.59 267.221 307.676 266.307L299.083 257.713H299.067Z" fill="#246532" stroke="#263238" strokeWidth="1.26403" stroke-miterlimit="10"/>
<path d="M94.3283 223.255H84.7897C80.704 223.255 77.3917 219.943 77.3917 215.857V195.522C77.3917 191.436 80.704 188.124 84.7897 188.124H103.312C107.398 188.124 110.71 191.436 110.71 195.522V215.857C110.71 219.943 107.398 223.255 103.312 223.255H99.0859" stroke="#263238" strokeWidth="1.26403" stroke-miterlimit="10" strokeLinecap="round"/>
<path d="M96.5704 239.48H103.312C107.398 239.48 110.71 242.793 110.71 246.879V267.213C110.71 271.299 107.398 274.612 103.312 274.612H84.7897C80.704 274.612 77.3917 271.299 77.3917 267.213V246.879C77.3917 242.793 80.704 239.48 84.7897 239.48H89.8442" stroke="#263238" strokeWidth="1.26403" stroke-miterlimit="10" strokeLinecap="round"/>
<path d="M77.399 305.368V298.228C77.399 294.142 80.7114 290.83 84.7971 290.83H103.32C107.405 290.83 110.718 294.142 110.718 298.228V318.563C110.718 322.649 107.405 325.961 103.32 325.961H84.7971C80.7114 325.961 77.399 322.649 77.399 318.563V310.962" stroke="#263238" strokeWidth="1.26403" stroke-miterlimit="10" strokeLinecap="round"/>
<path d="M93.4064 215.646C93.3283 215.646 93.2424 215.646 93.1642 215.63C92.3752 215.552 91.6721 215.107 91.2737 214.427L84.4381 202.904C83.735 201.725 84.1256 200.201 85.3053 199.498C86.4849 198.795 88.0083 199.186 88.7113 200.365L93.8205 208.982L112.07 188.647C112.984 187.624 114.554 187.538 115.577 188.46C116.601 189.374 116.687 190.944 115.765 191.967L95.2579 214.818C94.7814 215.349 94.1095 215.646 93.4064 215.646Z" fill="#246532" stroke="#263238" strokeWidth="1.26403" stroke-miterlimit="10"/>
<path d="M292.31 127.799C318.551 127.799 339.823 106.527 339.823 80.2857C339.823 54.0449 318.551 32.7725 292.31 32.7725C266.069 32.7725 244.797 54.0449 244.797 80.2857C244.797 106.527 266.069 127.799 292.31 127.799Z" fill="white" stroke="#263238" strokeWidth="1.26403" stroke-miterlimit="10"/>
<path d="M292.31 116.674C312.407 116.674 328.699 100.382 328.699 80.2853C328.699 60.1883 312.407 43.8965 292.31 43.8965C272.213 43.8965 255.921 60.1883 255.921 80.2853C255.921 100.382 272.213 116.674 292.31 116.674Z" fill="#246532" stroke="#263238" strokeWidth="1.26403" stroke-miterlimit="10"/>
<path d="M316.809 110.183C315.41 110.183 314.012 109.651 312.942 108.581L265.21 60.8492C263.077 58.7164 263.077 55.2479 265.21 53.1152C267.342 50.9824 270.811 50.9824 272.944 53.1152L320.676 100.847C322.808 102.98 322.808 106.448 320.676 108.581C319.605 109.651 318.207 110.183 316.809 110.183Z" fill="#263238"/>
<path d="M269.077 110.183C267.678 110.183 266.28 109.651 265.21 108.581C263.077 106.448 263.077 102.98 265.21 100.847L312.942 53.1152C315.074 50.9824 318.543 50.9824 320.676 53.1152C322.808 55.2479 322.808 58.7164 320.676 60.8492L272.944 108.581C271.873 109.651 270.475 110.183 269.077 110.183Z" fill="#263238"/>
<path d="M104.094 98.4797C130.335 98.4797 151.607 77.2073 151.607 50.9664C151.607 24.7255 130.335 3.45312 104.094 3.45312C77.8531 3.45312 56.5807 24.7255 56.5807 50.9664C56.5807 77.2073 77.8531 98.4797 104.094 98.4797Z" fill="white" stroke="#263238" strokeWidth="1.26403" stroke-miterlimit="10"/>
<path d="M104.094 87.3558C124.191 87.3558 140.483 71.064 140.483 50.967C140.483 30.87 124.191 14.5781 104.094 14.5781C83.997 14.5781 67.7051 30.87 67.7051 50.967C67.7051 71.064 83.997 87.3558 104.094 87.3558Z" fill="#246532" stroke="#263238" strokeWidth="1.26403" stroke-miterlimit="10"/>
<path d="M102.665 70.1924C102.485 70.1924 102.305 70.1846 102.126 70.169C100.391 69.9971 98.8445 69.0128 97.9539 67.5129L82.9 42.1391C81.361 39.5455 82.2125 36.1863 84.814 34.6473C87.4154 33.1083 90.7668 33.9598 92.3058 36.5613L103.555 55.5291L143.733 10.7578C145.748 8.50795 149.209 8.32046 151.451 10.3438C153.701 12.3593 153.889 15.8201 151.865 18.0622L106.711 68.3722C105.672 69.5362 104.188 70.1846 102.641 70.1846L102.665 70.1924Z" fill="#263238"/>
</g>
<defs>
<clipPath id="clip0_141_5268">
<rect width="379.208" height="375.239" fill="white" transform="translate(0.896057)"/>
</clipPath>
</defs>
</svg>
