<svg width="101" height="100" viewBox="0 0 101 100" fill="none" xmlns="http://www.w3.org/2000/svg">
<path d="M87.6124 28.0833C86.779 28.625 85.5915 29.125 85.0915 29.6875C84.904 29.875 84.7999 30.0833 84.8416 30.2917V32.4375L84.2166 34.5417L83.5916 36.625L82.9041 38.9167L81.4874 43.6042L80.1124 48.2292L79.0707 51.7083C79.0707 52.25 79.0499 52.7917 79.0082 53.3125C78.8624 55.3125 78.4457 57.2292 77.7791 59.0208C77.3832 60.125 76.9041 61.1875 76.3207 62.1875C76.1124 62.5833 75.8624 62.9792 75.6124 63.3542C74.7791 64.6667 73.7791 65.875 72.6749 66.9375C71.8207 67.7917 70.8832 68.5833 69.8624 69.25C69.8624 69.25 69.8624 69.25 69.8415 69.25C69.6749 69.3958 69.4874 69.5208 69.279 69.625C68.6332 70.0625 67.9457 70.4375 67.2374 70.7708C66.7582 71.0208 66.2791 71.2292 65.7791 71.4167C65.6749 71.4792 65.5499 71.5208 65.4457 71.5625C64.2582 72.125 62.8832 72.5 61.5082 72.6875C61.4249 72.7083 61.3624 72.7083 61.2791 72.7292C60.4457 72.875 59.6332 73 58.7999 73.0625C58.4249 73.1042 58.0291 73.125 57.6541 73.125L56.1749 73.0417L49.0499 72.6667C49.0499 72.6458 49.0291 72.6667 49.0291 72.6667L45.4457 72.4792C45.1749 72.4792 44.8832 72.4792 44.6124 72.4583C43.4874 72.4167 42.4041 72.2917 41.3207 72.0625C41.2999 72.0625 41.2999 72.0625 41.2999 72.0625C39.3207 71.6875 37.4249 71.0208 35.6541 70.125C34.6749 69.625 33.7166 69.0625 32.8207 68.4167C32.4457 68.1458 32.0916 67.8542 31.7374 67.5417C30.7374 66.7083 29.8416 65.8125 29.0082 64.8958C28.8832 64.7708 28.7791 64.6458 28.6749 64.5208C28.5499 64.3958 28.4249 64.25 28.3207 64.125C27.5291 63.125 26.8624 62.1042 26.3207 61.0208C25.8207 60.0625 25.4249 59.0417 25.1124 57.9167C24.9874 57.5208 24.8832 57.1458 24.7999 56.7292C24.7791 56.7083 24.7582 56.6667 24.7582 56.625C24.5499 55.7708 24.3624 54.875 24.2582 53.9792C24.1332 53.2917 24.0707 52.6042 24.0707 51.8958C24.0291 51.625 24.0291 51.3333 24.0291 51.0625L28.0082 44.9167L31.9041 38.9167L33.6749 36.1875L35.2791 33.7292L35.8207 32.875V30.7292C35.8624 30.25 35.8832 29.75 35.8624 29.2917C35.8416 27.8333 35.5499 26.4167 35.0707 25.0625C34.6124 23.625 33.9666 22.2708 33.2999 21.0208C32.5082 19.5833 31.6749 18.2917 30.9874 17.125C29.9666 15.4167 29.2582 14.0208 29.4457 13.0417C30.9457 12.6875 32.5291 12.5 34.1332 12.5H67.4666C76.1749 12.5 83.6749 17.9167 86.7791 25.5417C87.1124 26.3542 87.404 27.2083 87.6124 28.0833Z" fill="#304FFE"/>
<path d="M88.2997 33.3333V33.8958L85.4247 35.5625L83.5914 36.625L81.5706 37.7917L77.5289 40.1458L73.5706 42.4375L69.5289 44.7708L67.9247 45.7083C67.9247 46.7083 67.6747 47.625 67.2164 48.4583C66.5706 49.6667 65.4872 50.6667 64.1122 51.5208C62.7164 52.375 61.0081 53.0625 59.0914 53.5625C59.0914 53.5625 59.0914 53.5417 59.0706 53.5625C51.6539 55.4792 41.5289 54.6042 36.6122 50.9375C35.2372 49.9167 34.2789 48.6667 33.8622 47.2292C33.7372 46.75 33.6747 46.2292 33.6747 45.7083V30.7292C33.6956 30.4167 33.4872 30.1042 33.1122 29.7917C31.9872 28.8958 29.3414 28.0417 26.3831 27.1875C24.0706 26.5417 21.5914 25.8958 19.5081 25.2708C17.8622 24.7708 16.4664 24.2708 15.6331 23.7917C16.0081 23.0625 16.4456 22.3333 16.9039 21.6458C19.8206 17.375 24.2789 14.2292 29.4456 13.0417C30.9456 12.6875 32.5289 12.5 34.1331 12.5H56.6331C67.8206 14.4583 78.1331 19.0208 86.7789 25.5417C87.1122 26.3542 87.4039 27.2083 87.6122 28.0833C87.9872 29.4583 88.2164 30.875 88.2789 32.3542C88.2997 32.6667 88.2997 33 88.2997 33.3333Z" fill="#4928F4"/>
<path d="M88.2999 33.3333V42.5208L87.8416 43.9375L86.2791 48.7917L84.6541 53.7917L83.7999 56.4583L83.0082 58.9375L82.2374 61.2917L81.4874 63.625L81.0916 64.8542L80.5707 66.4792C80.5707 68.0625 80.5291 69.4583 80.4249 70.6458C80.4041 70.7708 80.3832 70.8958 80.3832 71.0208C80.2582 72.125 80.0916 73.0625 79.8207 73.8542C79.7999 73.9792 79.7582 74.1042 79.7166 74.2083C79.1749 75.7083 78.3624 76.6667 77.1541 77.2917C76.8624 77.4583 76.529 77.5833 76.1749 77.7083C75.0707 78.0833 73.6749 78.2708 71.9665 78.375C70.7165 78.4583 69.279 78.4792 67.6541 78.4792H66.2165L63.7374 78.375L63.2999 78.3542L58.779 78.1667L54.1957 77.9792L39.0915 77.3542L35.1749 77.1875H34.6332C33.0082 77.1667 31.6124 77.0625 30.4041 76.8958C28.6541 76.625 27.2999 76.1667 26.2791 75.4792C24.8207 74.5417 23.9666 73.1667 23.4666 71.25C23.3416 70.7917 23.2374 70.3125 23.1749 69.7917C22.9666 68.5833 22.8624 67.1875 22.7999 65.625C22.7999 65.3125 22.7999 65 22.7791 64.6667C22.7582 64.6458 22.7791 64.6458 22.7791 64.6458V63.4375C22.7582 62.8333 22.7582 62.2083 22.7582 61.5625L22.8624 58.2083L22.9249 55.8125L23.0082 53.0208V52.625L23.1541 47.5L23.2999 42.375L23.4457 37.5625L23.5707 32.8333L23.6124 31.5833C23.6124 30.9375 21.4249 30.5625 18.9874 30.25C17.0499 30 14.9249 29.7708 13.6541 29.4792C13.7582 29 13.8624 28.5208 13.9874 28.0625C14.3624 26.5625 14.9249 25.1458 15.6332 23.7917C16.0082 23.0625 16.4457 22.3333 16.9041 21.6458C21.4041 19.6667 26.0916 18.125 30.9874 17.125C35.2791 16.2292 39.7582 15.75 44.3832 15.75C59.7166 15.75 73.8832 20.9375 85.0916 29.6875C86.1749 30.5208 87.2374 31.4167 88.2791 32.3542C88.2999 32.6667 88.2999 33 88.2999 33.3333Z" fill="#6200EA"/>
<path d="M88.2998 38.2695V47.7279L87.154 49.9362L84.9665 54.207L83.7998 56.457L82.7373 58.5195L82.279 59.4154C82.279 60.0612 82.279 60.6862 82.2373 61.2904C82.2373 62.1862 82.1956 63.0404 82.1331 63.832C82.0498 64.7695 81.9248 65.6237 81.7998 66.4154C81.4873 68.0612 81.0498 69.4779 80.4248 70.6445C80.3415 70.7904 80.2581 70.9362 80.1748 71.0612C79.9456 71.4362 79.6748 71.7904 79.3831 72.1237C79.0081 72.582 78.5915 72.9779 78.1123 73.3112C77.404 73.8529 76.5706 74.2904 75.6123 74.6237C74.4248 75.0612 73.0498 75.3529 71.4248 75.5195C70.3623 75.6237 69.1956 75.6862 67.9248 75.6862L67.0498 75.7279L62.7165 75.9779H62.6956L58.0915 76.2487L53.404 76.5195L46.9456 76.8945L39.0915 77.3529L37.9456 77.4154C36.8831 77.4154 35.8831 77.3529 34.9248 77.2279C34.8206 77.207 34.7373 77.1862 34.6331 77.1862C33.2165 76.957 31.9248 76.582 30.7581 76.0612C29.3415 75.4362 28.1123 74.6029 27.0706 73.6029C26.154 72.707 25.3623 71.6862 24.7165 70.5404C24.5706 70.2695 24.4248 70.0195 24.2998 69.7279C23.6748 68.4987 23.1748 67.1237 22.7998 65.6237C22.7373 65.3737 22.6748 65.1029 22.6331 64.832C22.5081 64.3529 22.404 63.8529 22.3415 63.332C22.1123 61.9987 21.9873 60.582 21.9248 59.1029V59.082C21.904 58.4779 21.8831 57.8945 21.8831 57.2695L20.8623 54.832L20.7165 54.457L20.5915 54.1445L19.029 50.4154L18.779 49.8112L17.279 46.207L15.6123 42.1862C15.6123 42.1862 15.6123 42.1862 15.5915 42.1862L13.904 38.1237L13.2998 36.6445V33.332C13.2998 32.0195 13.4248 30.7279 13.654 29.4779C13.7581 28.9987 13.8623 28.5195 13.9873 28.0612C15.7581 27.0404 17.6123 26.1029 19.5081 25.2695C23.8415 23.332 28.4873 21.8945 33.2998 21.0195C36.8831 20.3737 40.6123 20.0195 44.3831 20.0195C59.6123 20.0195 73.4248 25.5404 84.2165 34.5404C84.6331 34.8737 85.029 35.207 85.4248 35.5612C86.404 36.4154 87.3623 37.3112 88.2998 38.2695Z" fill="#673AB7"/>
<path d="M88.2998 44.4792V55.1875L87.1123 57.6667L84.8623 62.3542L84.8415 62.4167C84.8415 63.3125 84.7998 64.125 84.7373 64.8542C84.529 67.25 83.9456 68.7708 82.9873 69.7083C82.2998 70.4167 81.4456 70.8125 80.3831 71.0208C80.3206 71.0417 80.2373 71.0417 80.1748 71.0625C79.8415 71.125 79.4873 71.1667 79.1123 71.1667C77.8206 71.2917 76.2998 71.2083 74.5498 71.0833C74.3623 71.0833 74.154 71.0625 73.9456 71.0417C72.6748 70.9583 71.3206 70.875 69.8206 70.8125C69.0081 70.7917 68.154 70.7708 67.279 70.7708H67.2373L65.1331 70.9375H65.1123L60.3831 71.2708L54.9873 71.6875L54.1956 71.75L47.8831 72.2083L44.6123 72.4583L41.3831 72.6875C40.8206 72.6875 40.279 72.6875 39.7373 72.6667C39.7373 72.6667 39.7165 72.6458 39.7165 72.6667C37.3623 72.625 35.2581 72.4792 33.3831 72.125C31.654 71.8333 30.1331 71.375 28.8415 70.6875C27.5081 70.0417 26.404 69.125 25.5081 67.9583C24.654 66.8125 24.029 65.375 23.6331 63.6458C23.6331 63.625 23.6331 63.625 23.6331 63.625C23.3415 62.2292 23.1748 60.6042 23.1748 58.7708L22.8623 58.2083L21.0081 54.8958L20.7373 54.4375L20.5915 54.1458L18.654 50.7083L17.6956 48.9792L16.4873 46.8333L14.404 43.1042L13.2998 41.1458V33.4792C15.1331 32.2708 17.029 31.2083 18.9873 30.25C21.3623 29.0417 23.8206 28.0208 26.3831 27.1875C29.1748 26.2708 32.0915 25.5417 35.0706 25.0625C38.0915 24.5625 41.1956 24.3125 44.3831 24.3125C58.5498 24.3125 71.5498 29.375 81.5706 37.7917C82.029 38.1458 82.4665 38.5417 82.904 38.9167C84.654 40.4792 86.3206 42.1667 87.8415 43.9375C88.0081 44.125 88.1748 44.2917 88.2998 44.4792Z" fill="#8E24AA"/>
<path d="M88.2998 51.4779V66.5404C87.7998 66.2487 87.1123 65.8945 86.2581 65.5195C85.7998 65.2904 85.279 65.0612 84.7373 64.8529C83.9456 64.4987 83.0915 64.1654 82.1331 63.832C81.9248 63.7487 81.7165 63.6862 81.4873 63.6237C81.1123 63.4779 80.7165 63.3529 80.3206 63.2279C79.0915 62.8529 77.7373 62.4987 76.3206 62.1862C75.779 62.082 75.2165 61.9779 74.654 61.8945C72.8415 61.582 70.904 61.3945 68.8831 61.3737C68.7165 61.3529 68.529 61.3529 68.3623 61.3529L63.0081 61.3945L55.7165 61.4362H55.6956L40.0915 61.5612C35.1331 61.5612 32.0915 62.7487 30.2581 63.2279C30.2581 63.2279 30.2373 63.2279 30.2373 63.2487C28.2998 63.7487 27.6956 63.4362 27.529 60.0404C27.4873 59.1029 27.4665 57.8945 27.4665 56.4154L26.2998 55.5195L24.2581 53.9779L23.0081 53.0195L22.7581 52.832L19.2998 50.207L18.779 49.8112L17.6956 48.9779L15.6956 47.4779L13.2998 45.6445V38.5612C13.5081 38.3945 13.6956 38.2487 13.904 38.1237C16.9248 36.0404 20.154 34.2695 23.5706 32.832C26.6123 31.5404 29.8206 30.5195 33.1123 29.7904C34.0081 29.6029 34.9248 29.4154 35.8623 29.2904C38.6331 28.8112 41.4873 28.582 44.3831 28.582C56.904 28.582 68.404 32.9362 77.529 40.1445C78.904 41.2279 80.2373 42.3737 81.4873 43.6029C83.1956 45.2279 84.7998 46.957 86.279 48.7904C86.5706 49.1654 86.8623 49.5404 87.154 49.9362C87.5498 50.4362 87.9248 50.957 88.2998 51.4779Z" fill="#C2185B"/>
<path d="M88.2998 59.8333V66.6667C88.2998 68.0208 88.1748 69.3542 87.9248 70.6458C87.5498 72.5625 86.904 74.3958 86.029 76.1042C85.5706 76.2083 85.0498 76.2083 84.4665 76.125C83.154 75.8958 81.6123 75.2083 79.9456 74.3125C79.8623 74.2917 79.779 74.25 79.7165 74.2083C79.1956 73.9375 78.654 73.6458 78.1123 73.3125C77.0081 72.7083 75.8415 72.0417 74.6748 71.4167C74.4248 71.2917 74.1748 71.1667 73.9456 71.0417C72.6123 70.3542 71.2373 69.7292 69.8623 69.25C69.8623 69.25 69.8623 69.25 69.8415 69.25C69.5498 69.1458 69.2373 69.0417 68.9248 68.9583C67.7373 68.625 66.529 68.4167 65.3623 68.4167L63.0706 67.75L52.9248 64.8125C52.9248 64.8125 52.9248 64.8125 52.904 64.8125L46.6748 63H46.654L43.9456 62.2083C36.1123 62.2083 31.2998 65.5417 28.9665 64.2708C28.0498 63.7917 27.5081 62.5833 27.3206 60.2083C27.2581 59.5417 27.2373 58.7917 27.2373 57.9167L24.7998 56.7292L24.6956 56.6875H24.6748L22.9248 55.8125L21.0081 54.8958L20.8623 54.8333L20.5081 54.6458L16.4248 52.6667L13.2998 51.1458V44C13.654 43.6875 14.029 43.3958 14.404 43.1042C14.7998 42.7917 15.1956 42.5 15.5915 42.1875C15.6123 42.1875 15.6123 42.1875 15.6123 42.1875C18.0706 40.4167 20.6748 38.8542 23.4456 37.5625C26.6748 36.0208 30.1123 34.8333 33.6748 34.0625C34.1956 33.9375 34.7373 33.8125 35.279 33.7292C38.2373 33.1667 41.279 32.875 44.3831 32.875C55.3623 32.875 65.4456 36.4375 73.5706 42.4375C75.9248 44.1875 78.1123 46.125 80.1123 48.2292C81.7581 49.9583 83.279 51.8333 84.654 53.7917C84.7581 53.9375 84.8623 54.0833 84.9665 54.2083C85.7373 55.3333 86.4456 56.4792 87.1123 57.6667C87.5498 58.375 87.9248 59.1042 88.2998 59.8333Z" fill="#D81B60"/>
<path d="M87.9248 70.6445C87.5498 72.5612 86.904 74.3945 86.029 76.1029C85.6331 76.8737 85.1956 77.6029 84.7165 78.3112C84.4248 78.7487 84.1123 79.1654 83.7998 79.5612C83.0498 79.2695 81.9456 78.8529 80.5915 78.3945C80.5915 78.3945 80.5915 78.3945 80.5915 78.3737C79.5706 78.0195 78.404 77.6445 77.154 77.2904C76.7998 77.1862 76.4456 77.082 76.0706 76.9779C74.5915 76.582 73.0498 76.2279 71.5498 76.0195C70.2998 75.8112 69.0706 75.6862 67.9248 75.6862L66.9665 75.4154H66.9456L61.904 73.957L58.7998 73.0612L55.3415 72.0612H55.3206L54.1956 71.7487L40.5915 67.832L36.6748 66.707L33.7581 66.0195L29.0081 64.8945L28.4248 64.7487C28.4248 64.7487 28.4248 64.7487 28.404 64.7487L23.6331 63.6445C23.6331 63.6237 23.6331 63.6237 23.6331 63.6237L22.779 63.4362L22.3415 63.332L18.8623 62.5195L18.4665 62.4154L15.5081 59.9779L13.2998 58.1237V49.6237C14.0706 48.8737 14.8623 48.1654 15.6956 47.4779C15.9456 47.2487 16.2165 47.0404 16.4873 46.832C16.7373 46.6237 17.0081 46.4154 17.279 46.207C19.1748 44.7695 21.1748 43.4779 23.2998 42.3737C26.0081 40.9154 28.8831 39.7487 31.904 38.9154C32.4873 38.7279 33.0706 38.5612 33.6748 38.4362C37.0915 37.582 40.6748 37.1445 44.3831 37.1445C53.6956 37.1445 62.3623 39.957 69.529 44.7695C73.0915 47.1654 76.2998 50.0404 79.0081 53.3112C80.3831 54.957 81.6331 56.6862 82.7373 58.5195C82.8415 58.6654 82.9248 58.7904 83.0081 58.9362C83.6748 60.0404 84.2998 61.1862 84.8623 62.3529C85.3831 63.3945 85.8415 64.4362 86.2581 65.5195C86.9248 67.1862 87.4665 68.8945 87.9248 70.6445Z" fill="#F50057"/>
<path d="M84.7165 78.3125C84.4248 78.75 84.1123 79.1667 83.7998 79.5625C82.8831 80.7083 81.8831 81.75 80.7581 82.6667C79.779 83.4792 78.7373 84.2083 77.6331 84.8333C77.2165 84.7292 76.7998 84.6042 76.3623 84.4375C74.9873 83.9583 73.5498 83.1667 72.2165 82.3333C70.2165 81.0625 68.4873 79.6875 67.7165 79.0625C67.4248 78.8125 67.279 78.6875 67.279 78.6875L63.7373 78.375L63.2998 78.3333L58.7165 77.9375L53.9665 77.5208L46.9456 76.8958L35.8206 75.9167L35.779 75.8958L31.8623 74L27.904 72.0833L24.7165 70.5417L24.029 70.2083L23.1748 69.7917L20.2165 68.3542L16.279 66.4583L15.0498 65.8542L13.2998 65.3125V56C14.279 54.8333 15.3206 53.7292 16.4248 52.6667C17.1331 52 17.8831 51.3333 18.654 50.7083C18.779 50.6042 18.904 50.5 19.029 50.4167C19.1123 50.3125 19.2165 50.25 19.2998 50.2083C20.529 49.2083 21.8206 48.3125 23.154 47.5C24.6956 46.5208 26.3206 45.6458 28.0081 44.9167C29.8206 44.1042 31.7165 43.4167 33.6748 42.8958C37.0706 41.9375 40.6748 41.4375 44.3831 41.4375C52.8831 41.4375 60.7373 44.0208 67.2165 48.4583C71.3623 51.2917 74.9456 54.875 77.779 59.0208C78.7165 60.3542 79.5498 61.7708 80.3206 63.2292C80.5915 63.7708 80.8623 64.3125 81.0915 64.8542C81.3415 65.375 81.5706 65.8958 81.7998 66.4167C82.2373 67.5 82.6331 68.5833 82.9873 69.7083C83.654 71.7917 84.154 73.9167 84.4665 76.125C84.5706 76.8542 84.654 77.5833 84.7165 78.3125Z" fill="#FF1744"/>
<path d="M80.779 82.1237C80.779 82.2904 80.779 82.4779 80.7581 82.6654C79.779 83.4779 78.7373 84.207 77.6331 84.832C77.1748 85.082 76.7165 85.332 76.2373 85.5404C75.7581 85.7695 75.279 85.9779 74.779 86.1654C74.0706 85.7904 73.1123 85.332 72.0915 84.8945C70.654 84.2487 69.0915 83.6654 67.8831 83.4779C67.5915 83.4154 67.3206 83.3945 67.0706 83.3945L63.654 82.957H63.6123L59.3623 82.3945L55.0706 81.832L53.0706 81.582L37.3206 79.5404C36.2998 79.5404 35.2165 79.4779 34.0915 79.332C32.7165 79.207 31.279 78.9987 29.8415 78.707C28.4248 78.457 26.9873 78.1237 25.6123 77.7695C24.1748 77.4362 22.7581 77.0404 21.4456 76.6654C19.9248 76.207 18.5081 75.7695 17.3206 75.3737C16.3415 75.0612 15.5081 74.7695 14.8623 74.5404C14.4873 73.6445 14.1748 72.707 13.9456 71.7487C13.5081 70.1237 13.2998 68.4154 13.2998 66.6654V63.1862C13.9665 62.082 14.6956 60.9987 15.5081 59.9779C16.9873 58.0195 18.6748 56.2279 20.5081 54.6445C20.5706 54.5612 20.654 54.4987 20.7165 54.457L20.7373 54.4362C21.3831 53.8529 22.0498 53.332 22.7581 52.832C22.8415 52.7487 22.9248 52.6862 23.0081 52.6237C23.3415 52.3737 23.6956 52.1237 24.0706 51.8945C27.0498 49.8737 30.3415 48.2904 33.8623 47.2279C37.1956 46.2279 40.7165 45.707 44.3831 45.707C51.654 45.707 58.4456 47.8529 64.1123 51.5195C68.2998 54.207 71.904 57.7487 74.654 61.8945C74.9873 62.3737 75.2998 62.8529 75.6123 63.3529C77.0498 65.7904 78.2373 68.4154 79.1123 71.1654C79.2165 71.4779 79.2998 71.7904 79.3831 72.1237C79.5498 72.6862 79.6956 73.2695 79.8206 73.8529C79.8623 73.9987 79.904 74.1445 79.9456 74.3112C80.2373 75.6237 80.4456 76.9987 80.5915 78.3737C80.5915 78.3945 80.5915 78.3945 80.5915 78.3945C80.7165 79.6237 80.779 80.8737 80.779 82.1237Z" fill="#FF5722"/>
<path d="M76.4872 82.125C76.4872 82.8542 76.4456 83.6458 76.3622 84.4375C76.3206 84.8125 76.2789 85.1875 76.2372 85.5417C75.7581 85.7708 75.2789 85.9792 74.7789 86.1667C73.8414 86.5208 72.8831 86.8125 71.9039 87.0208C71.2372 87.1667 70.5497 87.2917 69.8622 87.3542H69.8414C69.1956 86.9583 68.4456 86.4792 67.6747 85.9375C66.2789 84.9583 64.8206 83.8542 63.6539 82.9583C63.6331 82.9375 63.6331 82.9375 63.6122 82.9167C62.3831 81.9792 61.5081 81.2708 61.5081 81.2708L59.2997 81.3542L55.0497 81.5L53.0706 81.5833L45.1122 81.875L38.3831 82.125C37.9456 82.1458 37.4247 82.1458 36.7789 82.125H36.7581C35.8831 82.1042 34.8414 82.0417 33.6956 81.9375C32.3622 81.8333 30.9039 81.7083 29.4247 81.5625C27.9872 81.3958 26.5289 81.2292 25.1331 81.0625C23.5914 80.8958 22.1331 80.7083 20.8831 80.5417C19.9039 80.4167 19.0497 80.3125 18.3622 80.2292C17.7789 79.5625 17.2581 78.875 16.7581 78.125C16.0081 77 15.3622 75.8125 14.8622 74.5417C14.4872 73.6458 14.1747 72.7083 13.9456 71.75C14.5497 69.8958 15.3414 68.1458 16.2789 66.4583C17.0289 65.0833 17.9039 63.7708 18.8622 62.5208C19.7997 61.2917 20.8206 60.1458 21.9247 59.1042V59.0833C22.2372 58.7708 22.5497 58.4792 22.8622 58.2083C23.4456 57.6667 24.0497 57.1667 24.6747 56.6875H24.6956C24.7164 56.6458 24.7372 56.6458 24.7581 56.625C25.2581 56.2292 25.7789 55.875 26.2997 55.5208C29.3831 53.4167 32.8622 51.8542 36.6122 50.9375C39.0914 50.3333 41.6956 50 44.3831 50C49.6747 50 54.6747 51.2708 59.0706 53.5625H59.0914C62.8622 55.5 66.1956 58.1667 68.8831 61.375C70.3622 63.0833 71.6331 64.9583 72.6747 66.9375C73.4039 68.2708 74.0289 69.6667 74.5497 71.0833C74.5914 71.2083 74.6331 71.3125 74.6747 71.4167C75.0289 72.4583 75.3414 73.5417 75.6122 74.625C75.7997 75.3958 75.9456 76.1875 76.0706 76.9792C76.1122 77.2292 76.1539 77.4583 76.1747 77.7083C76.3831 79.1458 76.4872 80.625 76.4872 82.125Z" fill="#FF6F00"/>
<path d="M72.2164 82.1263V82.3346C72.2164 83.043 72.1539 83.9388 72.0914 84.8971C72.0289 85.6055 71.9664 86.3346 71.9039 87.0221C71.2372 87.168 70.5497 87.293 69.8622 87.3555H69.8414C69.0497 87.4596 68.2789 87.5013 67.4664 87.5013H63.8206L63.0289 87.2721L58.9247 86.0221L54.7581 84.7721L45.1122 81.8763L40.9456 80.6263C40.9456 80.6263 39.2164 81.3138 36.7789 82.1263H36.7581C35.8206 82.4388 34.7997 82.7721 33.7164 83.1055C32.3622 83.5013 30.9247 83.8971 29.5081 84.2096C28.0497 84.543 26.6122 84.793 25.3206 84.8971C24.9247 84.9388 24.5289 84.9596 24.1747 84.9596C23.0081 84.3138 21.8831 83.543 20.8622 82.6888C19.9664 81.9388 19.1331 81.1263 18.3622 80.2305C17.7789 79.5638 17.2581 78.8763 16.7581 78.1263C16.9039 77.1888 17.0706 76.2721 17.3206 75.3763C17.9456 72.8971 18.9247 70.5221 20.2164 68.3555C20.9247 67.1263 21.7164 65.9388 22.6331 64.8346C22.6539 64.7721 22.7164 64.7096 22.7789 64.668C22.7581 64.6471 22.7789 64.6471 22.7789 64.6471C23.0497 64.293 23.3414 63.9596 23.6331 63.6471C23.6331 63.6263 23.6331 63.6263 23.6331 63.6263C24.4872 62.7096 25.3622 61.8346 26.3206 61.0221C26.6539 60.7513 26.9664 60.4805 27.3206 60.2096C27.3831 60.1471 27.4456 60.1055 27.5289 60.043C32.2164 56.4596 38.0706 54.293 44.3831 54.293C51.5497 54.293 58.0706 56.9805 63.0081 61.3971C65.3831 63.543 67.4039 66.1055 68.9247 68.9596C69.0497 69.168 69.1747 69.3971 69.2789 69.6263C69.4664 70.0013 69.6539 70.3971 69.8206 70.8138C70.5081 72.3138 71.0497 73.8971 71.4247 75.5221C71.4664 75.6888 71.5081 75.8555 71.5497 76.0221C71.7164 76.793 71.8622 77.5846 71.9664 78.3763C72.1331 79.6055 72.2164 80.8555 72.2164 82.1263Z" fill="#FF9800"/>
<path d="M67.9247 82.125C67.9247 82.5417 67.9039 83 67.8831 83.4792C67.8414 84.25 67.7789 85.0833 67.6747 85.9375C67.633 86.4583 67.5497 86.9792 67.4664 87.5H56.0497L53.8414 87.1458L45.2164 85.7708L43.9872 85.5833L41.1747 85.125C39.9456 85.125 37.2789 85.6667 34.4664 86.1875C32.9872 86.4583 31.4872 86.75 30.1331 86.9375C29.9664 86.9583 29.7997 86.9792 29.6539 87H29.6331C28.1747 86.6875 26.7581 86.2083 25.4247 85.5833C25.0081 85.3958 24.5914 85.1875 24.1747 84.9583C23.0081 84.3125 21.8831 83.5417 20.8622 82.6875C20.8414 82.4375 20.8206 82.2292 20.8206 82.125C20.8206 81.5833 20.8414 81.0625 20.8831 80.5417C20.9664 79.2083 21.1539 77.9167 21.4456 76.6667C21.9039 74.7708 22.5706 72.9375 23.4664 71.25C23.6331 70.8958 23.8206 70.5417 24.0289 70.2083C24.1122 70.0417 24.2164 69.8958 24.2997 69.7292C24.6747 69.125 25.0914 68.5417 25.5081 67.9583C26.3831 66.8125 27.3622 65.7292 28.4039 64.75C28.4247 64.75 28.4247 64.75 28.4247 64.75C28.5081 64.6667 28.5914 64.5833 28.6747 64.5208C28.7789 64.4375 28.8622 64.3333 28.9664 64.2708C29.3831 63.8958 29.7997 63.5625 30.2372 63.25C30.2372 63.2292 30.2581 63.2292 30.2581 63.2292C34.1956 60.2917 39.0706 58.5625 44.3831 58.5625C48.5081 58.5625 52.3414 59.6042 55.6956 61.4375H55.7164C58.5914 63.0208 61.0914 65.1667 63.0706 67.75C63.8414 68.75 64.5289 69.8125 65.1122 70.9375H65.1331C65.2372 71.1458 65.3414 71.3542 65.4456 71.5625C66.0706 72.7917 66.5706 74.0833 66.9456 75.4167H66.9664C66.9872 75.5208 67.0289 75.625 67.0497 75.7292C67.2997 76.625 67.5081 77.5417 67.6539 78.4792C67.6747 78.6667 67.6956 78.875 67.7164 79.0625C67.8622 80.0625 67.9247 81.0833 67.9247 82.125Z" fill="#FFC107"/>
<path d="M63.654 81.8971C63.654 82.2305 63.654 82.5846 63.6123 82.918V82.9388C63.6123 82.9596 63.6123 82.9596 63.6123 82.9596C63.5706 84.4596 63.3623 85.9388 63.029 87.2721C63.029 87.3555 63.0081 87.418 62.9665 87.5013H53.2373L45.2165 85.7721L44.154 85.543L43.9873 85.5846L35.0915 87.418L34.6956 87.5013H34.1331C32.7998 87.5013 31.4873 87.3763 30.2165 87.1263C30.029 87.0846 29.8415 87.043 29.654 87.0013H29.6331C28.1748 86.6888 26.7581 86.2096 25.4248 85.5846C25.3831 85.3555 25.3415 85.1263 25.3206 84.8971C25.1748 84.0013 25.1123 83.0638 25.1123 82.1263C25.1123 81.7721 25.1123 81.418 25.1331 81.0638C25.1956 79.9388 25.3623 78.8346 25.6123 77.7721C25.779 76.9805 26.0081 76.2096 26.279 75.4805C26.5081 74.8346 26.779 74.2096 27.0706 73.6055C27.3206 73.0846 27.6123 72.5846 27.904 72.0846C28.1956 71.6055 28.5081 71.1471 28.8415 70.6888C29.6748 69.543 30.654 68.4805 31.7373 67.543C32.3623 67.0013 33.0498 66.4805 33.7581 66.0221C36.7998 64.0221 40.4456 62.8555 44.3831 62.8555C45.154 62.8555 45.904 62.8971 46.6331 63.0013H46.6748C48.904 63.2513 50.9873 63.8763 52.904 64.8138C52.9248 64.8138 52.9248 64.8138 52.9248 64.8138C55.9456 66.293 58.5081 68.5221 60.3831 71.2721C60.6956 71.7305 61.0081 72.2305 61.279 72.7305C61.5081 73.1263 61.7165 73.543 61.904 73.9596C62.1956 74.6055 62.4665 75.293 62.6956 75.9805H62.7165C62.9456 76.7513 63.154 77.5221 63.2998 78.3346V78.3555C63.529 79.5013 63.654 80.6888 63.654 81.8971Z" fill="#FFD54F"/>
<path d="M59.3622 82.332V82.3945C59.3622 83.6237 59.2164 84.832 58.9247 86.0195C58.8206 86.5195 58.6747 87.0195 58.4872 87.4987H49.1539L44.3831 86.1862L39.6122 87.4987H34.1331C32.7997 87.4987 31.4872 87.3737 30.2164 87.1237C30.1747 87.0612 30.1539 86.9987 30.1331 86.9362C29.8414 86.0404 29.6122 85.1445 29.5081 84.207C29.4247 83.6029 29.3831 82.9779 29.3831 82.332C29.3831 82.082 29.3831 81.8112 29.4247 81.5612C29.4456 80.582 29.5914 79.6237 29.8414 78.707C29.9664 78.082 30.1539 77.4779 30.4039 76.8945C30.4872 76.6029 30.6122 76.332 30.7581 76.0612C31.0706 75.3529 31.4456 74.6654 31.8622 73.9987C32.3206 73.332 32.8206 72.707 33.3831 72.1237C34.0497 71.3737 34.7997 70.6862 35.6539 70.1237C37.1122 69.0612 38.7789 68.2695 40.5914 67.832C41.7997 67.4987 43.0706 67.332 44.3831 67.332C48.5497 67.332 52.2789 68.9987 54.9872 71.6862C55.0914 71.7904 55.2164 71.9154 55.3206 72.0612H55.3414C55.6331 72.3737 55.9039 72.6862 56.1747 73.0404C56.9456 74.0195 57.5914 75.082 58.0914 76.2487C58.3414 76.7904 58.5497 77.3529 58.7164 77.9362C58.7372 78.0195 58.7581 78.082 58.7789 78.1654C59.0706 79.1862 59.2581 80.2487 59.2997 81.3529C59.3414 81.6654 59.3622 81.9987 59.3622 82.332Z" fill="#FFE082"/>
<path d="M55.0915 82.3333C55.0915 83.1875 54.9873 84 54.7581 84.7708C54.5498 85.6042 54.2373 86.3958 53.8415 87.1458C53.779 87.2708 53.6331 87.5 53.6331 87.5H35.1331C35.1123 87.4792 35.0915 87.4375 35.0915 87.4167C34.8415 87.0208 34.6331 86.625 34.4665 86.1875C34.0498 85.2292 33.7998 84.1875 33.7165 83.1042C33.6748 82.8542 33.6748 82.5833 33.6748 82.3333C33.6748 82.2083 33.6748 82.0625 33.6956 81.9375C33.7165 81.0208 33.8415 80.1458 34.0915 79.3333C34.2998 78.5833 34.5706 77.8958 34.9248 77.2292C34.9248 77.2292 34.9456 77.2083 34.9456 77.1875C35.1956 76.75 35.4665 76.3125 35.779 75.8958C36.7998 74.5208 38.154 73.3958 39.7165 72.6667C39.7373 72.6667 39.7373 72.6667 39.7373 72.6667C40.2373 72.4167 40.7581 72.2083 41.2998 72.0625C41.2998 72.0625 41.2998 72.0625 41.3206 72.0625C42.279 71.7708 43.3206 71.625 44.3831 71.625C45.6123 71.625 46.7998 71.8125 47.8831 72.2083C48.279 72.3125 48.654 72.4792 49.029 72.6667C49.029 72.6667 49.029 72.6667 49.0498 72.6667C50.8415 73.5208 52.3623 74.8542 53.404 76.5208C53.6123 76.8333 53.7998 77.1667 53.9665 77.5208C54.0498 77.6667 54.1331 77.8333 54.1956 77.9792C54.6748 79.0625 54.9665 80.25 55.0498 81.5C55.0706 81.6042 55.0706 81.7083 55.0706 81.8333C55.0915 82 55.0915 82.1667 55.0915 82.3333Z" fill="#FFECB3"/>
<path d="M63.2999 22.918H38.2999C30.1749 22.918 23.7166 29.3763 23.7166 37.5013V62.5013C23.7166 70.6263 30.1749 77.0846 38.2999 77.0846H63.2999C71.4249 77.0846 77.8832 70.6263 77.8832 62.5013V37.5013C77.8832 29.3763 71.4249 22.918 63.2999 22.918Z" stroke="white" strokeWidth="4.16667" stroke-miterlimit="10" strokeLinecap="round" strokeLinejoin="round"/>
<path d="M65.3831 35.4167C66.5337 35.4167 67.4665 34.4839 67.4665 33.3333C67.4665 32.1827 66.5337 31.25 65.3831 31.25C64.2325 31.25 63.2998 32.1827 63.2998 33.3333C63.2998 34.4839 64.2325 35.4167 65.3831 35.4167Z" fill="white"/>
<path d="M50.7998 62.5C57.7034 62.5 63.2998 56.9036 63.2998 50C63.2998 43.0964 57.7034 37.5 50.7998 37.5C43.8962 37.5 38.2998 43.0964 38.2998 50C38.2998 56.9036 43.8962 62.5 50.7998 62.5Z" stroke="white" strokeWidth="4.16667" stroke-miterlimit="10" strokeLinecap="round" strokeLinejoin="round"/>
</svg>
