<svg width="199" height="120" viewBox="0 0 199 120" fill="none" xmlns="http://www.w3.org/2000/svg">
<rect x="0.699951" y="0.5" width="197.4" height="119" rx="9.5" stroke="#D6D6D6"/>
<path d="M99.4 20.418C88.9018 20.418 78.8337 24.5883 71.4103 32.0117C63.987 39.435 59.8167 49.5031 59.8167 60.0013C59.8167 70.4995 63.987 80.5676 71.4103 87.9909C78.8337 95.4143 88.9018 99.5846 99.4 99.5846C109.898 99.5846 119.966 95.4143 127.39 87.9909C134.813 80.5676 138.983 70.4995 138.983 60.0013C138.983 49.5031 134.813 39.435 127.39 32.0117C119.966 24.5883 109.898 20.418 99.4 20.418Z" fill="#039BE5"/>
<path d="M104.758 70.4909H115.002L116.61 60.0846H104.756V54.3971C104.756 50.0742 106.169 46.2409 110.212 46.2409H116.71V37.1596C115.569 37.0055 113.154 36.668 108.592 36.668C99.0645 36.668 93.4791 41.6992 93.4791 53.1617V60.0846H83.6853V70.4909H93.4791V99.093C95.4186 99.3846 97.3832 99.5826 99.3999 99.5826C101.223 99.5826 103.002 99.4159 104.758 99.1784V70.4909Z" fill="white"/>
</svg>
