<svg width="54" height="54" viewBox="0 0 54 54" fill="none" xmlns="http://www.w3.org/2000/svg">
<rect x="0.812852" y="0.812852" width="52.3743" height="52.3743" rx="8.51673" fill="#246532"/>
<rect x="0.812852" y="0.812852" width="52.3743" height="52.3743" rx="8.51673" stroke="#246532" strokeWidth="1.6257"/>
<path d="M40.4147 20.5486C39.769 19.9006 38.906 19.5742 37.9582 19.5742H33.7594C31.7605 19.5742 30.136 21.0739 30.136 22.9926V27.1914C30.136 29.1518 31.7944 30.8382 33.7594 30.8382H34.168V31.9015C34.168 32.0107 34.2311 32.1109 34.3281 32.1612C34.3701 32.1828 34.4166 32.1941 34.4639 32.1941C34.5232 32.1941 34.5827 32.1912 34.633 32.1558L36.5246 30.8382H37.9582C38.9011 30.8382 39.7661 30.4396 40.4206 29.7434C41.0616 29.0615 41.4 28.1454 41.4 27.1914V22.9926C41.4 22.0441 41.0595 21.1959 40.4147 20.5486Z" fill="#E1E0E6"/>
<path d="M34.8522 36.5141L31.3119 34.0154C30.7521 33.6203 30.0113 33.6463 29.4783 34.0797L28.294 35.0426C27.8058 35.4396 27.1647 35.5697 26.569 35.3927L24.7906 34.8642C20.9789 33.7317 19.2462 31.9654 18.0472 28.0315L17.8342 27.3327C17.6007 26.5667 17.826 25.7293 18.4077 25.201L19.6532 24.0701C20.2417 23.5358 20.3595 22.6305 19.929 21.9523L17.5421 18.1927C16.9696 17.291 15.7261 17.2132 15.0541 18.0372L12.7046 20.9181C11.9792 21.8075 11.8527 23.0695 12.3862 24.0956L16.2148 32.0527C17.2831 34.1079 18.8913 35.804 20.8513 36.9427L29.1528 41.4972C30.0794 42.0356 31.2223 41.9629 32.0792 41.3111L34.8972 39.1675C35.768 38.5052 35.745 37.1441 34.8522 36.5141Z" fill="white"/>
<path d="M30.4753 42.3382C29.9279 42.3381 29.3904 42.1934 28.9169 41.9189L20.6204 37.367C20.6169 37.3652 20.6135 37.3632 20.6101 37.3613C18.5681 36.175 16.9009 34.4171 15.7889 32.2776C15.7866 32.2733 15.7844 32.2688 15.7822 32.2644L11.9567 24.3137C11.3349 23.1108 11.4821 21.6611 12.3326 20.6182L14.6822 17.7373C15.0998 17.2251 15.7114 16.9538 16.359 16.9918C17.0108 17.0305 17.5898 17.3757 17.9473 17.9389L20.3341 21.6985C20.8863 22.5682 20.7323 23.742 19.9759 24.4289L18.7304 25.5599C18.2852 25.9642 18.1136 26.6065 18.2933 27.1963L18.5063 27.895C19.6601 31.6806 21.2804 33.324 24.9273 34.4075L26.7057 34.936C27.1472 35.0672 27.6278 34.9691 27.9912 34.6735L29.1754 33.7106C29.8792 33.1384 30.8492 33.1047 31.5886 33.6267L35.129 36.1253C35.6803 36.5145 36.0036 37.1329 36.0159 37.822C36.0282 38.5124 35.7263 39.1434 35.1877 39.5531L32.3697 41.6967C31.8106 42.1221 31.1441 42.3382 30.4753 42.3382ZM21.0873 36.5282L29.3836 41.08C29.3871 41.0819 29.3905 41.0838 29.3939 41.0858C30.1494 41.5247 31.0894 41.4646 31.7886 40.9326L34.6066 38.789C34.8991 38.5665 35.0629 38.2203 35.0561 37.8391C35.0493 37.4592 34.8741 37.1204 34.5754 36.9096L31.0351 34.411C30.6511 34.14 30.1472 34.1578 29.7811 34.4555L28.5968 35.4184C27.9871 35.9141 27.1778 36.0777 26.4323 35.8562L24.6538 35.3277C20.6874 34.1492 18.8384 32.2774 17.588 28.1748L17.375 27.4761C17.0876 26.5329 17.3663 25.5018 18.085 24.8491L19.3304 23.7181C19.7459 23.3409 19.8289 22.6938 19.5237 22.2129L17.137 18.4535C16.9466 18.1538 16.6424 17.9703 16.3022 17.9501C15.966 17.9296 15.6466 18.0738 15.4262 18.3441L13.0765 21.225C12.4762 21.9611 12.3699 23.0272 12.8121 23.8778C12.8144 23.8822 12.8166 23.8866 12.8188 23.8911L16.6441 31.8413C17.671 33.8141 19.2074 35.4347 21.0873 36.5282Z" fill="#5E6575"/>
<path d="M33.7718 12.918H27.7912C25.2292 12.918 23.096 14.9466 23.096 17.5087V23.4892C23.096 26.0513 25.2292 28.15 27.7913 28.15H28.856V30.198L31.5978 28.15H33.7718C36.3338 28.15 38.392 26.0513 38.392 23.4892V17.5087C38.392 14.9466 36.3338 12.918 33.7718 12.918Z" fill="white"/>
<path d="M28.8879 30.6783C28.7607 30.6782 28.6386 30.6277 28.5486 30.5376C28.4586 30.4476 28.408 30.3255 28.408 30.1983V28.5983H27.7912C24.9553 28.5983 22.648 26.3065 22.648 23.4895V17.509C22.648 14.6953 24.9553 12.4062 27.7912 12.4062H33.7718C36.6017 12.4062 38.904 14.6953 38.904 17.509V23.4895C38.904 26.3065 36.6017 28.5983 33.7718 28.5983H31.7607L29.1803 30.579C29.0965 30.6434 28.9937 30.6783 28.8879 30.6783ZM27.7912 13.3663C25.4846 13.3663 23.608 15.2247 23.608 17.509V23.4895C23.608 25.7771 25.4846 27.6383 27.7912 27.6383H28.888C29.0153 27.6383 29.1374 27.6888 29.2274 27.7788C29.3174 27.8689 29.368 27.9909 29.368 28.1183V29.2247L31.3055 27.7375C31.3893 27.6731 31.4921 27.6383 31.5978 27.6383H33.7718C36.0723 27.6383 37.944 25.7771 37.944 23.4895V17.509C37.944 15.2247 36.0723 13.3663 33.7718 13.3663H27.7912Z" fill="#5E6575"/>
<path d="M33.5486 20.7779C33.4216 20.4881 33.2381 20.2355 33.0052 20.0289C32.787 19.8295 32.4421 19.675 32.1657 19.5697C31.933 19.4811 31.8001 19.3833 31.1601 19.2783V17.5305C31.4801 17.6678 31.6443 17.8763 31.7199 18.163C31.8758 18.7332 32.3108 18.8529 32.6088 18.8529C32.8399 18.8529 33.0629 18.7705 33.2253 18.608C33.3878 18.4456 33.482 18.2496 33.482 18.0254C33.482 17.8428 33.4392 17.6432 33.3434 17.4319C33.2509 17.2281 33.1217 17.0282 32.9558 16.8402C32.7397 16.5862 32.3898 16.3937 32.0986 16.2681C31.8573 16.164 31.5441 16.0889 31.1601 16.0442V15.6448C31.1601 15.091 30.8977 15.0312 30.7414 15.0312C30.5868 15.0312 30.3281 15.092 30.3281 15.6552V16.0419C29.4961 16.1278 29.1028 16.3642 28.7228 16.7461C28.3076 17.1632 28.0937 17.7026 28.0937 18.3491C28.0937 18.8437 28.2008 19.2577 28.4154 19.5796C28.6274 19.8976 28.9137 20.1461 29.2543 20.3183C29.5457 20.4657 29.6241 20.6018 30.3281 20.7236V22.7466C30.1361 22.7009 30.1378 22.647 30.0684 22.5854C29.9474 22.4778 29.8529 22.3587 29.7944 22.2315C29.7281 22.0873 29.6463 21.8734 29.5557 21.598C29.5013 21.4257 29.4004 21.2892 29.2575 21.1923C29.1189 21.0983 28.95 21.0507 28.7563 21.0507C28.5105 21.0507 28.3014 21.1372 28.1352 21.3077C27.9704 21.4769 27.8867 21.6724 27.8867 21.8887C27.8867 22.1385 27.9406 22.3952 28.047 22.6515C28.1525 22.9059 28.3165 23.153 28.5345 23.3859C28.7528 23.6192 29.0348 23.8164 29.3587 23.9719C29.6385 24.1062 29.8801 24.2011 30.3281 24.2547V24.9178C30.3281 25.1169 30.356 25.2664 30.4275 25.3748C30.4871 25.4653 30.6046 25.5731 30.8426 25.5731C31.1261 25.5731 31.1405 25.4142 31.1811 25.3193C31.2314 25.2008 31.1602 25.0302 31.1602 24.7977V24.2483C31.8002 24.1903 32.1115 24.0561 32.4544 23.8484C32.8433 23.6128 33.1896 23.3036 33.3909 22.9293C33.5909 22.5572 33.7158 22.1527 33.7158 21.7269C33.7156 21.3859 33.675 21.0666 33.5486 20.7779ZM31.16 21.0394C31.48 21.1269 31.6444 21.2261 31.7677 21.3356C31.9138 21.4653 32.0317 21.6497 32.0317 21.8992C32.0317 22.1358 31.8829 22.3377 31.7219 22.5163C31.6 22.6515 31.4801 22.7543 31.1601 22.8233V21.0394H31.16ZM29.9325 18.7059C29.8182 18.6008 29.7592 18.4413 29.7592 18.2185C29.7592 17.9837 29.8238 17.8176 29.9461 17.7109C30.0428 17.6265 30.072 17.552 30.328 17.4881V18.9497C30.072 18.8725 30.0248 18.7909 29.9325 18.7059Z" fill="#FFB727"/>
</svg>
