<svg width="54" height="54" viewBox="0 0 54 54" fill="none" xmlns="http://www.w3.org/2000/svg">
<rect x="0.812852" y="0.812852" width="52.3743" height="52.3743" rx="8.51673" fill="#246532"/>
<rect x="0.812852" y="0.812852" width="52.3743" height="52.3743" rx="8.51673" stroke="#246532" strokeWidth="1.6257"/>
<g clipPath="url(#clip0_340_659)">
<path d="M37.2678 22.2162C40.2923 22.2162 42.7529 19.7557 42.7529 16.7312C42.7529 13.7067 40.2923 11.2461 37.2678 11.2461C34.2433 11.2461 31.7828 13.7067 31.7828 16.7312C31.7828 19.7557 34.2433 22.2162 37.2678 22.2162ZM37.2678 21.465C35.9364 21.465 34.7325 20.9117 33.8716 20.024V19.9413C33.8716 18.7228 35.0949 18.0767 36.2783 17.8679C36.5817 18.0002 36.9163 18.074 37.2678 18.074C37.6194 18.074 37.9546 18.0002 38.2583 17.8677C39.4419 18.0763 40.6658 18.7225 40.6658 19.9413V20.022C39.8048 20.9108 38.6001 21.465 37.2678 21.465ZM37.2678 17.3228C36.3114 17.3228 35.5334 16.544 35.5334 15.5867C35.5334 14.6294 36.3114 13.8523 37.2678 13.8523C38.2242 13.8523 39.004 14.6303 39.004 15.5867C39.004 16.5431 38.2251 17.3228 37.2678 17.3228ZM37.2678 11.9973C39.8781 11.9973 42.0016 14.121 42.0016 16.7312C42.0026 17.6038 41.7608 18.4595 41.3034 19.2026C41.0228 18.3237 40.2328 17.6435 39.077 17.2911C39.497 16.8455 39.7553 16.2459 39.7553 15.5867C39.7553 14.2161 38.6394 13.101 37.2678 13.101C35.8963 13.101 34.7821 14.2161 34.7821 15.5867C34.7821 16.246 35.0402 16.8457 35.46 17.2912C34.3036 17.6438 33.5134 18.3248 33.2334 19.2045C32.7752 18.4609 32.533 17.6045 32.5339 16.7312C32.5339 14.1209 34.6576 11.9973 37.2678 11.9973H37.2678ZM23.8865 22.2162C26.911 22.2162 29.3716 19.7557 29.3716 16.7312C29.3716 13.7067 26.911 11.2461 23.8865 11.2461C20.862 11.2461 18.4014 13.7067 18.4014 16.7312C18.4014 19.7557 20.862 22.2162 23.8865 22.2162ZM23.8865 21.465C22.5542 21.465 21.3496 20.9109 20.4885 20.0221V19.9413C20.4885 18.7226 21.7124 18.0763 22.8961 17.8678C23.1998 18.0002 23.5346 18.0741 23.8866 18.0741C24.2385 18.0741 24.5726 18.0003 24.8761 17.868C26.0595 18.0767 27.2828 18.723 27.2828 19.9414V20.024C26.4219 20.9118 25.2179 21.465 23.8866 21.465L23.8865 21.465ZM23.8865 17.3228C22.9292 17.3228 22.1503 16.544 22.1503 15.5867C22.1503 14.6294 22.9292 13.8523 23.8865 13.8523C24.8438 13.8523 25.6209 14.6303 25.6209 15.5867C25.6209 16.5431 24.8429 17.3228 23.8865 17.3228ZM23.8865 11.9973C26.4968 11.9973 28.6203 14.121 28.6203 16.7312C28.6203 17.6371 28.3641 18.4842 27.9209 19.2045C27.6409 18.3248 26.8507 17.6438 25.6943 17.2912C26.1141 16.8457 26.3722 16.246 26.3722 15.5867C26.3722 14.2161 25.2571 13.101 23.8865 13.101C22.5159 13.101 21.3991 14.2161 21.3991 15.5867C21.3991 16.2459 21.6573 16.8455 22.0773 17.2911C20.9215 17.6435 20.1315 18.3237 19.8509 19.2026C19.3934 18.4595 19.1517 17.6038 19.1526 16.7312C19.1526 14.1209 21.2763 11.9973 23.8864 11.9973H23.8865ZM37.2678 24.6292C34.2433 24.6292 31.7828 27.0897 31.7828 30.1142C31.7828 33.1387 34.2433 35.5993 37.2678 35.5993C40.2923 35.5993 42.7529 33.1387 42.7529 30.1142C42.7529 27.0897 40.2923 24.6292 37.2678 24.6292ZM37.2678 34.848C35.9364 34.848 34.7325 34.2947 33.8716 33.407V33.3245C33.8716 32.1057 35.0929 31.459 36.2754 31.2497C36.5796 31.3828 36.9151 31.4572 37.2678 31.4572C37.6206 31.4572 37.9568 31.3827 38.2613 31.2495C39.444 31.4587 40.6659 32.1054 40.6659 33.3245V33.4052C39.8048 34.294 38.6001 34.848 37.2679 34.848H37.2678ZM37.2678 30.706C36.3114 30.706 35.5334 29.9271 35.5334 28.9698C35.5334 28.0125 36.3114 27.2353 37.2678 27.2353C38.2242 27.2353 39.004 28.0134 39.004 28.9698C39.004 29.9262 38.2251 30.706 37.2678 30.706ZM41.3035 32.5855C41.0231 31.7062 40.2336 31.0255 39.0783 30.6728C39.4976 30.2274 39.7553 29.6283 39.7553 28.9698C39.7553 27.5992 38.6394 26.4841 37.2678 26.4841C35.8963 26.4841 34.7821 27.5992 34.7821 28.9698C34.7821 29.6283 35.0397 30.2275 35.4587 30.673C34.3028 31.0259 33.5131 31.7072 33.2333 32.5874C32.7752 31.8439 32.5331 30.9876 32.534 30.1143C32.534 27.504 34.6576 25.3805 37.2678 25.3805C39.878 25.3805 42.0016 27.5041 42.0016 30.1143C42.0026 30.9868 41.7609 31.8425 41.3035 32.5855ZM28.0267 31.4325C27.9563 31.3621 27.8607 31.3226 27.7611 31.3226C27.6615 31.3226 27.566 31.3621 27.4956 31.4325L25.4016 33.5265L22.3543 36.5721C20.9958 37.9303 18.7854 37.9305 17.4269 36.5721C16.0686 35.2137 16.0686 33.0032 17.4269 31.6447L20.4719 28.5998L20.4725 28.5992L22.5666 26.5033C22.6015 26.4685 22.6291 26.4271 22.648 26.3815C22.6669 26.3359 22.6766 26.2871 22.6766 26.2378C22.6766 26.1885 22.6668 26.1396 22.6479 26.0941C22.6291 26.0485 22.6014 26.0071 22.5665 25.9723L19.4466 22.8523C19.4118 22.8174 19.3703 22.7898 19.3248 22.7709C19.2792 22.752 19.2303 22.7423 19.181 22.7423C19.1316 22.7423 19.0828 22.752 19.0372 22.7709C18.9916 22.7899 18.9502 22.8176 18.9154 22.8525L16.8213 24.9483L13.7759 27.9937C10.4043 31.3653 10.4043 36.8515 13.7759 40.2231C15.4619 41.9092 17.6759 42.7518 19.8906 42.7518C22.1053 42.7518 24.3196 41.9088 26.0052 40.2232L29.0524 37.1777L29.0525 37.1776L31.1466 35.0835C31.217 35.013 31.2566 34.9175 31.2566 34.8179C31.2566 34.7183 31.217 34.6228 31.1466 34.5523L28.0267 31.4325V31.4325ZM19.1812 23.6492L21.7699 26.238L20.2067 27.8025L17.618 25.2137L19.1812 23.6492ZM25.4742 39.692C22.3953 42.7708 17.3859 42.7708 14.3071 39.692C11.2284 36.6132 11.2284 31.6037 14.3071 28.5249L17.087 25.745L19.6758 28.3337L16.8958 31.1137C16.1017 31.9078 15.6644 32.9714 15.6644 34.1085C15.6644 35.2455 16.1017 36.3092 16.8958 37.1033C17.6899 37.8974 18.7536 38.3347 19.8906 38.3347C21.0277 38.3347 22.0913 37.8974 22.8854 37.1034L25.6671 34.3233L28.2558 36.912L25.4742 39.692ZM28.787 36.3809L26.1983 33.7922L27.7612 32.2293L30.3499 34.818L28.787 36.3809ZM25.2242 23.3167C25.2946 23.3872 25.3341 23.4828 25.334 23.5824C25.334 23.682 25.2944 23.7775 25.2239 23.8479L23.7375 25.3326C23.6642 25.4058 23.5681 25.4425 23.4721 25.4425C23.376 25.4425 23.2797 25.4057 23.2063 25.3323C23.1359 25.2618 23.0964 25.1662 23.0965 25.0666C23.0965 24.967 23.1362 24.8715 23.2066 24.8011L24.693 23.3164C24.7635 23.246 24.859 23.2065 24.9587 23.2066C25.0583 23.2066 25.1538 23.2462 25.2242 23.3167ZM28.6668 30.7928C28.5963 30.7224 28.5567 30.6269 28.5567 30.5273C28.5566 30.4276 28.5961 30.3321 28.6665 30.2616L30.1512 28.7752C30.2218 28.7059 30.317 28.6672 30.4159 28.6677C30.5149 28.6681 30.6097 28.7076 30.6797 28.7775C30.7498 28.8475 30.7894 28.9422 30.7899 29.0412C30.7905 29.1402 30.7519 29.2354 30.6827 29.3061L29.198 30.7925C29.1246 30.8659 29.0284 30.9027 28.9323 30.9027C28.8361 30.9027 28.7402 30.866 28.6668 30.7928ZM27.9543 26.0468C28.0247 26.1173 28.0642 26.2129 28.0642 26.3125C28.0641 26.4121 28.0245 26.5076 27.954 26.578L26.4676 28.0627C26.3943 28.1359 26.2983 28.1725 26.2022 28.1725C26.1061 28.1725 26.0098 28.1358 25.9364 28.0623C25.866 27.9919 25.8265 27.8963 25.8266 27.7967C25.8267 27.6971 25.8663 27.6016 25.9368 27.5312L27.4231 26.0465C27.4936 25.9761 27.5892 25.9366 27.6888 25.9367C27.7884 25.9367 27.8839 25.9764 27.9543 26.0468ZM29.0861 22.7158L27.5997 24.2005C27.5264 24.2737 27.4303 24.3103 27.3343 24.3103C27.2382 24.3103 27.1419 24.2736 27.0685 24.2002C26.9981 24.1297 26.9586 24.0341 26.9587 23.9345C26.9587 23.8349 26.9983 23.7394 27.0688 23.669L28.5552 22.1843C28.59 22.1489 28.6314 22.1207 28.6771 22.1014C28.7229 22.082 28.772 22.072 28.8216 22.0718C28.8713 22.0715 28.9205 22.0812 28.9664 22.1001C29.0123 22.119 29.054 22.1468 29.089 22.1819C29.1241 22.2171 29.1519 22.2588 29.1708 22.3047C29.1896 22.3506 29.1992 22.3998 29.1989 22.4495C29.1986 22.4991 29.1885 22.5482 29.1691 22.5939C29.1498 22.6396 29.1215 22.6811 29.0861 22.7158ZM29.7988 26.9304C29.7639 26.8955 29.7362 26.8541 29.7173 26.8086C29.6984 26.763 29.6887 26.7142 29.6887 26.6648C29.6887 26.6155 29.6984 26.5667 29.7173 26.5211C29.7362 26.4755 29.7639 26.4341 29.7988 26.3993L31.2852 24.9129C31.3201 24.878 31.3615 24.8503 31.407 24.8315C31.4526 24.8126 31.5014 24.8029 31.5508 24.8029C31.6001 24.8029 31.6489 24.8126 31.6945 24.8315C31.7401 24.8503 31.7815 24.878 31.8163 24.9129C31.8512 24.9478 31.8789 24.9892 31.8978 25.0347C31.9167 25.0803 31.9264 25.1291 31.9264 25.1785C31.9264 25.2278 31.9167 25.2766 31.8978 25.3222C31.8789 25.3678 31.8512 25.4092 31.8163 25.444L30.3299 26.9304C30.2566 27.0038 30.1604 27.0405 30.0643 27.0405C29.9682 27.0405 29.8721 27.0038 29.7988 26.9304Z" fill="white"/>
</g>
<defs>
<clipPath id="clip0_340_659">
<rect width="32" height="32" fill="white" transform="translate(11 11)"/>
</clipPath>
</defs>
</svg>
