<svg width="199" height="120" viewBox="0 0 199 120" fill="none" xmlns="http://www.w3.org/2000/svg">
<rect x="0.899902" y="0.5" width="197.4" height="119" rx="9.5" stroke="#D6D6D6"/>
<path d="M137.1 35.8937C134.343 37.1146 131.379 37.9292 128.252 38.3146C131.431 36.4271 133.877 33.4167 135.025 29.8604C132.05 31.6042 128.754 32.8854 125.248 33.5604C122.448 30.5917 118.454 28.75 114.029 28.75C105.529 28.75 98.6393 35.5792 98.6393 44C98.6393 45.1917 98.7789 46.3521 99.0414 47.4792C86.2539 46.8375 74.9123 40.7583 67.3248 31.5333C65.9914 33.7875 65.2414 36.4271 65.2414 39.2125C65.2414 44.5062 67.9518 49.1667 72.0852 51.9125C69.5623 51.8354 67.1873 51.1333 65.1081 50.0083C65.1081 50.0542 65.1081 50.1229 65.1081 50.1875C65.1081 57.5854 70.4143 63.7458 77.4477 65.1479C76.1623 65.5 74.8039 65.6958 73.4039 65.6958C72.4102 65.6958 71.4414 65.5833 70.5039 65.4146C72.4623 71.4604 78.1435 75.8792 84.8748 76.0104C79.6081 80.0937 72.9748 82.5396 65.7623 82.5396C64.5164 82.5396 63.2977 82.4688 62.0935 82.3229C68.9081 86.6375 76.9998 89.1667 85.6852 89.1667C113.987 89.1667 129.471 65.925 129.471 45.7625C129.471 45.1021 129.45 44.4438 129.419 43.7938C132.439 41.6604 135.044 38.9687 137.1 35.8937Z" fill="#03A9F4"/>
</svg>
