<svg width="40" height="40" viewBox="0 0 40 40" fill="none" xmlns="http://www.w3.org/2000/svg">
<g clipPath="url(#clip0_323_1340)">
<path d="M29.7532 5.13867H10.1421C7.43431 5.13867 5.23926 7.33373 5.23926 10.0415V29.6526C5.23926 32.3604 7.43431 34.5554 10.1421 34.5554H29.7532C32.461 34.5554 34.656 32.3604 34.656 29.6526V10.0415C34.656 7.33373 32.461 5.13867 29.7532 5.13867Z" fill="#B0BEC5"/>
<path fillRule="evenodd" clipRule="evenodd" d="M10.1421 5.13867H29.7532C32.4536 5.13867 34.656 7.3411 34.656 10.0415V12.4929H5.23926V10.0415C5.23926 7.3411 7.44168 5.13867 10.1421 5.13867Z" fill="#263238"/>
<path fillRule="evenodd" clipRule="evenodd" d="M26.6123 22.4133H26.9379V22.4324H26.9762L26.957 23.0644L26.9762 23.6964H26.9379V23.7156H26.6123C26.2484 23.7347 25.8271 23.7922 25.5207 24.0028C25.31 24.156 25.1759 24.3476 25.0802 24.5774C24.9653 24.8647 25.1376 25.8797 25.1759 26.2053C25.3866 27.6799 25.7313 29.7866 24.1609 30.7059C23.8928 30.8591 23.5863 30.974 23.2608 31.0506C22.8969 31.1272 22.5139 31.1655 22.15 31.1847L21.8053 31.2038L21.767 29.9207L22.1117 29.9015C22.399 29.9015 22.6862 29.8632 22.9543 29.8057C23.1267 29.7674 23.2991 29.71 23.4523 29.6334C23.5289 29.5951 23.5863 29.5376 23.663 29.461C24.2375 28.829 23.9694 27.2011 23.8545 26.3968C23.7587 25.7456 23.5863 24.7306 23.8353 24.1177C24.0077 23.7156 24.2567 23.3708 24.5822 23.1027C24.2375 22.8346 23.9885 22.4899 23.8353 22.0877C23.5672 21.4748 23.7587 20.4598 23.8545 19.8086C23.8928 19.5597 23.9311 19.3107 23.9502 19.0617C24.0268 18.3914 24.18 17.0125 23.4523 16.5912C23.2991 16.4954 23.1267 16.438 22.9543 16.4188C22.6862 16.3614 22.3798 16.3422 22.1117 16.3231L21.767 16.3039L21.8053 15.0208L22.15 15.0399C22.5139 15.0591 22.8969 15.0782 23.2608 15.174C23.5672 15.2506 23.8736 15.3463 24.1609 15.5187C25.7313 16.438 25.3866 18.5446 25.1759 20.0193C25.1376 20.3449 24.9653 21.3599 25.0802 21.6472C25.1759 21.877 25.31 22.0685 25.5207 22.2217C25.8271 22.4324 26.2293 22.509 26.6123 22.509V22.4133ZM15.3129 23.0644C15.6576 23.3325 15.9066 23.6773 16.0598 24.0794C16.3279 24.6923 16.1364 25.7073 16.0406 26.3585C16.0023 26.6074 15.964 26.8564 15.9449 27.1054C15.8683 27.7757 15.7151 29.1546 16.4428 29.5759C16.596 29.6717 16.7684 29.7291 16.9408 29.7483C17.2089 29.8057 17.5153 29.8249 17.7834 29.8441L18.1282 29.8632L18.0899 31.1464L17.7451 31.1272C17.3813 31.1081 16.9982 31.0889 16.6343 30.9931C16.3279 30.9165 16.0215 30.8208 15.7342 30.6484C14.1638 29.7291 14.5085 27.6225 14.7192 26.1478C14.7575 25.8222 14.9299 24.8072 14.8149 24.5199C14.7192 24.2901 14.5851 24.0986 14.3745 23.9454C14.068 23.7347 13.6659 23.6581 13.2828 23.6581H12.9572V23.639H12.9189L12.9381 23.007L12.9189 22.375H12.9572V22.3558H13.2828C13.6467 22.3367 14.068 22.2792 14.3745 22.0685C14.5851 21.9153 14.7192 21.7238 14.8149 21.494C14.9299 21.2067 14.7575 20.1917 14.7192 19.8661C14.5085 18.3914 14.1638 16.2848 15.7342 15.3655C16.0023 15.2123 16.3088 15.0974 16.6343 15.0208C16.9982 14.9442 17.3813 14.9059 17.7451 14.8867L18.0899 14.8676L18.1282 16.1507L17.7834 16.1699C17.4962 16.1699 17.2089 16.2082 16.9408 16.2656C16.7684 16.3039 16.596 16.3614 16.4428 16.438C16.3662 16.4763 16.3088 16.5337 16.2322 16.6103C15.6576 17.2423 15.9257 18.8702 16.0406 19.6746C16.1364 20.3257 16.3088 21.3408 16.0598 21.9536C15.8874 22.3558 15.6385 22.7005 15.3129 22.9687V23.0644Z" fill="#19252B"/>
<path d="M29.217 8.20288H28.1828C27.9713 8.20288 27.7998 8.37437 27.7998 8.58591V9.62009C27.7998 9.83164 27.9713 10.0031 28.1828 10.0031H29.217C29.4286 10.0031 29.6 9.83164 29.6 9.62009V8.58591C29.6 8.37437 29.4286 8.20288 29.217 8.20288Z" fill="#FF6F00"/>
<path d="M31.5534 8.20288H30.5193C30.3077 8.20288 30.1362 8.37437 30.1362 8.58591V9.62009C30.1362 9.83164 30.3077 10.0031 30.5193 10.0031H31.5534C31.765 10.0031 31.9365 9.83164 31.9365 9.62009V8.58591C31.9365 8.37437 31.765 8.20288 31.5534 8.20288Z" fill="#D50000"/>
<path d="M26.8806 8.20288H25.8464C25.6349 8.20288 25.4634 8.37437 25.4634 8.58591V9.62009C25.4634 9.83164 25.6349 10.0031 25.8464 10.0031H26.8806C27.0921 10.0031 27.2636 9.83164 27.2636 9.62009V8.58591C27.2636 8.37437 27.0921 8.20288 26.8806 8.20288Z" fill="#8BC34A"/>
</g>
<defs>
<clipPath id="clip0_323_1340">
<rect width="39.2223" height="39.2223" fill="white" transform="translate(0.335938 0.235718)"/>
</clipPath>
</defs>
</svg>
