<svg width="46" height="46" viewBox="0 0 46 46" fill="none" xmlns="http://www.w3.org/2000/svg">
<rect width="46" height="46" rx="23" fill="#F9F9FB"/>
<path d="M21.1562 28.6875L30 19.8438L28.5625 18.4375L21.1562 25.8438L17.4062 22.0938L16 23.5L21.1562 28.6875ZM23 35.5C21.2917 35.5 19.6771 35.1719 18.1562 34.5156C16.6354 33.8594 15.3073 32.9635 14.1719 31.8281C13.0365 30.6927 12.1406 29.3646 11.4844 27.8438C10.8281 26.3229 10.5 24.7083 10.5 23C10.5 21.2708 10.8281 19.6458 11.4844 18.125C12.1406 16.6042 13.0365 15.2812 14.1719 14.1562C15.3073 13.0312 16.6354 12.1406 18.1562 11.4844C19.6771 10.8281 21.2917 10.5 23 10.5C24.7292 10.5 26.3542 10.8281 27.875 11.4844C29.3958 12.1406 30.7188 13.0312 31.8438 14.1562C32.9688 15.2812 33.8594 16.6042 34.5156 18.125C35.1719 19.6458 35.5 21.2708 35.5 23C35.5 24.7083 35.1719 26.3229 34.5156 27.8438C33.8594 29.3646 32.9688 30.6927 31.8438 31.8281C30.7188 32.9635 29.3958 33.8594 27.875 34.5156C26.3542 35.1719 24.7292 35.5 23 35.5Z" fill="#246532"/>
</svg>
