<svg width="199" height="120" viewBox="0 0 199 120" fill="none" xmlns="http://www.w3.org/2000/svg">
<rect x="0.5" y="0.5" width="197.4" height="119" rx="9.5" stroke="#D6D6D6"/>
<path d="M136.7 87.0833C136.7 92.8375 132.037 97.5 126.283 97.5H72.1166C66.3645 97.5 61.7 92.8375 61.7 87.0833V32.9167C61.7 27.1625 66.3645 22.5 72.1166 22.5H126.283C132.037 22.5 136.7 27.1625 136.7 32.9167V87.0833Z" fill="#0288D1"/>
<path d="M74.2 49.5833H84.6166V85H74.2V49.5833ZM79.377 45.4167H79.3187C76.2104 45.4167 74.2 43.1 74.2 40.2062C74.2 37.25 76.2729 35 79.4375 35C82.6062 35 84.5583 37.25 84.6166 40.2062C84.6166 43.0979 82.6062 45.4167 79.377 45.4167ZM124.2 85H113.783V66.0437C113.783 61.4646 111.231 58.3396 107.133 58.3396C104.006 58.3396 102.315 60.4479 101.494 62.4854C101.194 63.2146 101.283 65.2312 101.283 66.25V85H90.8666V49.5833H101.283V55.0333C102.785 52.7083 105.137 49.5833 111.154 49.5833C118.608 49.5833 124.198 54.2708 124.198 64.7375L124.2 85Z" fill="white"/>
</svg>
