<svg width="54" height="54" viewBox="0 0 54 54" fill="none" xmlns="http://www.w3.org/2000/svg">
<rect x="0.812852" y="0.812852" width="52.3743" height="52.3743" rx="8.51673" fill="#246532"/>
<rect x="0.812852" y="0.812852" width="52.3743" height="52.3743" rx="8.51673" stroke="#246532" strokeWidth="1.6257"/>
<g clipPath="url(#clip0_340_667)">
<path d="M41.9342 12.5489C41.5069 12.1216 40.9209 11.8594 40.2734 11.8594H13.7265C12.4315 11.8594 11.3794 12.9116 11.3794 14.2065V35.6415C11.3794 36.9333 12.4316 37.9886 13.7265 37.9886H31.7557C31.9791 37.9886 32.1604 37.8073 32.1604 37.5839C32.1604 37.3606 31.9791 37.1793 31.7557 37.1793H13.7265C12.8783 37.1793 12.1887 36.4897 12.1887 35.6415V19.7166H41.8112V35.6415C41.8112 35.7581 41.7951 35.8746 41.7659 35.9944C41.7141 36.2113 41.8469 36.4314 42.0638 36.4832C42.1155 36.4964 42.1692 36.499 42.222 36.4911C42.2747 36.4832 42.3253 36.4648 42.3708 36.4371C42.4164 36.4094 42.4559 36.3728 42.4871 36.3296C42.5183 36.2864 42.5406 36.2374 42.5527 36.1854C42.5978 36.0077 42.6206 35.825 42.6207 35.6416V14.2065C42.6206 13.559 42.3584 12.973 41.9342 12.5489ZM19.7805 17.4827H14.2866C14.0632 17.4827 13.8819 17.3014 13.8819 17.0781C13.8819 16.8547 14.0632 16.6734 14.2866 16.6734H19.7806C20.0039 16.6734 20.1852 16.8547 20.1852 17.0781C20.1852 17.3014 20.0039 17.4827 19.7805 17.4827ZM22.3931 15.4237H14.2866C14.0632 15.4237 13.8819 15.2424 13.8819 15.0191C13.8819 14.7957 14.0632 14.6144 14.2866 14.6144H22.3931C22.6165 14.6144 22.7978 14.7957 22.7978 15.0191C22.7978 15.2424 22.6165 15.4237 22.3931 15.4237ZM29.768 17.4827C28.8324 17.4827 28.0716 16.7219 28.0716 15.7896C28.0716 14.8539 28.8324 14.0931 29.768 14.0931C30.7004 14.0931 31.4612 14.8539 31.4612 15.7896C31.4612 16.7219 30.7004 17.4827 29.768 17.4827ZM33.9831 17.4827C33.0475 17.4827 32.2867 16.7219 32.2867 15.7896C32.2867 14.8539 33.0475 14.0931 33.9831 14.0931C34.9155 14.0931 35.6731 14.8539 35.6731 15.7896C35.6731 16.7219 34.9155 17.4827 33.9831 17.4827ZM38.1951 17.4827C37.2627 17.4827 36.4986 16.7219 36.4986 15.7896C36.4986 14.8539 37.2626 14.0931 38.1951 14.0931C39.1307 14.0931 39.8882 14.8539 39.8882 15.7896C39.8882 16.7219 39.1307 17.4827 38.1951 17.4827Z" fill="white"/>
<path d="M30.6518 15.7894C30.6518 16.2782 30.2536 16.6732 29.768 16.6732C29.2792 16.6732 28.8809 16.2782 28.8809 15.7894C28.8809 15.3005 29.2791 14.9023 29.768 14.9023C30.2536 14.9023 30.6518 15.3006 30.6518 15.7894ZM34.8637 15.7894C34.8637 16.2782 34.4687 16.6732 33.9832 16.6732C33.4943 16.6732 33.0961 16.2782 33.0961 15.7894C33.0961 15.3005 33.4943 14.9023 33.9832 14.9023C34.4687 14.9023 34.8637 15.3006 34.8637 15.7894ZM39.0789 15.7894C39.0789 16.2782 38.6839 16.6732 38.1951 16.6732C37.7062 16.6732 37.308 16.2782 37.308 15.7894C37.308 15.3005 37.7062 14.9023 38.1951 14.9023C38.6839 14.9023 39.0789 15.3006 39.0789 15.7894ZM14.7697 23.1558H39.2291C39.3364 23.1558 39.4394 23.1131 39.5153 23.0373C39.5912 22.9614 39.6338 22.8584 39.6338 22.7511C39.6338 22.6438 39.5912 22.5408 39.5153 22.4649C39.4394 22.389 39.3364 22.3464 39.2291 22.3464H14.7697C14.6624 22.3464 14.5595 22.389 14.4836 22.4649C14.4077 22.5408 14.3651 22.6438 14.3651 22.7511C14.3651 22.8584 14.4077 22.9614 14.4836 23.0373C14.5595 23.1131 14.6624 23.1558 14.7697 23.1558ZM39.6338 26.1904C39.6338 26.0831 39.5912 25.9801 39.5153 25.9042C39.4394 25.8284 39.3364 25.7857 39.2291 25.7857H14.7697C14.6624 25.7857 14.5595 25.8284 14.4836 25.9042C14.4077 25.9801 14.3651 26.0831 14.3651 26.1904C14.3651 26.2977 14.4077 26.4007 14.4836 26.4766C14.5595 26.5525 14.6624 26.5951 14.7697 26.5951H39.2291C39.2823 26.5951 39.3349 26.5846 39.384 26.5643C39.4331 26.544 39.4777 26.5142 39.5153 26.4766C39.5529 26.439 39.5827 26.3944 39.603 26.3453C39.6233 26.2962 39.6338 26.2436 39.6338 26.1904ZM14.7697 29.225C14.6624 29.225 14.5595 29.2677 14.4836 29.3436C14.4077 29.4195 14.3651 29.5224 14.3651 29.6297C14.3651 29.737 14.4077 29.84 14.4836 29.9159C14.5595 29.9918 14.6624 30.0344 14.7697 30.0344H26.1703C26.2776 30.0344 26.3806 29.9918 26.4565 29.9159C26.5324 29.84 26.575 29.737 26.575 29.6297C26.575 29.5224 26.5324 29.4195 26.4565 29.3436C26.3806 29.2677 26.2776 29.225 26.1703 29.225H14.7697ZM42.1059 37.7522L39.5127 35.159L39.817 34.8547C40.5422 34.1295 40.1504 32.8798 39.1404 32.7018L33.6853 31.7273C32.8112 31.5719 32.0536 32.3359 32.2091 33.2068L33.1803 38.6586C33.3616 39.6719 34.608 40.0637 35.3364 39.3352L35.6407 39.0309L38.2339 41.6241C38.917 42.3104 40.0339 42.3104 40.7203 41.6241L42.1059 40.2385C42.7889 39.5554 42.7889 38.4385 42.1059 37.7522ZM41.5328 39.6687L40.1472 41.0511C39.7878 41.4105 39.163 41.4105 38.8069 41.0511L35.9256 38.173C35.8511 38.0986 35.7475 38.0532 35.6407 38.0532C35.5339 38.0532 35.4302 38.0985 35.3526 38.173L34.7634 38.7655C34.4979 39.031 34.0446 38.8853 33.9767 38.5162L33.0054 33.0643C32.9504 32.7471 33.2224 32.4687 33.5429 32.5237L38.9979 33.4982C39.367 33.5629 39.5094 34.0162 39.244 34.2817L38.6516 34.8741C38.5771 34.9486 38.535 35.0522 38.535 35.159C38.535 35.2658 38.5771 35.3694 38.6516 35.4471L41.5329 38.3252C41.9019 38.6943 41.9019 39.2964 41.5328 39.6687ZM29.4656 32.9351H28.5017C28.3943 32.9351 28.2914 32.9777 28.2155 33.0536C28.1396 33.1295 28.097 33.2325 28.097 33.3398C28.097 33.4471 28.1396 33.55 28.2155 33.6259C28.2914 33.7018 28.3943 33.7445 28.5017 33.7445H29.4656C29.6891 33.7445 29.8703 33.5633 29.8703 33.3398C29.8703 33.1162 29.6892 32.9351 29.4656 32.9351ZM31.0271 30.5468C31.0647 30.5093 31.0945 30.4647 31.1149 30.4156C31.1352 30.3665 31.1457 30.3139 31.1457 30.2607C31.1457 30.2076 31.1352 30.155 31.1149 30.1059C31.0945 30.0568 31.0647 30.0122 31.0271 29.9746L30.3455 29.293C30.1874 29.1349 29.9313 29.1349 29.7732 29.293C29.6152 29.451 29.6152 29.7072 29.7732 29.8652L30.4549 30.5468C30.4924 30.5844 30.537 30.6143 30.5861 30.6346C30.6352 30.6549 30.6878 30.6654 30.741 30.6654C30.7941 30.6654 30.8468 30.6549 30.8958 30.6346C30.9449 30.6143 30.9895 30.5844 31.0271 30.5468ZM33.8201 29.39C33.9274 29.39 34.0303 29.3474 34.1062 29.2715C34.1821 29.1956 34.2247 29.0927 34.2247 28.9853V28.0214C34.2247 27.9141 34.1821 27.8111 34.1062 27.7352C34.0303 27.6594 33.9274 27.6167 33.8201 27.6167C33.7127 27.6167 33.6098 27.6594 33.5339 27.7352C33.458 27.8111 33.4154 27.9141 33.4154 28.0214V28.9853C33.4154 29.0385 33.4258 29.0911 33.4462 29.1402C33.4665 29.1893 33.4963 29.2339 33.5339 29.2715C33.5715 29.3091 33.6161 29.3389 33.6652 29.3592C33.7143 29.3796 33.7669 29.39 33.8201 29.39Z" fill="white"/>
</g>
<defs>
<clipPath id="clip0_340_667">
<rect width="32" height="32" fill="white" transform="translate(11 11)"/>
</clipPath>
</defs>
</svg>
