<?xml version="1.0" standalone="no"?>
<!DOCTYPE svg PUBLIC "-//W3C//DTD SVG 20010904//EN"
 "http://www.w3.org/TR/2001/REC-SVG-20010904/DTD/svg10.dtd">
<svg version="1.0" xmlns="http://www.w3.org/2000/svg"
 width="512.000000pt" height="512.000000pt" viewBox="0 0 512.000000 512.000000"
 preserveAspectRatio="xMidYMid meet">

<g transform="translate(0.000000,512.000000) scale(0.100000,-0.100000)"
fill="black" stroke="none">
<path d="M2857 5101 c-109 -36 -191 -108 -241 -211 -29 -60 -31 -73 -31 -170
0 -101 2 -109 35 -175 19 -39 37 -73 38 -77 2 -5 -5 -8 -15 -8 -34 0 -118 -47
-170 -94 -95 -85 -139 -213 -131 -376 5 -98 21 -136 75 -177 l36 -28 509 -3
c491 -2 509 -2 547 18 22 11 50 34 63 52 22 31 23 42 23 183 0 146 -1 152 -29
210 -17 33 -53 83 -80 111 -48 47 -146 104 -180 104 -22 0 -20 14 8 58 67 101
74 261 18 375 -42 85 -129 167 -209 197 -82 31 -192 36 -266 11z m230 -159
c169 -87 178 -331 15 -428 -63 -38 -115 -48 -182 -33 -180 39 -254 275 -127
407 32 34 71 58 117 73 40 13 133 3 177 -19z m249 -657 c30 -19 60 -49 79 -79
28 -46 30 -57 33 -163 l4 -113 -475 0 c-538 0 -487 -9 -487 90 0 139 43 224
140 273 l55 28 301 -3 301 -3 49 -30z"/>
<path d="M4397 5110 c-58 -15 -135 -57 -181 -101 -72 -65 -126 -192 -126 -292
0 -54 29 -149 60 -200 35 -57 35 -57 13 -57 -36 0 -140 -58 -185 -104 -26 -26
-62 -76 -79 -112 -30 -60 -33 -77 -37 -179 -6 -142 1 -176 41 -222 50 -57 75
-63 271 -63 l175 0 20 26 c26 33 27 65 2 95 -18 23 -26 24 -188 29 l-168 5 -3
85 c-4 108 10 159 61 217 72 81 80 83 415 83 321 0 328 -1 396 -60 65 -57 80
-100 81 -220 l0 -105 -168 -5 c-162 -5 -170 -6 -188 -29 -25 -30 -24 -62 2
-95 l20 -26 175 0 c196 0 221 6 271 63 40 46 46 79 41 214 -6 139 -29 202
-105 283 -53 58 -154 120 -195 120 -23 0 -23 3 7 48 75 114 82 272 16 399 -61
120 -190 202 -327 208 -44 3 -96 0 -117 -5z m172 -155 c61 -21 104 -58 137
-117 75 -136 3 -308 -147 -352 -65 -20 -73 -20 -138 0 -60 18 -123 70 -152
126 -99 194 95 416 300 343z"/>
<path d="M1533 4011 c-68 -18 -131 -72 -467 -410 -343 -344 -349 -350 -342
-383 3 -18 16 -41 27 -50 36 -30 66 -22 122 32 l52 49 232 -231 232 -232 -182
-185 c-241 -245 -309 -350 -369 -569 -32 -116 -32 -364 0 -482 89 -327 334
-589 642 -688 117 -37 182 -47 320 -46 111 1 152 6 231 27 217 57 333 132 575
369 l180 177 232 -232 233 -233 -183 -180 c-101 -99 -214 -205 -253 -236 -607
-482 -1474 -475 -2066 18 -402 334 -619 823 -596 1339 17 373 146 701 390 992
84 99 95 135 57 173 -36 36 -78 27 -133 -32 -337 -359 -512 -893 -456 -1396
43 -395 211 -756 484 -1040 170 -178 324 -290 528 -387 607 -287 1307 -216
1849 187 120 89 1077 1045 1114 1112 37 68 40 167 6 240 -28 62 -344 382 -412
417 -63 33 -186 34 -247 1 -66 -34 -163 -134 -163 -167 0 -38 15 -60 49 -74
37 -16 57 -6 127 60 29 26 64 51 78 55 63 16 85 1 263 -179 183 -184 198 -207
173 -272 -12 -31 -486 -515 -505 -515 -5 0 -112 102 -237 227 l-227 227 89 92
c69 69 90 98 90 118 0 60 -46 95 -97 75 -16 -6 -172 -153 -348 -329 -189 -187
-343 -333 -377 -354 -177 -112 -396 -157 -597 -122 -424 74 -714 439 -688 869
8 128 35 226 95 342 46 88 56 100 548 595 332 334 509 520 525 550 34 64 34
186 0 250 -36 69 -354 384 -414 410 -54 24 -136 33 -184 21z m104 -151 c15 -6
103 -86 195 -178 175 -174 189 -195 173 -259 -4 -18 -96 -117 -258 -281 l-252
-252 -227 227 c-126 125 -228 232 -228 238 0 16 471 482 505 499 35 19 54 20
92 6z"/>
<path d="M4373 3506 c-109 -35 -215 -133 -254 -234 -44 -113 -29 -264 38 -362
l23 -35 -22 -9 c-145 -58 -202 -105 -255 -214 l-38 -76 0 -141 c0 -141 0 -142
29 -179 58 -77 50 -76 596 -76 451 0 488 2 526 19 85 39 108 97 102 260 -3 99
-8 125 -30 173 -51 111 -124 181 -229 219 l-57 21 33 62 c19 34 39 90 46 127
31 169 -68 353 -229 427 -69 32 -209 41 -279 18z m201 -148 c25 -8 59 -31 88
-59 153 -153 56 -406 -161 -417 -57 -3 -74 1 -121 25 -125 64 -173 209 -111
331 23 44 80 98 125 118 39 17 126 18 180 2z m264 -662 c96 -54 132 -126 132
-267 0 -84 -1 -89 -22 -94 -13 -3 -228 -4 -478 -3 l-455 3 0 110 c0 102 2 113
28 157 15 26 43 59 62 74 65 50 96 54 400 51 l280 -2 53 -29z"/>
<path d="M2805 3132 c-16 -11 -104 -95 -195 -186 l-165 -166 -66 66 c-77 76
-122 91 -178 58 -61 -36 -62 -43 -59 -473 l3 -390 29 -30 c34 -36 84 -48 124
-32 15 7 106 90 202 186 l175 175 66 -66 c77 -76 122 -91 178 -58 61 36 62 42
59 474 l-3 390 -31 31 c-40 40 -96 48 -139 21z m25 -464 l0 -271 -59 56 c-51
49 -65 57 -97 57 -35 0 -48 -11 -211 -172 l-173 -172 0 278 0 279 59 -56 c51
-49 65 -57 97 -57 35 0 48 10 203 165 91 91 169 165 174 165 4 0 7 -122 7
-272z"/>
</g>
</svg>
