<svg width="36" height="36" viewBox="0 0 36 36" fill="none" xmlns="http://www.w3.org/2000/svg">
<rect x="0.611328" y="1" width="34" height="34" rx="17" stroke="#0D0D0D"/>
<path d="M23.617 26.6724C24.8471 26.1972 25.8195 25.2247 26.2948 23.9947C26.5198 23.412 26.6772 22.7472 26.72 21.7747C26.7301 21.5469 26.738 21.3557 26.7453 21.1639V14.6666C26.7402 14.5311 26.7346 14.3899 26.7273 14.2313C26.6846 13.2588 26.5271 12.5907 26.3021 12.0113C26.0698 11.3966 25.7121 10.846 25.2441 10.3887C24.7863 9.92357 24.2323 9.56249 23.6243 9.33414C23.0416 9.10916 22.3768 8.95168 21.4044 8.90893C20.4246 8.86225 20.1136 8.85156 17.6293 8.85156C15.145 8.85156 14.8334 8.86225 13.8576 8.90499C12.8851 8.94774 12.2169 9.10522 11.6376 9.3302C11.0229 9.56249 10.4723 9.9202 10.0144 10.3887C9.54986 10.8465 9.18878 11.4005 8.95987 12.008C8.73489 12.5907 8.57741 13.2555 8.53466 14.2279C8.48798 15.2077 8.47729 15.5187 8.47729 18.0036C8.47729 20.4884 8.48798 20.7994 8.53073 21.7753C8.57347 22.7477 8.73095 23.4165 8.95649 23.9952C9.18878 24.61 9.54986 25.1606 10.0144 25.6184C10.4723 26.083 11.0263 26.4446 11.6343 26.673C12.2169 26.898 12.8817 27.0554 13.8542 27.0982C14.83 27.1415 15.1411 27.1522 17.6259 27.1522C20.1108 27.1522 20.4212 27.1415 21.3976 27.0982C22.3701 27.0554 23.0377 26.8974 23.617 26.6724ZM17.6327 25.5071C15.1906 25.5071 14.8975 25.4964 13.9358 25.4536C13.042 25.4142 12.5595 25.2641 12.2378 25.1392C11.8412 24.9924 11.4802 24.7601 11.1866 24.4564C10.8828 24.1594 10.65 23.8023 10.5038 23.4052C10.3789 23.0835 10.2287 22.597 10.1894 21.7072C10.1466 20.7421 10.1359 20.4524 10.1359 18.0103C10.1359 15.5682 10.1466 15.2752 10.1894 14.314C10.2287 13.4203 10.3789 12.9377 10.5038 12.616C10.6506 12.2189 10.8828 11.8578 11.1905 11.5648C11.4869 11.261 11.8446 11.0288 12.2411 10.882C12.5628 10.7571 13.0494 10.6069 13.9391 10.5676C14.9043 10.5248 15.1939 10.5141 17.6355 10.5141C20.077 10.5141 20.3706 10.5248 21.3324 10.5676C22.2261 10.6069 22.7087 10.7571 23.0304 10.882C23.4269 11.0288 23.788 11.261 24.081 11.5648C24.3847 11.8617 24.6176 12.2189 24.7638 12.616C24.8887 12.9377 25.0389 13.4236 25.0782 14.314C25.121 15.2791 25.1317 15.5688 25.1317 18.0103C25.1317 20.4519 25.121 20.7381 25.0782 21.7033C25.0389 22.597 24.8887 23.0796 24.7638 23.4013C24.4562 24.1988 23.8234 24.8316 23.0265 25.1387C22.7047 25.2635 22.2188 25.4137 21.3285 25.4531C20.3633 25.4958 20.0742 25.5071 17.6327 25.5071Z" fill="#0D0D0D"/>
<path d="M17.6295 13.3016C15.0338 13.3016 12.9281 15.4074 12.9281 18.003C12.9281 20.5987 15.0338 22.7045 17.6295 22.7045C20.2251 22.7045 22.3303 20.5987 22.3303 18.003C22.3303 15.4074 20.2246 13.3016 17.6295 13.3016ZM17.6295 21.052C15.9455 21.052 14.5799 19.6864 14.5799 18.0025C14.5799 16.3185 15.9455 14.9529 17.6295 14.9529C19.3134 14.9529 20.679 16.3185 20.679 18.0025C20.679 19.6864 19.3134 21.052 17.6295 21.052Z" fill="#0D0D0D"/>
<path d="M23.6126 13.1157C23.6126 12.5094 23.1211 12.0184 22.5147 12.0184C21.9084 12.0184 21.4174 12.51 21.4174 13.1157C21.4174 13.7215 21.909 14.2131 22.5147 14.2131C23.1205 14.2131 23.6126 13.7221 23.6126 13.1157Z" fill="#0D0D0D"/>
</svg>
