<svg width="36" height="36" viewBox="0 0 36 36" fill="none" xmlns="http://www.w3.org/2000/svg">
<rect x="0.611328" y="1" width="34" height="34" rx="17" stroke="#0D0D0D"/>
<path d="M13.5434 25.1264V15.5078H10.3492V25.1264H13.5434ZM11.9469 14.1948C13.0606 14.1948 13.7539 13.4562 13.7539 12.5331C13.7331 11.5891 13.0606 10.8711 11.9681 10.8711C10.8749 10.8711 10.1609 11.5891 10.1609 12.5331C10.1609 13.4561 10.854 14.1947 11.926 14.1947L11.9469 14.1948ZM15.3114 25.1264H18.5054V19.7555C18.5054 19.4684 18.5263 19.1806 18.6107 18.9755C18.8415 18.4009 19.367 17.8061 20.2496 17.8061C21.4051 17.8061 21.8677 18.6881 21.8677 19.9812V25.1264H25.0616V19.6114C25.0616 16.6571 23.486 15.2823 21.3845 15.2823C19.6615 15.2823 18.9048 16.2461 18.4844 16.9026H18.5057V15.5081H15.3116C15.3533 16.4105 15.3114 25.1264 15.3114 25.1264Z" fill="#0D0D0D"/>
</svg>
