<svg width="413" height="361" viewBox="0 0 413 361" fill="none" xmlns="http://www.w3.org/2000/svg">
<path d="M184.645 138.709H18.446V261.31H184.645V138.709Z" fill="#F5F9FF"/>
<path d="M184.645 138.709H18.446V154.001H184.645V138.709Z" fill="#D0DBF7"/>
<path d="M31.788 146.706C31.788 148.639 30.221 150.205 28.289 150.205C26.356 150.205 24.79 148.638 24.79 146.706C24.79 144.774 26.357 143.207 28.289 143.207C30.221 143.207 31.788 144.774 31.788 146.706Z" fill="#F2F2F2"/>
<path d="M43.571 146.706C43.571 148.639 42.004 150.205 40.072 150.205C38.14 150.205 36.573 148.638 36.573 146.706C36.573 144.774 38.14 143.207 40.072 143.207C42.004 143.207 43.571 144.774 43.571 146.706Z" fill="#F2F2F2"/>
<path d="M55.354 146.706C55.354 148.639 53.787 150.205 51.855 150.205C49.922 150.205 48.356 148.638 48.356 146.706C48.356 144.774 49.923 143.207 51.855 143.207C53.788 143.207 55.354 144.774 55.354 146.706Z" fill="#F2F2F2"/>
<path d="M129.92 187.347L121.564 178.992L101.546 199.009L81.5271 178.992L73.1711 187.347L93.1901 207.365L73.1711 227.382L81.5271 235.738L101.546 215.72L121.564 235.738L129.92 227.382L109.901 207.365L129.92 187.347Z" fill="#E3EBFC"/>
<path d="M388.669 61.3848H222.47V183.986H388.669V61.3848Z" fill="#F5F9FF"/>
<path d="M388.669 61.3848H222.47V76.6768H388.669V61.3848Z" fill="#D0DBF7"/>
<path d="M235.812 69.3818C235.812 71.3148 234.245 72.8808 232.313 72.8808C230.38 72.8808 228.814 71.3138 228.814 69.3818C228.814 67.4498 230.381 65.8828 232.313 65.8828C234.245 65.8828 235.812 67.4488 235.812 69.3818Z" fill="#F2F2F2"/>
<path d="M247.595 69.3818C247.595 71.3148 246.028 72.8808 244.096 72.8808C242.163 72.8808 240.597 71.3138 240.597 69.3818C240.597 67.4498 242.164 65.8828 244.096 65.8828C246.028 65.8828 247.595 67.4488 247.595 69.3818Z" fill="#F2F2F2"/>
<path d="M259.378 69.3818C259.378 71.3148 257.811 72.8808 255.879 72.8808C253.946 72.8808 252.38 71.3138 252.38 69.3818C252.38 67.4498 253.947 65.8828 255.879 65.8828C257.811 65.8828 259.378 67.4488 259.378 69.3818Z" fill="#F2F2F2"/>
<path d="M333.943 110.022L325.588 101.666L305.569 121.684L285.55 101.666L277.195 110.022L297.213 130.039L277.195 150.057L285.55 158.412L305.569 138.395L325.588 158.412L333.943 150.057L313.925 130.039L333.943 110.022Z" fill="#E3EBFC"/>
<path d="M205.348 360.477C317.553 360.477 408.513 352.618 408.513 342.922C408.513 333.227 317.553 325.367 205.348 325.367C93.1432 325.367 2.18311 333.227 2.18311 342.922C2.18311 352.618 93.1432 360.477 205.348 360.477Z" fill="#EDF0FC"/>
<path d="M155.799 63.4207C154.252 60.1777 154.334 57.0357 156.044 53.9947L156.875 52.5457C157.688 51.2217 158.207 50.2037 158.433 49.4907C158.658 48.7787 158.598 48.0557 158.249 47.3247C157.369 45.4807 155.386 45.2947 152.303 46.7657C150.873 47.4477 149.485 48.3447 148.141 49.4537C146.798 50.5627 145.609 51.7937 144.575 53.1447L141.072 45.8017C143.359 43.0717 146.316 40.8417 149.94 39.1127C153.85 37.2467 157.341 36.5867 160.41 37.1327C163.48 37.6787 165.705 39.3967 167.085 42.2897C167.859 43.9107 168.119 45.3967 167.866 46.7467C167.612 48.0977 166.906 49.8097 165.75 51.8827C164.984 53.3027 164.439 54.3717 164.119 55.0907C163.799 55.8097 163.639 56.5187 163.643 57.2197C163.646 57.9217 163.844 58.6857 164.238 59.5107L164.671 60.4177L156.278 64.4217L155.799 63.4207ZM162.226 74.3747C160.981 73.9347 160.063 73.0937 159.471 71.8547C158.865 70.5837 158.785 69.3337 159.234 68.1047C159.681 66.8767 160.542 65.9587 161.813 65.3527C163.053 64.7607 164.311 64.6777 165.587 65.1027C166.863 65.5297 167.797 66.3607 168.388 67.6007C168.98 68.8407 169.039 70.0907 168.567 71.3497C168.094 72.6087 167.238 73.5347 165.998 74.1257C164.728 74.7317 163.469 74.8157 162.226 74.3747Z" fill="#E2E6FF"/>
<path d="M196.546 35.4099C198.636 30.4199 202.246 27.3609 207.376 26.2309L209.837 25.7099C212.138 25.2949 213.803 24.8559 214.83 24.3949C215.855 23.9339 216.606 23.1409 217.078 22.0159C218.266 19.1789 216.486 16.7659 211.742 14.7779C209.541 13.8559 207.143 13.1969 204.549 12.8009C201.957 12.4039 199.381 12.3049 196.828 12.4979L201.561 1.19893C206.921 1.02893 212.39 2.11293 217.966 4.44893C223.983 6.96893 228.225 10.2269 230.691 14.2199C233.158 18.2149 233.459 22.4369 231.595 26.8879C230.55 29.3829 229.143 31.1649 227.373 32.2349C225.601 33.3039 222.971 34.2289 219.483 35.0099C217.119 35.5729 215.373 36.0349 214.244 36.3959C213.116 36.7579 212.159 37.2899 211.375 37.9969C210.589 38.7039 209.931 39.6929 209.399 40.9629L208.815 42.3579L195.901 36.9489L196.546 35.4099ZM190.691 53.6129C189.936 51.7739 189.96 49.8999 190.759 47.9919C191.578 46.0359 192.902 44.6929 194.733 43.9639C196.56 43.2339 198.454 43.2799 200.41 44.0989C202.318 44.8979 203.673 46.2279 204.476 48.0869C205.276 49.9469 205.279 51.8309 204.48 53.7379C203.681 55.6449 202.336 56.9659 200.449 57.6989C198.561 58.4309 196.663 58.3979 194.755 57.5989C192.799 56.7809 191.442 55.4509 190.691 53.6129Z" fill="#E2E6FF"/>
<path d="M406.055 215.37V209.629H402.238V215.37H396.497V219.187H402.238V224.928H406.055V219.187H411.797V215.37H406.055Z" fill="#CAD2F9"/>
<path d="M370.005 31.5998V22.8438H364.184V31.5998H355.428V37.4208H364.184V46.1768H370.005V37.4208H378.762V31.5998H370.005Z" fill="#CAD2F9"/>
<path d="M354.138 201.079V196.898H351.358V201.079H347.177V203.859H351.358V208.04H354.138V203.859H358.319V201.079H354.138Z" fill="#CAD2F9"/>
<path d="M115.711 55.6497V51.4688H112.931V55.6497H108.75V58.4297H112.931V62.6107H115.711V58.4297H119.892V55.6497H115.711Z" fill="#CAD2F9"/>
<path d="M83.4799 27.9979V22.2559H79.6629V27.9979H73.9219V31.8139H79.6629V37.5549H83.4799V31.8139H89.2219V27.9979H83.4799Z" fill="#CAD2F9"/>
<path d="M272.01 39.7182C272.01 40.9242 271.033 41.9012 269.827 41.9012C268.621 41.9012 267.644 40.9232 267.644 39.7182C267.644 38.5122 268.622 37.5352 269.827 37.5352C271.033 37.5352 272.01 38.5122 272.01 39.7182Z" fill="#EEF1FF"/>
<path d="M280.951 2.183C280.951 3.389 279.973 4.366 278.768 4.366C277.562 4.366 276.585 3.388 276.585 2.183C276.585 0.976999 277.562 0 278.768 0C279.973 0 280.951 0.977999 280.951 2.183Z" fill="#EEF1FF"/>
<path d="M323.602 24.2621C325.885 24.2621 327.736 22.4113 327.736 20.1281C327.736 17.845 325.885 15.9941 323.602 15.9941C321.319 15.9941 319.468 17.845 319.468 20.1281C319.468 22.4113 321.319 24.2621 323.602 24.2621Z" fill="#EEF1FF"/>
<path d="M410.696 175.421C410.696 176.627 409.719 177.604 408.513 177.604C407.307 177.604 406.33 176.626 406.33 175.421C406.33 174.215 407.307 173.238 408.513 173.238C409.719 173.237 410.696 174.215 410.696 175.421Z" fill="#EEF1FF"/>
<path d="M408.513 243.585C408.513 244.791 407.535 245.768 406.33 245.768C405.124 245.768 404.147 244.79 404.147 243.585C404.147 242.379 405.124 241.402 406.33 241.402C407.536 241.402 408.513 242.379 408.513 243.585Z" fill="#EEF1FF"/>
<path d="M76.105 124.367C76.105 125.573 75.127 126.55 73.922 126.55C72.716 126.55 71.739 125.573 71.739 124.367C71.739 123.161 72.716 122.184 73.922 122.184C75.128 122.184 76.105 123.161 76.105 124.367Z" fill="#EEF1FF"/>
<path d="M38.1069 37.9535C40.39 37.9535 42.2409 36.1027 42.2409 33.8195C42.2409 31.5364 40.39 29.6855 38.1069 29.6855C35.8238 29.6855 33.9729 31.5364 33.9729 33.8195C33.9729 36.1027 35.8238 37.9535 38.1069 37.9535Z" fill="#EEF1FF"/>
<path d="M119.633 10.4955C119.633 11.7015 118.656 12.6785 117.45 12.6785C116.244 12.6785 115.267 11.7015 115.267 10.4955C115.267 9.28951 116.245 8.3125 117.45 8.3125C118.656 8.3125 119.633 9.28951 119.633 10.4955Z" fill="#EEF1FF"/>
<path d="M4.366 141.423C4.366 142.629 3.389 143.606 2.183 143.606C0.976999 143.606 0 142.628 0 141.423C0 140.217 0.977999 139.24 2.183 139.24C3.388 139.24 4.366 140.217 4.366 141.423Z" fill="#EEF1FF"/>
<path d="M4.366 257.769C4.366 258.975 3.389 259.952 2.183 259.952C0.976999 259.952 0 258.975 0 257.769C0 256.563 0.977999 255.586 2.183 255.586C3.388 255.585 4.366 256.563 4.366 257.769Z" fill="#EEF1FF"/>
<path d="M322.68 323.511C322.68 323.511 286.502 251.182 384.63 203.176C384.63 203.176 392.152 306.244 322.68 323.511Z" fill="#A4DB74"/>
<path d="M326.847 314.295C326.822 303.955 328.983 293.683 331.96 283.773C332.343 282.534 332.683 281.279 333.101 280.052L334.428 276.395L335.762 272.737L337.268 269.149C339.207 264.328 341.642 259.741 343.941 255.087L347.853 248.36C349.114 246.091 350.546 243.929 351.999 241.782C353.467 239.645 354.858 237.457 356.387 235.367C357.947 233.299 359.532 231.25 361.126 229.211L363.514 226.153L366.08 223.241L371.248 217.464C372.094 216.49 373.037 215.602 373.961 214.7L376.742 212.005C378.6 210.215 380.476 208.447 382.363 206.699C380.743 208.711 379.112 210.703 377.463 212.673L374.983 215.618C374.155 216.596 373.309 217.559 372.562 218.605L367.885 224.703L365.529 227.729L363.335 230.875C361.882 232.978 360.42 235.071 358.933 237.144C357.494 239.25 356.195 241.451 354.82 243.598C351.966 247.83 349.62 252.364 347.059 256.767C342.276 265.763 338.06 275.054 334.574 284.639C331.158 294.241 328.288 304.093 326.847 314.295Z" fill="#B3C9F9"/>
<path opacity="0.1" d="M380.958 202.464C379.583 227.333 371.061 293.444 319.6 308.416C321.456 315.921 323.709 320.425 323.709 320.425C393.181 303.158 385.659 200.09 385.659 200.09C384.055 200.874 382.491 201.666 380.958 202.464Z" fill="#0046A0"/>
<path d="M313.827 346.791C313.827 346.791 318.975 324.767 340.508 298.077C364.101 268.836 394.865 258.315 407.637 272.37C420.033 286.011 409.502 304.859 377.57 314.489C345.639 324.12 327.586 328.269 313.827 346.791Z" fill="#E4F4D5"/>
<path d="M397.526 280.027C390.22 282.917 383.143 286.269 376.192 289.818C369.263 293.409 362.498 297.299 356.043 301.644C349.567 305.952 343.403 310.721 337.685 315.99C331.988 321.282 326.767 327.101 322.255 333.544C324.075 330.059 326.224 326.74 328.55 323.543C330.951 320.408 333.497 317.362 336.295 314.559C341.836 308.894 348.065 303.935 354.623 299.519C357.928 297.347 361.296 295.274 364.747 293.35C368.217 291.464 371.726 289.65 375.323 288.03C382.492 284.749 389.905 281.98 397.526 280.027Z" fill="#A4DB74"/>
<path opacity="0.1" d="M407.637 272.37C406.945 271.608 406.19 270.932 405.396 270.314C395.038 295.684 364.773 314.059 329.022 314.096C317.049 333.034 313.827 346.791 313.827 346.791C327.586 328.269 345.639 324.12 377.57 314.489C409.502 304.858 420.034 286.011 407.637 272.37Z" fill="#0046A0"/>
<path d="M128.506 334.42C128.506 334.42 54.1871 366.311 11.9961 265.545C11.9961 265.545 115.328 264.058 128.506 334.42Z" fill="#A4DB74"/>
<path d="M122.571 330.929C112.248 330.349 102.12 327.593 92.4 324.042C91.1861 323.588 89.953 323.175 88.7521 322.686L85.1791 321.147L81.6061 319.601L78.1121 317.888C73.4121 315.67 68.9751 312.972 64.4641 310.404L57.9771 306.106C55.786 304.715 53.7111 303.159 51.6521 301.583C49.6051 299.993 47.5011 298.476 45.5051 296.827C43.5321 295.149 41.5791 293.447 39.6371 291.737L36.7241 289.175L33.9671 286.443L28.5021 280.947C27.5791 280.045 26.7481 279.053 25.9011 278.077L23.3731 275.143C21.6941 273.183 20.0401 271.207 18.4041 269.221C20.3181 270.956 22.2121 272.701 24.0811 274.462L26.8761 277.109C27.8041 277.993 28.7151 278.893 29.7171 279.7L35.5321 284.725L38.4151 287.254L41.4271 289.628C43.4411 291.202 45.4451 292.783 47.4291 294.389C49.4481 295.949 51.569 297.374 53.6311 298.872C57.689 301.968 62.0781 304.575 66.3241 307.389C75.0251 312.689 84.0541 317.441 93.4191 321.481C102.804 325.453 112.472 328.895 122.571 330.929Z" fill="#B3C9F9"/>
<path opacity="0.1" d="M14.0921 270.376C38.8391 273.201 104.339 285.571 116.278 337.82C123.878 336.405 128.507 334.42 128.507 334.42C115.328 264.058 11.9971 265.545 11.9971 265.545C12.6861 267.192 13.3851 268.799 14.0921 270.376Z" fill="#0046A0"/>
<path d="M97.9421 307.271C97.9421 307.271 97.5801 284.656 82.1941 254.008C65.3361 220.43 37.5011 203.627 22.0401 214.654C7.03312 225.358 13.3311 246.009 42.4951 262.19C71.6601 278.372 88.4221 286.254 97.9421 307.271Z" fill="#E4F4D5"/>
<path d="M30.2981 224.281C36.8251 228.654 43.0311 233.431 49.0711 238.372C55.0811 243.35 60.8681 248.586 66.2551 254.2C71.6711 259.783 76.6841 265.751 81.1541 272.112C85.6001 278.491 89.4691 285.285 92.5131 292.538C91.4731 288.746 90.0771 285.047 88.4811 281.43C86.7991 277.858 84.9571 274.341 82.8171 271.009C78.6031 264.299 73.5671 258.132 68.0941 252.426C65.3241 249.603 62.4721 246.863 59.5081 244.251C56.5161 241.672 53.4721 239.156 50.3001 236.81C43.9891 232.083 37.3321 227.805 30.2981 224.281Z" fill="#A4DB74"/>
<path opacity="0.1" d="M22.0402 214.655C22.8782 214.057 23.7592 213.557 24.6662 213.121C29.4102 240.11 55.0922 264.483 90.0232 272.098C97.7092 293.144 97.9422 307.271 97.9422 307.271C88.4222 286.254 71.6592 278.371 42.4952 262.191C13.3312 246.01 7.03416 225.359 22.0402 214.655Z" fill="#0046A0"/>
<path d="M303.796 329.166C302.987 334.516 297.611 338.894 291.849 338.894H121.355C115.593 338.894 110.158 334.524 109.277 329.184L81.0478 157.987C80.1668 152.647 84.1618 148.277 89.9238 148.277H320.66C326.422 148.277 330.475 152.655 329.667 158.005L303.796 329.166Z" fill="#A4DB74"/>
<path d="M261.014 91.0723H117.45V293.319H293.011V123.538L261.014 91.0723Z" fill="#C2CEF2"/>
<path d="M261.014 91.0723L293.246 123.303H261.014V91.0723Z" fill="#7997F2"/>
<path d="M253.962 155.028L239.647 140.713L205.348 175.009L171.049 140.713L156.733 155.028L191.032 189.325L156.733 223.622L171.049 237.938L205.348 203.641L239.647 237.938L253.962 223.622L219.664 189.325L253.962 155.028Z" fill="#AFC2E8"/>
<path d="M222.008 207.018C217.481 207.024 212.686 203.489 211.352 199.163L204.775 177.832C203.441 173.506 198.646 169.967 194.119 169.967H77.1689C72.6419 169.967 69.5859 173.614 70.3769 178.071L98.9239 338.934C99.7149 343.391 104.066 347.038 108.593 347.038H311.181C315.708 347.038 319.991 343.38 320.7 338.909L340.345 214.975C341.054 210.504 337.93 206.85 333.403 206.856L222.008 207.018Z" fill="#E4F4D5"/>
<path d="M193.516 282.405C193.516 276.143 196.002 271.263 200.974 267.763L203.368 266.107C205.639 264.635 207.22 263.422 208.111 262.471C209 261.52 209.447 260.338 209.447 258.926C209.447 255.366 206.468 253.585 200.514 253.585C197.752 253.585 194.898 253.954 191.951 254.691C189.006 255.427 186.212 256.472 183.573 257.821V243.642C189.219 241.064 195.543 239.775 202.54 239.775C210.09 239.775 216.076 241.356 220.494 244.517C224.914 247.679 227.123 252.052 227.123 257.637C227.123 260.768 226.417 263.299 225.006 265.233C223.593 267.167 221.199 269.33 217.824 271.724C215.553 273.382 213.894 274.656 212.851 275.546C211.808 276.437 211.025 277.433 210.504 278.538C209.981 279.644 209.721 280.994 209.721 282.588V284.339H193.515V282.405H193.516ZM195.405 304.456C193.777 302.83 192.964 300.819 192.964 298.425C192.964 295.971 193.777 293.945 195.405 292.348C197.029 290.752 199.072 289.954 201.527 289.954C203.921 289.954 205.962 290.767 207.651 292.393C209.337 294.021 210.183 296.03 210.183 298.424C210.183 300.818 209.338 302.829 207.651 304.455C205.962 306.081 203.921 306.894 201.527 306.894C199.072 306.895 197.029 306.082 195.405 304.456Z" fill="white"/>
<path opacity="0.1" d="M333.402 206.855L320.733 206.873C321.012 209.79 321.161 212.734 321.161 215.704C321.161 282.139 250.057 335.995 162.347 335.995C138.851 335.995 116.55 332.127 96.4849 325.191L98.9239 338.933C99.7149 343.39 104.066 347.037 108.593 347.037H311.181C315.708 347.037 319.991 343.379 320.7 338.908L340.345 214.974C341.053 210.503 337.929 206.85 333.402 206.855Z" fill="#0046A0"/>
<g opacity="0.3">
<path d="M90.0329 193.841C90.6349 197.879 91.2369 201.917 91.8399 205.955C93.2729 215.564 94.7059 225.172 96.1389 234.781C97.8839 246.483 99.6289 258.184 101.374 269.885C102.872 279.931 104.37 289.976 105.868 300.022C106.366 303.36 106.863 306.697 107.361 310.035C107.595 311.602 107.728 313.228 108.068 314.777C108.083 314.843 108.088 314.912 108.098 314.979C108.303 316.354 110.039 317.112 111.262 316.775C112.735 316.37 113.264 314.99 113.058 313.611C112.456 309.573 111.854 305.535 111.251 301.497C109.818 291.888 108.385 282.28 106.952 272.671C105.207 260.97 103.462 249.268 101.717 237.567C100.219 227.521 98.7209 217.476 97.2229 207.43C96.7249 204.092 96.2279 200.755 95.7299 197.417C95.4959 195.85 95.3629 194.224 95.0229 192.675C95.0079 192.609 95.0029 192.54 94.9929 192.473C94.7879 191.098 93.0519 190.34 91.8289 190.677C90.3569 191.082 89.8269 192.462 90.0329 193.841Z" fill="white"/>
</g>
<path d="M372.356 104.779C356.548 104.779 343.733 117.594 343.733 133.402C343.733 140.467 346.298 146.93 350.54 151.922L349.344 166.66L363.02 160.46C365.947 161.47 369.086 162.026 372.356 162.026C388.164 162.026 400.979 149.211 400.979 133.403C400.979 117.595 388.165 104.779 372.356 104.779Z" fill="#A4DB74"/>
<path d="M370.375 148.055C369.852 147.531 369.59 146.885 369.59 146.115C369.59 145.345 369.852 144.699 370.375 144.175C370.899 143.651 371.545 143.389 372.315 143.389C373.085 143.389 373.739 143.651 374.279 144.175C374.817 144.698 375.087 145.345 375.087 146.115C375.087 146.885 374.816 147.532 374.279 148.055C373.739 148.578 373.085 148.84 372.315 148.84C371.545 148.84 370.899 148.578 370.375 148.055ZM368.759 115.861H375.964L374.625 138.91H370.097L368.759 115.861Z" fill="#F2F2F2"/>
<path opacity="0.1" d="M356.676 148.57C353.569 148.57 350.538 148.297 347.612 147.782C348.467 149.25 349.447 150.636 350.541 151.923L349.345 166.661L363.021 160.461C365.948 161.471 369.087 162.027 372.357 162.027C388.165 162.027 400.98 149.212 400.98 133.404C400.98 129.573 400.221 125.92 398.856 122.58C393.124 137.656 376.411 148.57 356.676 148.57Z" fill="#0046A0"/>
<path d="M79.0959 97.0358V69.8948C79.0959 66.6358 76.4289 63.9688 73.1699 63.9688H23.6999C20.4409 63.9688 17.7739 66.6358 17.7739 69.8948V104.097C17.7739 107.356 20.4409 110.023 23.6999 110.023H67.9909H73.1689H93.3699L79.0959 97.0358Z" fill="#A4DB74"/>
<path d="M40.165 83.1847C40.165 85.7887 38.652 87.8987 36.787 87.8987C34.921 87.8987 33.408 85.7877 33.408 83.1847C33.408 80.5807 34.921 78.4707 36.787 78.4707C38.652 78.4707 40.165 80.5817 40.165 83.1847Z" fill="white"/>
<path d="M62.6249 83.1847C62.6249 85.7887 61.1119 87.8987 59.2459 87.8987C57.3799 87.8987 55.8679 85.7877 55.8679 83.1847C55.8679 80.5807 57.3809 78.4707 59.2459 78.4707C61.1129 78.4707 62.6249 80.5817 62.6249 83.1847Z" fill="white"/>
<path d="M40.2739 96.3672C41.4319 95.0982 43.0439 94.1012 44.6469 93.5232C48.7049 92.0602 52.6269 93.5882 55.7179 96.3672C56.5429 97.1092 57.7699 95.8902 56.9399 95.1452C53.5139 92.0652 49.0689 90.2562 44.5119 91.7452C42.5129 92.3982 40.4829 93.5772 39.0519 95.1452C38.3029 95.9652 39.5219 97.1912 40.2739 96.3672Z" fill="white"/>
<path opacity="0.1" d="M79.0959 97.0358V69.8948C79.0959 66.6358 76.4289 63.9688 73.1699 63.9688H68.0989C68.9789 67.1927 69.4519 70.5348 69.4519 73.9648C69.4519 88.3818 61.2609 101.292 48.3389 110.024H67.9919H73.1699H93.3709L79.0959 97.0358Z" fill="#0046A0"/>
<path d="M250.043 249.048C234.179 264.912 234.179 290.634 250.043 306.498C265.907 322.362 291.629 322.362 307.493 306.498C323.357 290.634 323.357 264.912 307.493 249.048C291.628 233.184 265.907 233.184 250.043 249.048ZM302.836 301.842C289.544 315.134 267.992 315.134 254.7 301.842C241.408 288.549 241.408 266.998 254.7 253.706C267.993 240.413 289.544 240.413 302.836 253.706C316.128 266.998 316.128 288.549 302.836 301.842Z" fill="#A4DB74"/>
<path opacity="0.3" d="M278.768 311.81C297.566 311.81 312.805 296.571 312.805 277.773C312.805 258.975 297.566 243.736 278.768 243.736C259.97 243.736 244.731 258.975 244.731 277.773C244.731 296.571 259.97 311.81 278.768 311.81Z" fill="white"/>
<path d="M306.397 300.316L301.304 305.408L347.364 351.469L352.457 346.376L306.397 300.316Z" fill="#A4DB74"/>
<path d="M306.396 300.32L301.303 305.412L318.267 322.375L323.359 317.283L306.396 300.32Z" fill="#A4DB74"/>
<path d="M258.951 263.777C260.243 260.052 263.073 257.039 266.477 254.947C269.903 252.87 273.971 251.755 278.04 251.756C282.109 251.746 286.18 252.858 289.607 254.937C293.013 257.027 295.843 260.045 297.128 263.777C293.406 262.52 290.259 261.525 287.132 260.917C284.031 260.288 281.038 260 278.039 259.985C275.04 259.99 272.044 260.276 268.942 260.906C265.814 261.513 262.666 262.513 258.951 263.777Z" fill="white"/>
</svg>
