<svg width="44" height="45" viewBox="0 0 44 45" fill="none" xmlns="http://www.w3.org/2000/svg">
<rect x="1" y="1.7334" width="42" height="42" rx="21" stroke="black" strokeWidth="2"/>
<path d="M30.25 19.2444C31.134 19.5284 31.75 20.3724 31.75 21.3414V25.6274C31.75 26.7634 30.903 27.7274 29.77 27.8204C29.43 27.8474 29.09 27.8724 28.75 27.8924V30.9834L25.75 27.9834C24.396 27.9834 23.056 27.9284 21.73 27.8204C21.4413 27.7971 21.1605 27.7147 20.905 27.5784M30.25 19.2444C30.0955 19.1947 29.9358 19.1628 29.774 19.1494C27.0959 18.9271 24.4041 18.9271 21.726 19.1494C20.595 19.2434 19.75 20.2064 19.75 21.3414V25.6274C19.75 26.4644 20.21 27.2074 20.905 27.5784M30.25 19.2444V17.3704C30.25 15.7494 29.098 14.3444 27.49 14.1354C25.4208 13.8672 23.3365 13.7329 21.25 13.7334C19.135 13.7334 17.052 13.8704 15.01 14.1354C13.402 14.3444 12.25 15.7494 12.25 17.3704V23.5964C12.25 25.2174 13.402 26.6224 15.01 26.8314C15.587 26.9064 16.167 26.9714 16.75 27.0254V31.7334L20.905 27.5784" stroke="black" strokeWidth="1.5" strokeLinecap="round" strokeLinejoin="round"/>
</svg>
